<svg width="50" height="70" viewBox="0 0 50 70" fill="none" xmlns="http://www.w3.org/2000/svg">
<g clip-path="url(#clip0_762_1568)">
<path fill-rule="evenodd" clip-rule="evenodd" d="M39.4374 10.417C40.3959 10.4168 41.3417 10.6371 42.2014 11.0609C43.0612 11.4846 43.812 12.1005 44.3957 12.8607L44.6374 13.2003L46.8666 16.5441C47.4644 17.4404 47.8203 18.4759 47.8999 19.5503L47.9166 20.0128V33.3337C47.9169 34.3849 47.5199 35.3973 46.8051 36.1681C46.0904 36.9389 45.1107 37.4111 44.0624 37.4899L43.7499 37.5003H43.3958C42.9757 38.6884 42.2065 39.7219 41.1889 40.4652C40.1714 41.2085 38.9529 41.6269 37.6934 41.6657C36.4338 41.7044 35.1919 41.3616 34.1306 40.6823C33.0693 40.0029 32.238 39.0187 31.7458 37.8587L31.6041 37.5003H18.3937C17.9733 38.6878 17.204 39.7205 16.1867 40.4633C15.1693 41.2061 13.9513 41.6243 12.6923 41.663C11.4332 41.7017 10.1918 41.3592 9.13071 40.6804C8.06962 40.0015 7.23833 39.018 6.74575 37.8587L6.60409 37.5003H6.24992C5.19872 37.5007 4.18624 37.1036 3.41544 36.3889C2.64465 35.6741 2.17251 34.6944 2.09367 33.6462L2.08325 33.3337V16.667C2.08316 15.0728 2.69226 13.5388 3.78593 12.3789C4.87959 11.2191 6.37514 10.5209 7.96658 10.4274L8.33325 10.417H39.4374ZM37.4999 33.3337C36.9474 33.3337 36.4175 33.5532 36.0268 33.9439C35.6361 34.3346 35.4166 34.8645 35.4166 35.417C35.4166 35.9695 35.6361 36.4994 36.0268 36.8901C36.4175 37.2808 36.9474 37.5003 37.4999 37.5003C38.0525 37.5003 38.5824 37.2808 38.9731 36.8901C39.3638 36.4994 39.5833 35.9695 39.5833 35.417C39.5833 34.8645 39.3638 34.3346 38.9731 33.9439C38.5824 33.5532 38.0525 33.3337 37.4999 33.3337ZM12.4999 33.3337C11.9474 33.3337 11.4175 33.5532 11.0268 33.9439C10.6361 34.3346 10.4166 34.8645 10.4166 35.417C10.4166 35.9695 10.6361 36.4994 11.0268 36.8901C11.4175 37.2808 11.9474 37.5003 12.4999 37.5003C13.0525 37.5003 13.5824 37.2808 13.9731 36.8901C14.3638 36.4994 14.5833 35.9695 14.5833 35.417C14.5833 34.8645 14.3638 34.3346 13.9731 33.9439C13.5824 33.5532 13.0525 33.3337 12.4999 33.3337ZM39.4374 14.5837H37.4999V22.917H43.7499V20.0128C43.75 19.6013 43.6282 19.199 43.3999 18.8566L41.1707 15.5107C40.9804 15.2255 40.7227 14.9916 40.4203 14.8299C40.1179 14.6682 39.7803 14.5836 39.4374 14.5837ZM12.4999 14.5837H8.33325C7.82297 14.5837 7.33047 14.7711 6.94914 15.1101C6.56782 15.4492 6.3242 15.9165 6.2645 16.4232L6.24992 16.667V20.8337H12.4999V14.5837ZM22.9166 14.5837H16.6666V20.8337H22.9166V14.5837ZM33.3333 14.5837H27.0833V20.8337H33.3333V14.5837Z" fill="#5D4A3A"/>
</g>
<path d="M9.57812 67.1328C10.4844 65.7995 11.263 64.1667 11.9141 62.2344C12.6224 60.1198 13.0703 57.9714 13.2578 55.7891L15.0469 56.1562C14.5833 59.3542 13.9609 62.0417 13.1797 64.2188C12.6172 65.8021 11.9245 67.1901 11.1016 68.3828L9.57812 67.1328ZM22.1875 68.4609C20.3021 65.3307 18.8464 61.224 17.8203 56.1406L19.5156 55.6172C20.4219 60.1589 21.8281 64.0469 23.7344 67.2812L22.1875 68.4609ZM21.3672 57.6328C21.0651 56.8047 20.5391 55.8438 19.7891 54.75L21.0156 54.3047C21.6146 55.1276 22.1536 56.0703 22.6328 57.1328L21.3672 57.6328ZM23.6094 57.2812C23.2083 56.2448 22.6849 55.2734 22.0391 54.3672L23.2109 53.9844C23.8307 54.7448 24.3594 55.6615 24.7969 56.7344L23.6094 57.2812ZM26.7266 55.9219H36.1484L37.1875 56.8359C36.3073 58.9193 35.2578 60.8125 34.0391 62.5156C35.7682 63.8698 37.4167 65.3958 38.9844 67.0938L37.6875 68.5625C36.151 66.8177 34.5885 65.2396 33 63.8281C31.2917 65.8438 29.1302 67.4375 26.5156 68.6094L25.5781 66.9922C27.5208 66.2005 29.138 65.2135 30.4297 64.0312C31.638 62.9271 32.7448 61.5651 33.75 59.9453C34.2865 59.0755 34.7031 58.2682 35 57.5234H26.7266V55.9219Z" fill="#5D4A3A"/>
<defs>
<clipPath id="clip0_762_1568">
<rect width="50" height="50" fill="white"/>
</clipPath>
</defs>
</svg>
