<svg width="329" height="130" viewBox="0 0 329 130" fill="none" xmlns="http://www.w3.org/2000/svg">
<g clip-path="url(#clip0_131_34)">
<path d="M0.778773 36.1125C0.160631 35.4815 -0.111352 34.8382 0.0370021 34.3557C0.185356 33.8732 1.31038 32.7722 3.36261 31.0525C5.41484 29.3329 9.56876 26.673 15.9727 23.1347C22.3767 19.6707 30.4125 18.3841 40.3151 19.4357C43.3688 20.4625 45.6435 22.3801 47.1394 25.1266C48.7095 27.873 47.7205 33.3784 44.3825 41.7044C41.1558 48.0139 38.0898 52.3687 35.2587 54.843C32.4277 57.4534 30.6598 58.8266 29.8933 59.0988C29.1268 59.3709 28.6323 59.3586 28.3603 59.074C28.0883 58.7895 27.9523 58.3688 27.9647 57.8864C27.9647 57.4657 29.9551 55.2636 33.9236 51.5521C37.8179 47.7664 40.9704 42.4343 43.4429 35.4197C45.8537 28.4669 44.8647 23.9884 40.6366 22.1079C27.26 20.3017 15.9109 24.0502 6.41623 33.1309C3.31316 35.8032 1.40928 36.83 0.791136 36.1248L0.778773 36.1125Z" fill="#231815"/>
<path d="M64.5464 23.5432C63.1123 23.8277 62.2098 23.6545 61.8513 23.1226C61.5546 22.5906 61.4928 22.1328 61.7895 21.8483C61.9502 21.4771 63.001 20.8833 64.8184 20.24C66.5615 19.5843 68.8981 18.4956 71.7787 16.8873C72.879 13.5965 73.732 11.4191 74.4367 10.1572C75.0548 8.95716 75.7471 8.30146 76.4271 8.15301C77.107 8.01692 77.4779 8.38806 77.3914 9.21696C77.3048 9.97162 77.2183 10.7139 77.1318 11.2459C76.9711 11.7655 76.5013 12.9655 75.7966 14.9079C80.4203 12.2727 83.9808 10.1325 86.6388 8.74684C89.2103 7.27463 90.6444 6.854 90.9411 7.29937C91.1636 7.83135 91.2996 8.43755 91.2872 9.03138C91.2872 9.71182 89.7542 10.7387 86.577 12.347C83.3997 13.9553 79.456 16.0832 74.7581 18.8667C73.0026 25.9061 71.9394 31.3867 71.8157 35.0734C71.6056 38.8344 71.7292 40.7891 72.1125 40.8633C72.4833 41.0241 72.6317 41.3211 72.7059 41.853C72.7059 42.4592 72.6193 42.9789 72.5328 43.35C72.3721 43.7211 71.7663 44.1665 70.7896 44.5995C69.6522 45.1068 68.9723 45.3294 68.7498 45.1686C68.4531 45.0944 68.2305 44.6366 68.0945 44.0304C67.9585 43.35 68.144 40.6406 68.6632 35.9889C69.1083 31.4115 69.8501 26.3763 70.7649 20.8957C68.0327 22.3555 65.9187 23.3081 64.5588 23.5184L64.5464 23.5432ZM114.913 12.9903C115.345 13.98 115.259 14.7223 114.505 15.1677C113.676 15.6007 112.922 15.6007 112.255 15.2048C111.661 14.8213 109.164 15.5388 105.158 17.3574C100.992 19.3245 97.5181 20.5493 94.7983 21.3411C92.0784 22.1328 90.496 22.2565 90.2858 21.7988C89.9891 21.4153 90.0015 20.9699 90.0757 20.5988C90.2364 20.2276 90.5331 19.8565 90.9163 19.5596C91.2996 19.3369 93.4136 18.5451 97.2708 17.1718C101.116 15.9471 106.259 14.2151 112.675 12.05C113.577 11.6913 114.332 12.0006 114.913 12.9903ZM103.081 30.3475C102.439 28.232 102.228 26.8711 102.463 26.4258C102.698 26.0546 103.292 26.1412 104.268 26.7474C105.233 27.366 105.888 28.9495 106.456 31.5228C106.951 34.0837 107.124 37.4735 106.914 41.7541C108.113 42.0015 109.386 42.7685 110.796 43.9191C112.131 45.0696 112.947 46.2078 113.231 47.3336C113.516 48.3852 113.429 48.9914 113.058 49.1399C112.601 49.2883 112.156 49.3502 111.772 49.3502C111.402 49.3502 110.882 48.7316 110.363 47.68C109.856 46.5419 108.434 45.7006 106.271 44.983C104.243 49.6224 100.98 52.3565 96.4549 53.1111C92.0043 53.8782 88.7034 53.5936 86.7006 52.1462C84.6855 50.7605 84.191 48.7935 85.3531 46.2573C86.441 43.7211 88.6539 41.8654 92.1155 40.8633C95.3546 40.0839 99.1871 40.1334 103.687 41.0365C103.984 36.0755 103.811 32.5373 103.094 30.3475H103.081ZM94.4027 43.6098C91.3861 44.2407 89.4946 45.0449 88.6539 46.1583C87.8133 47.2718 87.8009 48.3234 88.4561 49.5358C91.6705 50.7853 94.5263 50.909 96.9371 50.0306C99.3602 49.0904 101.487 47.1604 103.032 44.1047C100.337 43.0902 97.4068 42.9665 94.3903 43.5974L94.4027 43.6098Z" fill="#231815"/>
<path d="M132.468 32.2155C130.144 28.3556 129.192 26.0297 129.34 25.2379C129.55 24.4462 130.7 22.2812 132.74 18.6192C134.842 14.9572 137.401 11.419 140.553 7.83121C143.768 4.24347 145.449 2.28877 145.585 1.89288C145.721 1.55885 146.191 1.43513 146.846 1.58359C147.575 1.73205 147.959 2.06608 148.082 2.52382C148.206 2.98157 146.722 4.88679 143.78 8.27658C140.825 11.6664 137.042 17.3573 132.443 25.3493C136.881 33.6753 141.283 39.0198 145.807 41.3333C150.394 43.7086 152.879 45.1314 153.411 45.4035C153.806 45.7376 153.856 46.2695 153.584 46.8634C153.176 47.4572 152.323 47.7046 151.062 47.618C149.813 47.5314 148.107 46.6531 145.956 44.9705C139.292 40.3807 134.73 36.1496 132.48 32.2279L132.468 32.2155ZM160.989 8.98176C161.496 10.1076 161.953 11.1097 162.337 11.9014C162.596 12.6314 162.905 13.3613 163.227 14.0293C163.486 14.6974 163.338 15.0933 162.819 15.2789C162.349 15.5387 161.83 15.6005 161.298 15.4521C160.766 15.316 160.124 14.3757 159.357 12.5819C158.529 10.8499 158.084 9.19208 158.108 7.41058C158.071 5.76516 158.146 4.70121 158.282 4.30532C158.418 3.97129 159.011 3.92181 159.938 3.99604C160.927 4.00841 161.249 4.81256 160.766 6.1858C160.433 6.84149 160.482 7.83121 160.989 8.96939V8.98176ZM169.717 12.4087C169.977 12.4087 170.113 12.6808 170.1 13.3365C170.1 13.9922 169.495 14.3139 168.37 14.2397C167.245 14.2273 166.342 12.7551 165.798 9.84777C165.316 6.94046 165.217 4.55275 165.501 2.64754C165.86 0.742325 166.602 -0.173168 167.591 0.0371476C168.506 0.247464 168.765 0.779439 168.431 1.57122C167.85 4.93627 168.135 8.5735 169.334 12.421C169.334 12.421 169.47 12.421 169.73 12.421L169.717 12.4087Z" fill="#231815"/>
<path d="M176.85 43.3869C174.501 41.791 172.894 40.4301 172.165 39.0816C171.448 37.8074 171.46 36.9166 172.202 36.5578C172.956 36.1991 173.611 36.3599 174.118 37.1022C174.551 37.8568 176.603 39.5146 180.127 42.2364C183.65 44.9581 185.331 46.7643 185.319 47.7293C185.319 48.5458 185.146 49.2139 184.775 49.5727C184.404 49.9438 183.811 49.9315 183.143 49.3995C181.252 46.9994 179.199 44.8839 176.85 43.3745V43.3869Z" fill="#231815"/>
<path d="M91.3737 91.6978C92.2391 88.073 92.9315 86.1554 93.2405 85.8585C93.6114 85.6358 94.4274 86.0193 95.676 87.009C100.992 83.2233 107.717 80.2789 115.84 78.0273C118.906 71.3219 120.81 67.8579 121.255 67.561C121.774 67.3507 122.293 67.2022 122.664 67.2146C123.035 67.2146 123.332 67.4496 123.468 67.9692C123.604 68.4888 122.454 71.5199 119.994 76.9757C130.935 74.4643 137.364 75.887 139.44 81.3429C141.369 86.7863 142 94.5185 141.184 104.527C140.368 114.61 139.539 121.055 138.897 123.864C138.192 126.672 137.351 128.367 136.523 128.726C135.781 129.085 135.175 129.221 134.965 129.072C134.668 128.924 134.916 127.662 135.62 125.076C136.251 122.491 136.918 117.74 137.462 110.552C137.932 103.5 138.105 96.6836 137.982 90.2133C137.858 83.7553 136.053 79.7964 132.591 78.5593C127.547 78.7077 122.862 79.2397 118.547 80.1305C115.481 86.7616 112.972 91.636 110.845 94.7165C118.275 94.3082 123.171 94.2216 125.384 94.4072C129.167 94.5309 130.267 95.1495 128.92 96.2382C127.424 97.3269 125.928 97.9083 124.296 98.1805C117.707 97.0423 112.588 96.9681 108.941 98.1063C105.603 103.327 103.774 106.494 103.39 107.595C103.007 108.709 102.476 109.29 102.031 109.278C101.437 109.278 100.844 108.968 100.337 108.437C99.8299 107.905 100.374 106.284 101.969 103.488C103.489 100.84 104.478 99.294 104.775 98.8486C104.998 98.4774 105.838 97.1537 107.359 94.9515C108.731 92.7494 111.167 88.0977 114.381 81.1697C106.79 83.211 100.51 86.5389 95.4658 91.1411C94.1554 94.9021 93.4136 99.8012 93.3271 105.665C93.2405 111.529 93.6856 116.886 94.6499 121.649C95.6142 126.487 95.6513 129.085 94.9095 129.592C94.0812 130.099 93.2653 130.087 92.61 129.703C92.029 129.245 91.4603 126.944 91.1512 122.701C90.768 118.544 90.4589 114.523 90.2858 110.589L89.8655 108.585C89.9767 100.939 90.5083 95.3103 91.3737 91.6855V91.6978Z" fill="#231815"/>
<path d="M158.937 107.298C157.985 100.135 158.17 93.6773 159.505 87.7637C160.841 81.8501 161.619 78.782 161.867 78.5098C162.114 78.2377 162.707 78.2129 163.659 78.4356C164.611 78.6583 164.327 81.8501 162.831 88.0483C161.335 94.2464 161.014 100.482 161.879 106.816C162.67 113.138 163.214 116.391 163.573 116.565C163.931 116.75 164.265 117.22 164.636 118C165.093 118.705 164.821 119.361 164.03 119.806C163.177 120.251 162.497 120.276 162.015 119.855C160.94 118.569 159.802 114.449 158.924 107.298H158.937ZM166.874 85.1905C167.912 83.4956 171.102 81.0831 176.492 78.1263C181.808 75.1572 187.285 73.7715 192.996 73.9695C198.782 74.1674 203.319 75.0829 206.905 76.6541C210.477 78.2995 212.629 80.2047 213.407 82.4316C214.112 84.5843 214.52 88.5555 214.545 94.2217C214.582 99.8878 213.074 105.195 210.267 110.169C207.461 115.068 205.755 117.604 205.372 117.789C204.988 117.975 204.383 118 203.418 118C202.454 118 198.98 118.507 192.873 119.472C186.753 120.511 180.906 121.86 175.169 123.604C169.433 125.348 166.354 125.744 165.835 124.878C165.316 123.938 166.218 123.047 168.37 122.194C170.521 121.414 174.798 120.14 181.116 118.532C187.433 116.911 195.296 115.513 204.692 114.387C211.256 104.75 213.123 94.333 210.589 83.0254C209.34 81.1326 205.322 79.2892 198.609 77.817C191.822 76.2582 184.182 77.6933 175.75 82.246C172.004 84.2997 169.73 86.4895 169.012 88.8153C168.295 91.1412 167.294 91.4257 166.095 89.8298C165.538 88.5184 165.749 86.972 166.861 85.2028L166.874 85.1905ZM164.092 109.686C164.055 109.241 164.043 108.486 164.129 107.533C164.216 106.568 166.49 105.208 171.028 103.438C175.503 101.595 180.411 99.8507 185.554 98.0692C186.469 87.4297 187.223 82.1223 187.829 82.11C188.422 82.0852 188.929 82.2832 189.263 82.679C189.671 83.0873 189.77 83.7677 189.597 84.8688C189.424 85.9699 189.164 89.8916 188.855 96.8692C194.196 95.397 198.201 94.6176 200.81 94.5557C203.492 94.4938 204.865 94.9763 205.149 96.0527C205.433 97.1166 205.149 97.8342 204.358 98.3661C203.567 98.8981 202.899 98.9105 202.194 98.4032C201.49 97.896 200.08 97.8465 197.892 98.1806C195.778 98.5146 192.576 99.3559 188.36 100.791C188.051 105.307 187.755 108.635 187.408 110.911C187.075 113.113 186.728 114.424 186.456 115.08C186.172 115.723 185.851 116.07 185.319 116.169C184.787 116.268 184.429 116.095 184.095 115.612C183.761 115.142 184.169 110.478 185.233 101.558C177.988 103.537 171.349 106.395 165.155 109.958C164.537 110.28 164.092 110.243 164.055 109.711L164.092 109.686Z" fill="#231815"/>
<path d="M242.324 81.5408C242.979 81.714 243.115 82.0233 242.88 82.3821C242.646 82.7408 242.077 83.6811 241.187 85.3512C241.162 85.9451 241.137 86.5389 241.113 87.0585C245.959 89.9534 248.926 91.7968 250.001 92.6628C251.151 93.4546 251.782 94.3701 251.819 95.2732C251.856 96.1639 251.176 96.3619 249.643 95.7681C248.184 95.1866 245.353 93.6402 241.088 91.1535C240.136 99.1331 239.716 105.208 239.542 109.142C239.444 113.15 239.258 115.451 238.863 116.094C238.467 116.75 237.787 116.787 236.847 116.231C235.982 115.674 235.71 114.993 236.056 114.115C236.316 113.162 236.662 110.503 236.946 105.913C237.218 101.397 237.527 96.2753 237.775 90.572C234.783 94.3082 232.805 97.265 231.593 99.43C230.456 101.682 229.652 102.906 229.269 103.265C228.886 103.624 228.428 103.822 228.057 103.81C227.687 103.797 227.328 103.55 226.908 103.018C226.487 102.473 226.586 101.818 227.217 101.1C227.773 100.308 228.725 98.8609 229.998 96.9928C231.198 95.1124 233.992 90.7081 238.232 83.9161C238.739 80.749 239.036 77.4829 238.961 74.2169C233.979 76.1468 230.493 77.7056 228.577 78.8809C226.747 79.982 225.597 80.6748 225.375 80.8975C225.214 81.1078 224.781 81.0212 224.126 80.6129C223.471 80.2171 223.421 79.6851 223.978 78.9675C224.534 78.1758 225.844 77.1984 228.193 76.0355C230.481 74.7983 234.103 73.3261 239.085 71.4704C239.036 65.9651 239.048 62.2536 239.135 60.3236C239.221 58.3937 239.345 57.2926 239.505 57.0699C239.666 56.8596 240.049 56.5751 240.581 56.3029C241.113 56.0307 241.632 56.1297 241.978 56.5132C242.411 56.9091 242.497 61.4371 242.337 70.0477C246.577 68.1548 249.903 66.8187 252.239 66.1011C254.563 65.4578 255.923 65.1485 256.22 65.1609C256.517 65.1733 256.801 65.3341 256.949 65.5692C257.172 65.73 256.986 66.3115 256.368 67.1032C255.664 67.895 254.304 68.5754 252.276 69.0703C250.249 69.6518 246.911 71.0621 242.213 73.2271C241.681 78.6335 241.706 81.38 242.361 81.5532L242.324 81.5408ZM268.138 58.8391C269.263 58.5174 270.326 58.1215 271.389 57.6514C272.452 57.1813 273.355 56.773 274.196 56.2163C275.036 55.6596 276.112 54.8183 277.496 53.7667C278.881 52.6409 279.796 52.0842 280.389 52.1089C280.983 52.1337 281.564 52.3069 282.071 52.5543C282.503 52.8018 282.639 53.1729 282.256 53.5317C281.947 53.8904 281.255 54.4472 280.093 55.3627C279.017 56.2781 276.582 57.6638 272.922 59.804C272.551 61.4989 271.884 63.1815 271.142 64.6289C270.4 66.1506 269.757 67.3878 269.349 68.3404C274.01 67.0661 276.866 66.3733 277.991 66.1259C279.042 65.8785 280.76 65.6558 282.85 65.4455C284.939 65.2475 286.348 65.3094 286.843 65.6929C287.337 66.0764 287.399 66.6084 286.843 67.2517C286.286 67.9692 285.532 68.229 284.655 68.1177C283.69 68.0064 282.8 67.9569 281.984 67.994C281.242 68.0311 280.414 68.2167 279.437 68.4765C278.461 68.7363 277.027 69.1817 274.999 69.6889C275.432 70.0848 275.988 70.7034 276.779 71.4085C277.571 72.1137 279.128 73.7467 281.527 76.3695C284.012 79.0789 286.336 81.6398 288.45 84.2625C290.564 86.8853 291.738 88.7163 291.85 89.6936C291.949 90.7328 291.714 91.1782 291.194 91.0793C290.675 90.9803 290.168 90.6586 289.748 90.2751C289.241 89.8792 287.622 88.0977 284.791 84.9306C281.959 81.7635 279.994 79.3634 278.646 77.8912C277.373 76.3448 276.248 75.1076 275.333 74.0313C274.492 72.955 273.491 71.9405 272.428 70.7776C270.326 71.2106 268.756 71.5075 267.631 71.7549C266.333 74.3777 264.206 78.7325 261.252 84.9182C258.309 91.104 256.307 94.2835 255.404 94.6175C254.427 94.9515 253.908 94.9268 253.846 94.5433C253.784 94.1721 253.809 93.5783 253.995 92.836C254.18 92.0319 255.478 89.4091 257.753 85.0543C260.028 80.7738 262.216 76.5551 264.095 72.5591C263.415 72.7447 262.587 72.9426 261.474 73.1158C260.349 73.289 258.557 73.7344 255.997 74.2787C253.438 74.8231 251.881 75.0581 251.51 74.9715C251.139 74.8849 250.793 74.489 250.533 73.6601C250.348 72.8313 255.392 71.3467 265.727 69.2064C267.606 65.2722 268.842 62.6619 269.423 61.202C268.138 61.734 266.555 62.266 264.75 62.8474C262.945 63.3547 261.684 63.2309 260.905 62.6C260.201 61.8948 260.596 61.1773 262.34 60.435C265.047 59.7422 267 59.1607 268.125 58.8391H268.138ZM274.9 95.3969C278.189 94.9515 280.946 94.6299 283.258 94.4319C285.495 94.1598 287.337 94.3948 288.796 94.9763C290.181 95.632 290.96 96.5598 291.12 97.7599C291.293 98.8857 291.219 102.226 290.898 107.707C290.576 113.261 290.354 116.676 290.218 118C290.082 119.41 289.587 120.35 288.895 121.055C288.264 121.773 287.659 122.045 287.152 121.946C286.633 121.847 286.509 121.476 286.682 120.882C286.855 120.301 287.028 119.707 287.201 119.274C287.374 118.767 287.473 118.173 287.498 117.579C287.523 116.985 287.733 114.103 288.03 108.907C288.339 103.723 288.351 99.9991 288.079 97.7599C285.73 97.1413 283.282 97.03 280.674 97.4258C278.139 97.7599 274.097 98.3166 268.57 99.195C263.044 99.9867 257.827 100.42 252.845 100.494C252.721 101.607 252.35 103.29 251.794 105.801C251.164 108.375 250.966 111.183 251.114 114.387C251.275 117.591 251.052 119.212 250.521 119.336C249.989 119.46 249.569 119.15 249.371 118.47C249.173 117.864 248.926 116.738 248.765 115.327C248.604 113.979 248.518 112.569 248.493 111.381C248.481 110.119 248.543 108.634 248.765 107.014C248.988 105.393 249.223 103.315 249.705 100.89C250.187 98.4527 251.275 97.3887 252.956 97.7599C264.367 96.6341 271.599 95.8423 274.888 95.3969H274.9ZM262.995 92.4896C262.71 90.5473 262.636 88.9019 262.76 87.6523C262.884 86.4647 263.415 84.5595 264.342 82.0728C265.27 79.5861 266.011 79.6974 266.555 82.3944C267.161 82.1223 268.064 81.7882 269.275 81.4047C270.561 80.947 271.76 80.5511 272.811 80.2294C273.936 79.9078 275.222 79.5242 276.656 79.0665C278.003 78.683 279.104 79.1778 279.771 80.6872C280.451 82.2089 280.538 83.4708 280.043 84.5595C279.549 85.5739 279.264 87.1204 279.252 88.9142C279.252 90.77 278.337 91.1782 276.668 90.139C272.576 91.8834 269.337 93.1577 266.926 93.9371C264.577 94.9515 263.267 94.4443 262.982 92.502L262.995 92.4896ZM259.595 115.451C259.162 113.496 259.014 111.938 259.138 110.602C259.274 109.265 259.805 107.36 260.881 104.886C261.882 102.399 262.698 102.511 263.378 105.368C264.281 105.109 265.344 104.713 266.704 104.181C267.989 103.649 269.337 103.327 270.61 103.166C271.81 102.993 273.231 102.535 274.678 101.941C276.186 101.335 277.435 101.694 278.634 103.08C279.833 104.391 280.006 105.74 279.425 107.051C278.77 108.437 278.399 109.983 278.325 111.752C278.251 113.534 277.262 114.004 275.358 113.249C270.586 115.414 266.901 116.515 263.996 116.676C261.425 117.826 260.028 117.468 259.595 115.439V115.451ZM265.888 91.0669C269.72 90.1266 273.194 88.8647 276.223 87.5163C276.977 85.5492 277.41 84.1512 277.385 83.1862C277.348 82.2212 276.779 81.8996 275.506 81.9862C274.307 82.1594 271.216 83.4337 266.135 85.7348C265.529 87.5657 265.455 89.3472 265.9 91.0793L265.888 91.0669ZM262.71 113.88C267.359 112.977 271.488 111.975 275.036 110.639C275.939 108.672 276.31 107.125 276.273 106.16C276.248 105.121 275.444 104.713 274.035 104.873C272.687 105.034 268.917 106.358 262.945 108.684C262.265 110.589 262.191 112.371 262.71 113.88Z" fill="#231815"/>
<path d="M310.691 120.09C309.529 118 309.714 115.699 311.235 113.125C312.829 110.701 315.079 108.882 318.22 107.509C321.36 106.222 324.314 106.704 327.244 108.907C328.852 111.01 329.334 113.534 328.765 116.503C325.254 123.208 320.915 125.893 315.512 124.693C313.448 123.777 311.915 122.194 310.678 120.09H310.691ZM317.639 121.897C318.9 121.983 320.086 121.637 321.508 120.684C322.781 119.67 324.067 118.42 325.205 116.651C326.268 114.956 326.367 113.175 325.575 111.529C324.858 109.81 323.461 109.278 321.669 109.834C319.728 110.478 317.861 111.492 316.056 112.94C314.103 114.474 313.188 116.317 313.373 118.767C315.055 120.647 316.378 121.711 317.626 121.872L317.639 121.897Z" fill="#231815"/>
</g>
<defs>
<clipPath id="clip0_131_34">
<rect width="329" height="130" fill="white"/>
</clipPath>
</defs>
</svg>
