<svg width="55" height="55" viewBox="0 0 55 55" fill="none" xmlns="http://www.w3.org/2000/svg">
<path fill-rule="evenodd" clip-rule="evenodd" d="M14.8021 7.80214C15.3717 7.23262 16.295 7.23262 16.8645 7.80214L27.5 18.4376L38.1355 7.80214C38.705 7.23262 39.6283 7.23262 40.1979 7.80214C40.7674 8.37165 40.7674 9.29502 40.1979 9.86453L29.5624 20.5L40.1979 31.1355C40.7674 31.705 40.7674 32.6283 40.1979 33.1979C39.6283 33.7674 38.705 33.7674 38.1355 33.1979L27.5 22.5624L16.8645 33.1979C16.295 33.7674 15.3717 33.7674 14.8021 33.1979C14.2326 32.6283 14.2326 31.705 14.8021 31.1355L25.4376 20.5L14.8021 9.86453C14.2326 9.29502 14.2326 8.37165 14.8021 7.80214Z" fill="#FF7F3E"/>
<path d="M17.462 50.93C16.622 51.0793 15.8053 51.182 15.012 51.238C14.2187 51.294 13.4767 51.2893 12.786 51.224C12.0953 51.1587 11.4887 51.0233 10.966 50.818C10.4433 50.6033 10.0327 50.3047 9.734 49.922C9.44467 49.5393 9.3 49.054 9.3 48.466C9.3 47.7193 9.58933 47.0707 10.168 46.52C10.756 45.9693 11.5307 45.4933 12.492 45.092C12.24 44.532 12.058 43.804 11.946 42.908C11.834 42.0027 11.7967 40.9573 11.834 39.772H13.234C13.178 40.3227 13.1547 40.906 13.164 41.522C13.1827 42.1287 13.234 42.7073 13.318 43.258C13.402 43.7993 13.514 44.2613 13.654 44.644C14.1207 44.4853 14.606 44.336 15.11 44.196C15.6233 44.0467 16.146 43.9067 16.678 43.776L16.972 45.12C16.132 45.232 15.3293 45.4 14.564 45.624C13.7987 45.8387 13.122 46.0953 12.534 46.394C11.946 46.6833 11.4793 47.0007 11.134 47.346C10.798 47.6913 10.63 48.0413 10.63 48.396C10.63 48.8347 10.8167 49.1847 11.19 49.446C11.5727 49.698 12.0907 49.866 12.744 49.95C13.4067 50.034 14.158 50.0387 14.998 49.964C15.8473 49.8893 16.7387 49.74 17.672 49.516C17.6067 49.6933 17.5553 49.9267 17.518 50.216C17.4807 50.496 17.462 50.734 17.462 50.93ZM27.08 51.336C26.3893 51.336 25.8247 51.266 25.386 51.126C24.9567 50.9953 24.6393 50.762 24.434 50.426C24.238 50.09 24.14 49.6327 24.14 49.054V39.828L25.554 39.926C25.5447 40.0753 25.5307 40.3367 25.512 40.71C25.4933 41.0833 25.4793 41.494 25.47 41.942C25.4607 42.2873 25.4513 42.67 25.442 43.09C25.442 43.5007 25.442 43.9393 25.442 44.406V48.83C25.442 49.2873 25.568 49.6047 25.82 49.782C26.0813 49.9593 26.5247 50.048 27.15 50.048C27.738 50.048 28.3167 49.9687 28.886 49.81C29.4553 49.642 29.992 49.4227 30.496 49.152C31 48.8813 31.4387 48.5827 31.812 48.256C31.8213 48.3773 31.8353 48.536 31.854 48.732C31.882 48.928 31.91 49.1193 31.938 49.306C31.9753 49.4833 32.0033 49.6093 32.022 49.684C31.35 50.1693 30.58 50.566 29.712 50.874C28.844 51.182 27.9667 51.336 27.08 51.336ZM31.294 42.124C31.1633 41.9373 30.9953 41.7413 30.79 41.536C30.5847 41.3213 30.3747 41.116 30.16 40.92C29.9547 40.724 29.7633 40.5653 29.586 40.444L30.188 39.912C30.3467 40.024 30.538 40.1827 30.762 40.388C30.986 40.5933 31.2053 40.808 31.42 41.032C31.6347 41.2467 31.8027 41.4287 31.924 41.578L31.294 42.124ZM30.146 43.202C30.0153 43.0153 29.852 42.8147 29.656 42.6C29.46 42.376 29.2547 42.166 29.04 41.97C28.8347 41.774 28.648 41.6107 28.48 41.48L29.082 40.962C29.2313 41.074 29.4133 41.2373 29.628 41.452C29.852 41.6667 30.0713 41.886 30.286 42.11C30.5007 42.3247 30.664 42.5113 30.776 42.67L30.146 43.202ZM41.878 51.238C40.842 51.238 40.0767 51.0467 39.582 50.664C39.0967 50.2813 38.854 49.81 38.854 49.25C38.854 48.8953 38.9427 48.592 39.12 48.34C39.2973 48.088 39.5307 47.8967 39.82 47.766C40.1093 47.6353 40.4127 47.57 40.73 47.57C41.346 47.57 41.85 47.7847 42.242 48.214C42.6433 48.634 42.8813 49.1707 42.956 49.824C43.404 49.6747 43.782 49.4227 44.09 49.068C44.398 48.704 44.552 48.242 44.552 47.682C44.552 47.2527 44.4493 46.8747 44.244 46.548C44.048 46.2213 43.7727 45.9647 43.418 45.778C43.0633 45.5913 42.6527 45.498 42.186 45.498C40.9633 45.498 39.946 45.848 39.134 46.548C38.966 46.6973 38.742 46.8887 38.462 47.122C38.182 47.346 37.9207 47.5467 37.678 47.724L36.81 46.786C37.2487 46.5247 37.72 46.1887 38.224 45.778C38.728 45.3673 39.2273 44.9147 39.722 44.42C40.226 43.9253 40.702 43.4167 41.15 42.894C41.598 42.3713 41.99 41.8627 42.326 41.368C41.934 41.4613 41.486 41.5547 40.982 41.648C40.478 41.732 39.9833 41.8067 39.498 41.872C39.022 41.928 38.616 41.9653 38.28 41.984L38.056 40.752C38.308 40.7613 38.6207 40.7567 38.994 40.738C39.3767 40.71 39.778 40.6727 40.198 40.626C40.6273 40.5793 41.0427 40.528 41.444 40.472C41.8547 40.4067 42.2187 40.3367 42.536 40.262C42.8627 40.1873 43.1007 40.1173 43.25 40.052L44.216 40.71C44.0013 41.13 43.7213 41.578 43.376 42.054C43.04 42.5207 42.6667 42.992 42.256 43.468C41.8453 43.944 41.4207 44.4013 40.982 44.84C41.1967 44.7373 41.4347 44.6533 41.696 44.588C41.9573 44.5227 42.2093 44.49 42.452 44.49C43.1333 44.49 43.7307 44.6253 44.244 44.896C44.7573 45.1667 45.1587 45.54 45.448 46.016C45.7467 46.492 45.896 47.0473 45.896 47.682C45.896 48.3633 45.7233 48.9747 45.378 49.516C45.042 50.048 44.5707 50.468 43.964 50.776C43.3667 51.084 42.6713 51.238 41.878 51.238ZM41.64 50.048H41.808C41.78 49.6373 41.668 49.3013 41.472 49.04C41.276 48.7787 41.0287 48.648 40.73 48.648C40.534 48.648 40.3707 48.6993 40.24 48.802C40.1187 48.8953 40.058 49.0353 40.058 49.222C40.058 49.4553 40.1793 49.6467 40.422 49.796C40.6647 49.9453 41.0707 50.0293 41.64 50.048Z" fill="#FF7F3E"/>
</svg>
