<svg width="42" height="42" viewBox="0 0 42 42" fill="none" xmlns="http://www.w3.org/2000/svg">
<path fill-rule="evenodd" clip-rule="evenodd" d="M10.8417 3.84171C11.2973 3.3861 12.036 3.3861 12.4916 3.84171L21 12.3501L29.5084 3.84171C29.964 3.3861 30.7027 3.3861 31.1583 3.84171C31.6139 4.29732 31.6139 5.03601 31.1583 5.49162L22.6499 14L31.1583 22.5084C31.6139 22.964 31.6139 23.7027 31.1583 24.1583C30.7027 24.6139 29.964 24.6139 29.5084 24.1583L21 15.6499L12.4916 24.1583C12.036 24.6139 11.2973 24.6139 10.8417 24.1583C10.3861 23.7027 10.3861 22.964 10.8417 22.5084L19.3501 14L10.8417 5.49162C10.3861 5.03601 10.3861 4.29732 10.8417 3.84171Z" fill="#DC6B19"/>
<path d="M10.458 41.196C9.45 41.3267 8.50733 41.3733 7.63 41.336C6.762 41.308 6.00133 41.1773 5.348 40.944C4.69467 40.7107 4.186 40.3653 3.822 39.908C3.458 39.4507 3.276 38.8627 3.276 38.144C3.276 37.332 3.49067 36.646 3.92 36.086C4.34933 35.5167 4.928 35.0313 5.656 34.63C5.58133 34.2473 5.48333 33.8087 5.362 33.314C5.25 32.81 5.12867 32.32 4.998 31.844C4.86733 31.368 4.75067 30.976 4.648 30.668C4.592 30.5 4.606 30.3413 4.69 30.192C4.78333 30.0333 4.914 29.9307 5.082 29.884C5.24067 29.8373 5.39467 29.856 5.544 29.94C5.70267 30.0147 5.81 30.136 5.866 30.304C6.05267 30.9013 6.22067 31.5313 6.37 32.194C6.52867 32.8567 6.65933 33.496 6.762 34.112C7.22867 33.9253 7.73267 33.7527 8.274 33.594C8.81533 33.4353 9.37533 33.2813 9.954 33.132C10.122 33.0947 10.2807 33.1227 10.43 33.216C10.5793 33.3093 10.6727 33.4447 10.71 33.622C10.7473 33.79 10.7193 33.9487 10.626 34.098C10.5327 34.2473 10.402 34.3407 10.234 34.378C9.04867 34.6207 8.08267 34.882 7.336 35.162C6.59867 35.442 6.02467 35.7407 5.614 36.058C5.21267 36.366 4.93267 36.6973 4.774 37.052C4.62467 37.4067 4.55 37.78 4.55 38.172C4.55 38.7693 4.788 39.2267 5.264 39.544C5.74933 39.852 6.42133 40.0387 7.28 40.104C8.148 40.16 9.156 40.104 10.304 39.936C10.472 39.9173 10.626 39.964 10.766 40.076C10.906 40.1787 10.9853 40.314 11.004 40.482C11.032 40.6593 10.99 40.818 10.878 40.958C10.7753 41.098 10.6353 41.1773 10.458 41.196ZM21.392 41.448C20.356 41.448 19.5347 41.1867 18.928 40.664C18.3213 40.1413 18.018 39.3013 18.018 38.144V30.64C18.018 30.4627 18.0787 30.3133 18.2 30.192C18.3307 30.0707 18.48 30.01 18.648 30.01C18.8253 30.01 18.9747 30.0707 19.096 30.192C19.2267 30.3133 19.292 30.4627 19.292 30.64V38.144C19.292 38.9187 19.4693 39.4553 19.824 39.754C20.188 40.0433 20.7107 40.188 21.392 40.188C22.0547 40.188 22.652 40.0153 23.184 39.67C23.716 39.3247 24.1407 38.8113 24.458 38.13C24.5327 37.9713 24.654 37.864 24.822 37.808C24.9993 37.752 25.1673 37.7613 25.326 37.836C25.4847 37.9107 25.592 38.0367 25.648 38.214C25.7133 38.382 25.7087 38.5453 25.634 38.704C25.214 39.6187 24.626 40.3047 23.87 40.762C23.1233 41.2193 22.2973 41.448 21.392 41.448ZM23.436 33.986C23.3427 34.0793 23.2213 34.1213 23.072 34.112C22.932 34.0933 22.8153 34.0327 22.722 33.93C22.5913 33.7713 22.4467 33.608 22.288 33.44C22.1387 33.272 21.9847 33.118 21.826 32.978C21.7327 32.894 21.6767 32.7913 21.658 32.67C21.6487 32.5393 21.6907 32.4273 21.784 32.334C21.8867 32.2313 21.9987 32.1847 22.12 32.194C22.2507 32.194 22.372 32.236 22.484 32.32C22.6147 32.4227 22.778 32.5673 22.974 32.754C23.17 32.9313 23.338 33.0947 23.478 33.244C23.5807 33.3467 23.6227 33.4727 23.604 33.622C23.5947 33.762 23.5387 33.8833 23.436 33.986ZM24.612 32.782C24.5187 32.8753 24.3973 32.922 24.248 32.922C24.108 32.9127 23.9867 32.8567 23.884 32.754C23.7533 32.5953 23.604 32.4367 23.436 32.278C23.268 32.1193 23.1047 31.9747 22.946 31.844C22.8527 31.7693 22.7967 31.6713 22.778 31.55C22.7593 31.4193 22.7967 31.3027 22.89 31.2C22.9833 31.0973 23.0907 31.046 23.212 31.046C23.3427 31.046 23.4687 31.0833 23.59 31.158C23.7207 31.2513 23.884 31.3867 24.08 31.564C24.2853 31.7413 24.4627 31.9047 24.612 32.054C24.7147 32.1473 24.7613 32.2687 24.752 32.418C24.752 32.558 24.7053 32.6793 24.612 32.782ZM35.084 41.336C34.2533 41.336 33.614 41.168 33.166 40.832C32.718 40.496 32.494 40.0293 32.494 39.432C32.494 38.844 32.7087 38.3867 33.138 38.06C33.5673 37.724 34.1087 37.5933 34.762 37.668C35.2473 37.724 35.6253 37.8687 35.896 38.102C36.1667 38.3353 36.3393 38.62 36.414 38.956C36.4887 39.2827 36.4747 39.6233 36.372 39.978C36.7547 39.8473 37.0953 39.6187 37.394 39.292C37.6927 38.956 37.842 38.4753 37.842 37.85C37.842 37.4113 37.7207 37.038 37.478 36.73C37.2447 36.422 36.918 36.198 36.498 36.058C36.078 35.918 35.602 35.876 35.07 35.932C34.538 35.988 33.9733 36.156 33.376 36.436C32.7787 36.7067 32.186 37.108 31.598 37.64C31.4767 37.752 31.3273 37.7987 31.15 37.78C30.9727 37.752 30.828 37.6773 30.716 37.556C30.6133 37.4253 30.562 37.2713 30.562 37.094C30.5713 36.9167 30.646 36.7813 30.786 36.688C31.3833 36.2307 31.9713 35.7593 32.55 35.274C33.138 34.7793 33.6933 34.294 34.216 33.818C34.7387 33.3327 35.21 32.8847 35.63 32.474C35.9753 32.138 36.092 31.8767 35.98 31.69C35.868 31.494 35.602 31.4193 35.182 31.466C34.9767 31.4847 34.734 31.5127 34.454 31.55C34.174 31.5873 33.8847 31.6247 33.586 31.662C33.2967 31.69 33.0353 31.7227 32.802 31.76C32.634 31.788 32.48 31.7507 32.34 31.648C32.2 31.536 32.116 31.396 32.088 31.228C32.0693 31.0507 32.1113 30.8967 32.214 30.766C32.3167 30.626 32.4567 30.542 32.634 30.514C32.802 30.486 33.0353 30.4627 33.334 30.444C33.6327 30.416 33.9407 30.388 34.258 30.36C34.5847 30.332 34.8647 30.3087 35.098 30.29C35.6953 30.2433 36.176 30.3133 36.54 30.5C36.9133 30.6773 37.1607 30.9247 37.282 31.242C37.4127 31.5593 37.4127 31.9047 37.282 32.278C37.1513 32.6513 36.8807 33.0153 36.47 33.37C36.2273 33.5753 35.924 33.8367 35.56 34.154C35.2053 34.462 34.8507 34.7607 34.496 35.05C35.056 34.8633 35.6067 34.7933 36.148 34.84C36.6987 34.8773 37.1933 35.0173 37.632 35.26C38.08 35.5027 38.4347 35.8433 38.696 36.282C38.9667 36.7113 39.102 37.234 39.102 37.85C39.102 38.6713 38.9247 39.3387 38.57 39.852C38.2247 40.3653 37.7487 40.7433 37.142 40.986C36.5447 41.2193 35.8587 41.336 35.084 41.336ZM35.112 40.146C35.252 39.754 35.2707 39.4413 35.168 39.208C35.0747 38.9747 34.8927 38.8487 34.622 38.83C34.3607 38.802 34.146 38.8393 33.978 38.942C33.8193 39.0353 33.74 39.2127 33.74 39.474C33.74 39.6887 33.8427 39.8567 34.048 39.978C34.2533 40.09 34.608 40.146 35.112 40.146Z" fill="#FF7F3E"/>
</svg>
