<svg width="126" height="32" viewBox="0 0 126 32" fill="none" xmlns="http://www.w3.org/2000/svg">
<g clip-path="url(#clip0_462_105)">
<path d="M0.541385 26.4338C0.270656 26.1218 0.233738 25.8472 0.406021 25.5352C0.541385 25.2232 1.29204 24.1873 2.57186 22.4401C3.81475 20.7302 5.98059 17.8597 8.94631 13.7287C11.9613 9.63506 14.927 6.26533 17.8435 3.61946C20.7477 1.06096 22.2982 -0.0622865 22.5197 0.424453C22.692 0.923673 22.7904 1.27313 22.7904 1.49778C22.7904 1.72243 22.0398 2.39637 20.6246 3.46969C19.2094 4.50558 17.302 6.39013 14.9147 9.17328C14.4224 16.3121 14.5578 21.7037 15.3085 25.2606C16.0222 28.855 16.3668 30.7396 16.4652 30.8769C16.5513 31.0516 16.3791 31.2762 16.0222 31.5009C15.5792 31.7255 15.1362 31.7255 14.6932 31.5009C14.2501 31.2762 13.7579 29.3418 13.2288 25.7474C12.6996 22.2029 12.515 17.4853 12.7365 11.6444C9.50007 15.5134 6.48513 19.6444 3.74092 24.0875C3.74092 24.7115 3.24868 25.348 2.32574 26.022C1.39049 26.6085 0.824421 26.7458 0.553691 26.4213L0.541385 26.4338Z" fill="#5D4A3A" stroke="#5D4A3A" stroke-width="0.5" stroke-miterlimit="10"/>
<path d="M30.4202 29.6414C29.6449 29.3294 29.4849 28.7553 29.9649 27.9191C33.7674 21.7912 37.4838 15.6633 41.1509 9.58526C41.3109 9.26077 41.5201 9.11101 41.7785 9.0486C41.9508 9.0486 42.2708 9.19837 42.603 9.4979C43.3291 10.4464 45.1627 12.2686 48.1284 15.0018C51.131 17.735 54.4905 21.1796 58.2315 25.136C58.453 25.7974 58.3546 26.384 57.9854 26.8583C57.6654 27.37 57.1855 27.5447 56.6933 27.4324C53.5676 23.526 50.6757 20.2935 48.0299 17.7101C45.3842 15.0892 43.2798 13.1921 41.7785 12.019C39.4158 15.5385 37.3976 18.7709 35.6994 21.6664C34.0135 24.5119 32.7829 27.0704 31.9461 29.2296C31.7123 29.8286 31.1955 29.9534 30.4202 29.6414ZM51.131 7.3887C51.5371 8.17497 51.8817 8.78651 52.177 9.29821C52.4354 9.82239 52.6815 10.2592 52.9277 10.696C53.0876 11.1328 53.063 11.4573 52.7185 11.6071C52.3739 11.8068 52.0293 11.8692 51.6602 11.8068C51.291 11.7444 50.8603 11.0954 50.2204 9.95968C49.5682 8.78651 49.199 7.68823 49.1251 6.51506C49.0144 5.35437 49.0144 4.68043 49.0882 4.40586C49.1621 4.18121 49.5559 4.0564 50.2204 4.06888C50.848 4.06888 51.0941 4.55562 50.8849 5.51662C50.688 6.02832 50.7741 6.65235 51.131 7.3887ZM57.1486 9.26077C57.3209 9.26077 57.4316 9.47294 57.4562 9.87232C57.4808 10.3216 57.0994 10.5712 56.3856 10.5712C55.5857 10.6211 54.9089 9.72255 54.4413 7.76311C53.9244 5.81615 53.7399 4.20617 53.8752 2.84579C54.0229 1.53534 54.4167 0.873876 55.0935 0.97372C55.7703 1.07356 55.9672 1.41054 55.7826 2.0096C55.5242 4.28105 55.9303 6.72723 56.8902 9.27325H57.1609L57.1486 9.26077Z" fill="#5D4A3A" stroke="#5D4A3A" stroke-width="0.5" stroke-miterlimit="10"/>
<path d="M79.8283 5.02976C79.5576 4.80511 78.4132 4.58047 76.5058 4.40574C74.5614 4.26845 72.7894 4.00636 71.1035 3.64443C69.4176 3.28249 68.4454 2.97048 68.1747 2.65847C67.867 2.34646 68.0024 1.98452 68.5685 1.4853C69.0607 1.036 69.676 0.986081 70.3405 1.34802C70.9558 1.66003 72.1987 1.88468 74.02 2.02196C75.8412 2.15925 77.4779 2.33397 78.9792 2.60855C80.4436 2.88312 81.2804 3.28249 81.465 3.78171C81.6004 4.31837 81.4158 4.76767 80.8497 5.12961C80.4929 5.26689 80.136 5.21697 79.8283 5.04224V5.02976ZM97.155 10.6834C97.3765 11.0454 97.3273 11.4447 97.1058 11.8566C96.8351 12.256 94.8908 13.8285 91.2974 16.5742C87.6672 19.3574 83.9016 21.6538 79.9637 23.5383C76.0627 25.4229 73.7615 26.3714 73.097 26.3714C72.4325 26.3714 72.1618 26.0594 72.3833 25.4229C72.5186 24.749 73.0478 24.387 73.8846 24.2497C74.6845 24.1124 75.5213 23.8878 76.2719 23.5758C83.3601 19.8067 90.0053 15.4385 96.2444 10.5087C96.6013 10.2341 96.9089 10.2841 97.1304 10.6834H97.155Z" fill="#5D4A3A" stroke="#5D4A3A" stroke-width="0.5" stroke-miterlimit="10"/>
<path d="M110.987 17.3354C111.688 21.454 112.722 25.4228 114.174 29.2418C114.359 30.1279 114.174 30.6521 113.657 30.7769C113.19 30.9392 112.796 30.7395 112.574 30.1404C110.113 22.8019 108.759 16.7988 108.316 11.9938C107.837 7.28863 107.615 4.19347 107.517 2.65837C107.307 1.92202 107.541 1.4228 108.193 1.23559C108.796 1.04838 109.19 1.29799 109.252 1.97194C109.375 6.415 109.904 10.9205 110.716 15.4758C112.82 15.1763 115.109 14.5772 117.484 13.7411C119.81 12.8674 121.742 12.2808 123.305 11.9688C124.917 11.6568 125.68 11.6318 125.705 11.844C125.729 12.0562 125.582 12.5055 125.262 13.0047C124.905 13.5663 124.006 13.8409 122.616 13.8409C118.875 14.8643 115.023 16.0375 111.011 17.323L110.987 17.3354Z" fill="#5D4A3A" stroke="#5D4A3A" stroke-width="0.5" stroke-miterlimit="10"/>
</g>
<defs>
<clipPath id="clip0_462_105">
<rect width="126" height="32" fill="white"/>
</clipPath>
</defs>
</svg>
