<svg width="119" height="34" viewBox="0 0 119 34" fill="none" xmlns="http://www.w3.org/2000/svg">
<path d="M0.910488 11C0.705155 11 0.560488 10.9393 0.476488 10.818C0.401822 10.6873 0.401822 10.5147 0.476488 10.3L3.83649 1.676C3.95782 1.35867 4.19115 1.2 4.53649 1.2H4.63449C4.97982 1.2 5.21316 1.35867 5.33449 1.676L8.69449 10.3C8.76916 10.5147 8.76916 10.6873 8.69449 10.818C8.61982 10.9393 8.47516 11 8.26049 11H8.05049C7.69582 11 7.46249 10.8367 7.35049 10.51L6.59449 8.494H2.54849L1.77849 10.51C1.66649 10.8367 1.43782 11 1.09249 11H0.910488ZM2.98249 7.29H6.16049L4.59249 3.034L2.98249 7.29ZM20.0841 11.154C19.1788 11.154 18.4835 10.7527 17.9981 9.95V10.496C17.9981 10.6733 17.9421 10.804 17.8301 10.888C17.7181 10.9627 17.5735 11 17.3961 11C17.0228 11 16.8361 10.776 16.8361 10.328V1.62C16.8361 1.18133 17.0461 0.962 17.4661 0.962C17.8861 0.962 18.0961 1.18133 18.0961 1.62V5.134C18.3295 4.80733 18.6141 4.55533 18.9501 4.378C19.2861 4.20067 19.6641 4.112 20.0841 4.112C20.7001 4.112 21.2461 4.25667 21.7221 4.546C22.1981 4.826 22.5715 5.232 22.8421 5.764C23.1221 6.28667 23.2621 6.912 23.2621 7.64C23.2621 8.35867 23.1221 8.984 22.8421 9.516C22.5715 10.0387 22.1981 10.4447 21.7221 10.734C21.2461 11.014 20.7001 11.154 20.0841 11.154ZM20.0421 10.006C20.6115 10.006 21.0828 9.796 21.4561 9.376C21.8295 8.956 22.0161 8.37733 22.0161 7.64C22.0161 6.89333 21.8295 6.31 21.4561 5.89C21.0828 5.47 20.6115 5.26 20.0421 5.26C19.4728 5.26 19.0015 5.47 18.6281 5.89C18.2641 6.31 18.0821 6.89333 18.0821 7.64C18.0821 8.37733 18.2641 8.956 18.6281 9.376C19.0015 9.796 19.4728 10.006 20.0421 10.006ZM26.8095 11C26.3895 11 26.1795 10.776 26.1795 10.328V4.938C26.1795 4.49933 26.3988 4.28 26.8375 4.28C26.9868 4.28 27.1175 4.31733 27.2295 4.392C27.3415 4.46667 27.3975 4.60667 27.3975 4.812V5.33C27.5842 4.966 27.8642 4.672 28.2375 4.448C28.6202 4.224 29.0308 4.112 29.4695 4.112C30.0388 4.112 30.3235 4.34067 30.3235 4.798C30.3235 4.994 30.2675 5.13867 30.1555 5.232C30.0528 5.316 29.9362 5.35333 29.8055 5.344C29.7402 5.33467 29.6655 5.33 29.5815 5.33C29.4975 5.32067 29.4088 5.316 29.3155 5.316C28.7928 5.316 28.3495 5.48867 27.9855 5.834C27.6215 6.17 27.4395 6.61333 27.4395 7.164V10.328C27.4395 10.776 27.2295 11 26.8095 11ZM33.7382 11C33.3182 11 33.1082 10.776 33.1082 10.328V4.938C33.1082 4.49933 33.3182 4.28 33.7382 4.28C34.1489 4.28 34.3542 4.49933 34.3542 4.938V10.328C34.3542 10.776 34.1489 11 33.7382 11ZM33.7242 3.02C33.4909 3.02 33.2902 2.94067 33.1222 2.782C32.9635 2.614 32.8842 2.41333 32.8842 2.18C32.8842 1.94667 32.9635 1.75067 33.1222 1.592C33.2902 1.424 33.4909 1.34 33.7242 1.34C33.9482 1.34 34.1395 1.424 34.2982 1.592C34.4662 1.75067 34.5502 1.94667 34.5502 2.18C34.5502 2.41333 34.4662 2.614 34.2982 2.782C34.1395 2.94067 33.9482 3.02 33.7242 3.02ZM40.6669 11.154C40.0509 11.154 39.5002 11.014 39.0149 10.734C38.5389 10.4447 38.1609 10.0387 37.8809 9.516C37.6102 8.984 37.4749 8.35867 37.4749 7.64C37.4749 6.912 37.6102 6.28667 37.8809 5.764C38.1609 5.232 38.5389 4.826 39.0149 4.546C39.5002 4.25667 40.0509 4.112 40.6669 4.112C41.0775 4.112 41.4509 4.20067 41.7869 4.378C42.1322 4.55533 42.4215 4.80733 42.6549 5.134V1.62C42.6549 1.18133 42.8602 0.962 43.2709 0.962C43.6909 0.962 43.9009 1.18133 43.9009 1.62V10.328C43.9009 10.776 43.7189 11 43.3549 11C42.9815 11 42.7902 10.8973 42.7809 10.692L42.7529 10.034C42.5195 10.3793 42.2209 10.6547 41.8569 10.86C41.5022 11.056 41.1055 11.154 40.6669 11.154ZM40.7089 10.006C41.2782 10.006 41.7449 9.796 42.1089 9.376C42.4822 8.956 42.6689 8.37733 42.6689 7.64C42.6689 6.89333 42.4822 6.31 42.1089 5.89C41.7449 5.47 41.2782 5.26 40.7089 5.26C40.1395 5.26 39.6682 5.47 39.2949 5.89C38.9215 6.31 38.7349 6.89333 38.7349 7.64C38.7349 8.37733 38.9215 8.956 39.2949 9.376C39.6682 9.796 40.1395 10.006 40.7089 10.006ZM49.8842 13.898C48.8389 13.898 47.9989 13.562 47.3642 12.89C47.2149 12.7313 47.1542 12.5727 47.1822 12.414C47.2102 12.2553 47.3082 12.1247 47.4762 12.022C47.6349 11.91 47.7796 11.8727 47.9102 11.91C48.0502 11.9473 48.1996 12.036 48.3582 12.176C48.7502 12.5493 49.2589 12.736 49.8842 12.736C50.4909 12.736 50.9482 12.54 51.2562 12.148C51.5642 11.7653 51.7182 11.168 51.7182 10.356V9.614C51.4942 9.894 51.2189 10.1133 50.8922 10.272C50.5749 10.4307 50.2202 10.51 49.8282 10.51C49.2496 10.51 48.7316 10.384 48.2742 10.132C47.8169 9.88 47.4576 9.516 47.1962 9.04C46.9442 8.55467 46.8182 7.976 46.8182 7.304C46.8182 6.62267 46.9442 6.04867 47.1962 5.582C47.4576 5.106 47.8169 4.742 48.2742 4.49C48.7316 4.238 49.2496 4.112 49.8282 4.112C50.2389 4.112 50.6262 4.20533 50.9902 4.392C51.3542 4.57867 51.6482 4.86333 51.8722 5.246V4.784C51.8722 4.59733 51.9189 4.46667 52.0122 4.392C52.1056 4.31733 52.2409 4.28 52.4182 4.28C52.7822 4.28 52.9642 4.49933 52.9642 4.938V10.356C52.9642 11.5133 52.6982 12.3907 52.1662 12.988C51.6436 13.5947 50.8829 13.898 49.8842 13.898ZM49.9122 9.404C50.4629 9.404 50.9156 9.21267 51.2702 8.83C51.6249 8.44733 51.8022 7.93867 51.8022 7.304C51.8022 6.66933 51.6249 6.16533 51.2702 5.792C50.9156 5.41867 50.4629 5.232 49.9122 5.232C49.3709 5.232 48.9276 5.41867 48.5822 5.792C48.2462 6.16533 48.0782 6.66933 48.0782 7.304C48.0782 7.93867 48.2462 8.44733 48.5822 8.83C48.9276 9.21267 49.3709 9.404 49.9122 9.404ZM59.1082 11.154C58.4735 11.154 57.9135 11.0187 57.4282 10.748C56.9428 10.4773 56.5648 10.0807 56.2942 9.558C56.0235 9.026 55.8882 8.38667 55.8882 7.64C55.8882 6.92133 56.0235 6.30067 56.2942 5.778C56.5648 5.246 56.9335 4.83533 57.4002 4.546C57.8762 4.25667 58.4222 4.112 59.0382 4.112C59.6542 4.112 60.1768 4.26133 60.6062 4.56C61.0448 4.84933 61.3762 5.22267 61.6002 5.68C61.8335 6.13733 61.9502 6.60867 61.9502 7.094C61.9502 7.36467 61.8942 7.54667 61.7822 7.64C61.6702 7.724 61.5068 7.766 61.2922 7.766H57.1202C57.1388 8.51267 57.3255 9.082 57.6802 9.474C58.0442 9.85667 58.5248 10.048 59.1222 10.048C59.8315 10.048 60.3682 9.76333 60.7322 9.194C60.8815 9.03533 61.0215 8.93267 61.1522 8.886C61.2828 8.83 61.4228 8.85333 61.5722 8.956C61.7308 9.05867 61.8195 9.18933 61.8382 9.348C61.8662 9.50667 61.8055 9.67933 61.6562 9.866C61.3482 10.3047 60.9795 10.6313 60.5502 10.846C60.1302 11.0513 59.6495 11.154 59.1082 11.154ZM57.1902 6.758H60.7182C60.6435 6.27267 60.4568 5.88067 60.1582 5.582C59.8595 5.28333 59.4815 5.134 59.0242 5.134C58.5388 5.134 58.1375 5.274 57.8202 5.554C57.5028 5.82467 57.2928 6.226 57.1902 6.758ZM72.9784 11.154C72.3438 11.154 71.8631 11.0327 71.5364 10.79C71.2098 10.538 71.0464 10.062 71.0464 9.362V5.372H70.3464C69.9078 5.372 69.6884 5.19 69.6884 4.826C69.6884 4.63933 69.7351 4.504 69.8284 4.42C69.9311 4.32667 70.1038 4.28 70.3464 4.28H71.0464V2.53C71.0464 2.09133 71.2564 1.872 71.6764 1.872C72.0871 1.872 72.2924 2.09133 72.2924 2.53V4.28H73.5804C74.0191 4.28 74.2384 4.462 74.2384 4.826C74.2384 5.19 74.0191 5.372 73.5804 5.372H72.2924V9.096C72.2924 9.46 72.3718 9.70733 72.5304 9.838C72.6984 9.95933 72.9458 10.02 73.2724 10.02C73.2911 10.02 73.3191 10.02 73.3564 10.02C73.6084 10.02 73.8184 10.0433 73.9864 10.09C74.1544 10.1273 74.2384 10.272 74.2384 10.524C74.2384 10.804 74.1078 10.9767 73.8464 11.042C73.5944 11.1167 73.3051 11.154 72.9784 11.154ZM77.6525 11C77.2325 11 77.0225 10.776 77.0225 10.328V1.62C77.0225 1.18133 77.2325 0.962 77.6525 0.962C78.0725 0.962 78.2825 1.18133 78.2825 1.62V5.148C78.4505 4.868 78.6978 4.62533 79.0245 4.42C79.3511 4.21467 79.7291 4.112 80.1585 4.112C80.8678 4.112 81.4418 4.34067 81.8805 4.798C82.3285 5.246 82.5525 5.89933 82.5525 6.758V10.328C82.5525 10.776 82.3425 11 81.9225 11C81.5118 11 81.3065 10.776 81.3065 10.328V7.024C81.3065 6.436 81.1758 5.99733 80.9145 5.708C80.6531 5.40933 80.3125 5.26 79.8925 5.26C79.4165 5.26 79.0291 5.41867 78.7305 5.736C78.4318 6.044 78.2825 6.45933 78.2825 6.982V10.328C78.2825 10.776 78.0725 11 77.6525 11ZM87.8623 11.112C87.181 11.1307 86.6163 10.9767 86.1683 10.65C85.7296 10.314 85.5103 9.83333 85.5103 9.208C85.5103 8.75067 85.655 8.354 85.9443 8.018C86.243 7.682 86.621 7.42067 87.0783 7.234C87.545 7.038 88.0256 6.94 88.5203 6.94C88.8096 6.92133 89.0756 6.94933 89.3183 7.024C89.561 7.08933 89.771 7.18733 89.9483 7.318V6.478C89.9483 5.95533 89.8363 5.61467 89.6123 5.456C89.3976 5.29733 89.0616 5.218 88.6043 5.218C88.315 5.218 88.007 5.26 87.6803 5.344C87.363 5.41867 87.0643 5.52133 86.7843 5.652C86.5883 5.72667 86.4203 5.75467 86.2803 5.736C86.1403 5.708 86.0236 5.61933 85.9303 5.47C85.837 5.31133 85.8136 5.162 85.8603 5.022C85.9163 4.87267 86.0423 4.756 86.2383 4.672C86.5836 4.504 86.9616 4.36867 87.3723 4.266C87.7923 4.16333 88.203 4.112 88.6043 4.112C89.463 4.112 90.1023 4.28467 90.5223 4.63C90.9423 4.966 91.1523 5.582 91.1523 6.478V9.852C91.1523 10.0013 91.1616 10.0993 91.1803 10.146C91.2083 10.1833 91.269 10.216 91.3623 10.244C91.4743 10.2813 91.5956 10.314 91.7263 10.342C91.857 10.3607 91.9223 10.4073 91.9223 10.482C91.9223 10.79 91.7636 10.9767 91.4463 11.042C91.241 11.0887 91.0543 11.112 90.8863 11.112C90.5876 11.112 90.373 11.056 90.2423 10.944C90.1116 10.832 90.023 10.6313 89.9763 10.342C89.7243 10.594 89.407 10.7807 89.0243 10.902C88.6416 11.0233 88.2543 11.0933 87.8623 11.112ZM87.8763 10.006C88.2683 9.99667 88.623 9.94067 88.9403 9.838C89.267 9.726 89.5236 9.572 89.7103 9.376C89.897 9.17067 89.981 8.928 89.9623 8.648C89.9436 8.38667 89.8083 8.2 89.5563 8.088C89.3136 7.976 89.001 7.92933 88.6183 7.948C88.273 7.95733 87.9556 8.02267 87.6663 8.144C87.377 8.256 87.1436 8.40533 86.9663 8.592C86.7983 8.77867 86.7143 8.98867 86.7143 9.222C86.7236 9.48333 86.831 9.684 87.0363 9.824C87.2416 9.95467 87.5216 10.0153 87.8763 10.006ZM97.0027 11.154C96.368 11.154 95.8873 11.0327 95.5607 10.79C95.234 10.538 95.0707 10.062 95.0707 9.362V5.372H94.3707C93.932 5.372 93.7127 5.19 93.7127 4.826C93.7127 4.63933 93.7593 4.504 93.8527 4.42C93.9553 4.32667 94.128 4.28 94.3707 4.28H95.0707V2.53C95.0707 2.09133 95.2807 1.872 95.7007 1.872C96.1113 1.872 96.3167 2.09133 96.3167 2.53V4.28H97.6047C98.0433 4.28 98.2627 4.462 98.2627 4.826C98.2627 5.19 98.0433 5.372 97.6047 5.372H96.3167V9.096C96.3167 9.46 96.396 9.70733 96.5547 9.838C96.7227 9.95933 96.97 10.02 97.2967 10.02C97.3153 10.02 97.3433 10.02 97.3807 10.02C97.6327 10.02 97.8427 10.0433 98.0107 10.09C98.1787 10.1273 98.2627 10.272 98.2627 10.524C98.2627 10.804 98.132 10.9767 97.8707 11.042C97.6187 11.1167 97.3293 11.154 97.0027 11.154ZM3.76649 31.154C3.15049 31.154 2.59982 31.0093 2.11449 30.72C1.63849 30.4213 1.26049 30.0107 0.980488 29.488C0.709822 28.956 0.574488 28.34 0.574488 27.64C0.574488 26.94 0.709822 26.324 0.980488 25.792C1.26049 25.26 1.63849 24.8493 2.11449 24.56C2.59982 24.2613 3.15049 24.112 3.76649 24.112C4.55049 24.112 5.22249 24.3547 5.78249 24.84C5.95982 24.9707 6.03916 25.12 6.02049 25.288C6.01116 25.456 5.92716 25.596 5.76849 25.708C5.60982 25.8293 5.46982 25.8807 5.34849 25.862C5.22716 25.8433 5.07316 25.7733 4.88649 25.652C4.56916 25.3907 4.19582 25.26 3.76649 25.26C3.19716 25.26 2.73049 25.47 2.36649 25.89C2.01182 26.31 1.83449 26.8933 1.83449 27.64C1.83449 28.3773 2.01182 28.956 2.36649 29.376C2.73049 29.796 3.19716 30.006 3.76649 30.006C4.18649 30.006 4.55516 29.8847 4.87249 29.642C5.04049 29.5207 5.18982 29.446 5.32049 29.418C5.45116 29.39 5.59582 29.432 5.75449 29.544C5.91316 29.6653 6.00182 29.8053 6.02049 29.964C6.03916 30.1227 5.96449 30.272 5.79649 30.412C5.22716 30.9067 4.55049 31.154 3.76649 31.154ZM11.729 31.154C11.113 31.154 10.5623 31.0093 10.077 30.72C9.60099 30.4213 9.22299 30.006 8.94299 29.474C8.67232 28.942 8.53699 28.326 8.53699 27.626C8.53699 26.926 8.67232 26.3147 8.94299 25.792C9.22299 25.26 9.60099 24.8493 10.077 24.56C10.5623 24.2613 11.113 24.112 11.729 24.112C12.345 24.112 12.891 24.2613 13.367 24.56C13.8523 24.8493 14.2303 25.26 14.501 25.792C14.781 26.3147 14.921 26.926 14.921 27.626C14.921 28.326 14.781 28.942 14.501 29.474C14.2303 30.006 13.8523 30.4213 13.367 30.72C12.891 31.0093 12.345 31.154 11.729 31.154ZM11.729 30.006C12.2983 30.006 12.7603 29.796 13.115 29.376C13.479 28.9467 13.661 28.3633 13.661 27.626C13.661 26.8887 13.479 26.31 13.115 25.89C12.7603 25.47 12.2983 25.26 11.729 25.26C11.1597 25.26 10.693 25.47 10.329 25.89C9.97432 26.31 9.79699 26.8887 9.79699 27.626C9.79699 28.3633 9.97432 28.9467 10.329 29.376C10.693 29.796 11.1597 30.006 11.729 30.006ZM18.4642 31C18.0442 31 17.8342 30.776 17.8342 30.328V24.938C17.8342 24.4993 18.0255 24.28 18.4082 24.28C18.8002 24.28 19.0009 24.392 19.0102 24.616L19.0382 25.148C19.2342 24.868 19.4955 24.6253 19.8222 24.42C20.1582 24.2147 20.5409 24.112 20.9702 24.112C21.6795 24.112 22.2535 24.3407 22.6922 24.798C23.1402 25.246 23.3642 25.8993 23.3642 26.758V30.328C23.3642 30.776 23.1542 31 22.7342 31C22.3235 31 22.1182 30.776 22.1182 30.328V27.024C22.1182 26.436 21.9875 25.9973 21.7262 25.708C21.4649 25.4093 21.1242 25.26 20.7042 25.26C20.2282 25.26 19.8409 25.4187 19.5422 25.736C19.2435 26.044 19.0942 26.4593 19.0942 26.982V30.328C19.0942 30.776 18.8842 31 18.4642 31ZM27.288 31C26.868 31 26.658 30.776 26.658 30.328V24.938C26.658 24.4993 26.8494 24.28 27.232 24.28C27.624 24.28 27.8247 24.392 27.834 24.616L27.862 25.148C28.058 24.868 28.3194 24.6253 28.646 24.42C28.982 24.2147 29.3647 24.112 29.794 24.112C30.5034 24.112 31.0774 24.3407 31.516 24.798C31.964 25.246 32.188 25.8993 32.188 26.758V30.328C32.188 30.776 31.978 31 31.558 31C31.1474 31 30.942 30.776 30.942 30.328V27.024C30.942 26.436 30.8114 25.9973 30.55 25.708C30.2887 25.4093 29.948 25.26 29.528 25.26C29.052 25.26 28.6647 25.4187 28.366 25.736C28.0674 26.044 27.918 26.4593 27.918 26.982V30.328C27.918 30.776 27.708 31 27.288 31ZM38.3378 31.154C37.7032 31.154 37.1432 31.0187 36.6578 30.748C36.1725 30.4773 35.7945 30.0807 35.5238 29.558C35.2532 29.026 35.1178 28.3867 35.1178 27.64C35.1178 26.9213 35.2532 26.3007 35.5238 25.778C35.7945 25.246 36.1632 24.8353 36.6298 24.546C37.1058 24.2567 37.6518 24.112 38.2678 24.112C38.8838 24.112 39.4065 24.2613 39.8358 24.56C40.2745 24.8493 40.6058 25.2227 40.8298 25.68C41.0632 26.1373 41.1798 26.6087 41.1798 27.094C41.1798 27.3647 41.1238 27.5467 41.0118 27.64C40.8998 27.724 40.7365 27.766 40.5218 27.766H36.3498C36.3685 28.5127 36.5552 29.082 36.9098 29.474C37.2738 29.8567 37.7545 30.048 38.3518 30.048C39.0612 30.048 39.5978 29.7633 39.9618 29.194C40.1112 29.0353 40.2512 28.9327 40.3818 28.886C40.5125 28.83 40.6525 28.8533 40.8018 28.956C40.9605 29.0587 41.0492 29.1893 41.0678 29.348C41.0958 29.5067 41.0352 29.6793 40.8858 29.866C40.5778 30.3047 40.2092 30.6313 39.7798 30.846C39.3598 31.0513 38.8792 31.154 38.3378 31.154ZM36.4198 26.758H39.9478C39.8732 26.2727 39.6865 25.8807 39.3878 25.582C39.0892 25.2833 38.7112 25.134 38.2538 25.134C37.7685 25.134 37.3672 25.274 37.0498 25.554C36.7325 25.8247 36.5225 26.226 36.4198 26.758ZM47.0243 31.154C46.4083 31.154 45.8576 31.0093 45.3723 30.72C44.8963 30.4213 44.5183 30.0107 44.2383 29.488C43.9676 28.956 43.8323 28.34 43.8323 27.64C43.8323 26.94 43.9676 26.324 44.2383 25.792C44.5183 25.26 44.8963 24.8493 45.3723 24.56C45.8576 24.2613 46.4083 24.112 47.0243 24.112C47.8083 24.112 48.4803 24.3547 49.0403 24.84C49.2176 24.9707 49.297 25.12 49.2783 25.288C49.269 25.456 49.185 25.596 49.0263 25.708C48.8676 25.8293 48.7276 25.8807 48.6063 25.862C48.485 25.8433 48.331 25.7733 48.1443 25.652C47.827 25.3907 47.4536 25.26 47.0243 25.26C46.455 25.26 45.9883 25.47 45.6243 25.89C45.2696 26.31 45.0923 26.8933 45.0923 27.64C45.0923 28.3773 45.2696 28.956 45.6243 29.376C45.9883 29.796 46.455 30.006 47.0243 30.006C47.4443 30.006 47.813 29.8847 48.1303 29.642C48.2983 29.5207 48.4476 29.446 48.5783 29.418C48.709 29.39 48.8536 29.432 49.0123 29.544C49.171 29.6653 49.2596 29.8053 49.2783 29.964C49.297 30.1227 49.2223 30.272 49.0543 30.412C48.485 30.9067 47.8083 31.154 47.0243 31.154ZM55.1202 31.154C54.4856 31.154 54.0049 31.0327 53.6782 30.79C53.3516 30.538 53.1882 30.062 53.1882 29.362V25.372H52.4882C52.0496 25.372 51.8302 25.19 51.8302 24.826C51.8302 24.6393 51.8769 24.504 51.9702 24.42C52.0729 24.3267 52.2456 24.28 52.4882 24.28H53.1882V22.53C53.1882 22.0913 53.3982 21.872 53.8182 21.872C54.2289 21.872 54.4342 22.0913 54.4342 22.53V24.28H55.7222C56.1609 24.28 56.3802 24.462 56.3802 24.826C56.3802 25.19 56.1609 25.372 55.7222 25.372H54.4342V29.096C54.4342 29.46 54.5136 29.7073 54.6722 29.838C54.8402 29.9593 55.0876 30.02 55.4142 30.02C55.4329 30.02 55.4609 30.02 55.4982 30.02C55.7502 30.02 55.9602 30.0433 56.1282 30.09C56.2962 30.1273 56.3802 30.272 56.3802 30.524C56.3802 30.804 56.2496 30.9767 55.9882 31.042C55.7362 31.1167 55.4469 31.154 55.1202 31.154ZM61.5303 31.14C60.5783 31.14 59.7943 30.874 59.1783 30.342C59.0009 30.2113 58.9076 30.0667 58.8983 29.908C58.8983 29.7493 58.9636 29.6047 59.0943 29.474C59.2249 29.3433 59.3603 29.2827 59.5003 29.292C59.6403 29.3013 59.7989 29.3667 59.9763 29.488C60.3963 29.852 60.9329 30.034 61.5863 30.034C61.9969 30.034 62.3236 29.9593 62.5663 29.81C62.8089 29.6607 62.9303 29.4133 62.9303 29.068C62.9303 28.788 62.8043 28.5827 62.5523 28.452C62.3003 28.312 61.8523 28.1813 61.2083 28.06C60.7883 27.976 60.4103 27.864 60.0743 27.724C59.7476 27.584 59.4863 27.3833 59.2903 27.122C59.0943 26.8513 58.9963 26.5013 58.9963 26.072C58.9963 25.6613 59.1083 25.3113 59.3323 25.022C59.5563 24.7233 59.8503 24.4947 60.2143 24.336C60.5876 24.1773 60.9983 24.098 61.4463 24.098C62.2583 24.098 62.9116 24.3127 63.4063 24.742C63.5929 24.854 63.6956 24.9893 63.7143 25.148C63.7423 25.2973 63.6956 25.4373 63.5743 25.568C63.4529 25.7173 63.3223 25.7873 63.1823 25.778C63.0423 25.7687 62.8789 25.7173 62.6923 25.624C62.3843 25.3533 61.9736 25.218 61.4603 25.218C61.0589 25.218 60.7603 25.302 60.5643 25.47C60.3683 25.6287 60.2703 25.82 60.2703 26.044C60.2703 26.3053 60.3823 26.4967 60.6063 26.618C60.8303 26.7393 61.2363 26.8653 61.8243 26.996C62.2909 27.0987 62.7016 27.234 63.0563 27.402C63.4203 27.57 63.7003 27.7893 63.8963 28.06C64.1016 28.3307 64.2043 28.6807 64.2043 29.11C64.2043 29.754 63.9569 30.2533 63.4623 30.608C62.9769 30.9627 62.3329 31.14 61.5303 31.14ZM72.9575 33.828C72.5375 33.828 72.3275 33.604 72.3275 33.156V24.938C72.3275 24.4993 72.5142 24.28 72.8875 24.28C73.2609 24.28 73.4522 24.378 73.4615 24.574L73.4895 25.232C73.7322 24.8773 74.0309 24.602 74.3855 24.406C74.7402 24.21 75.1369 24.112 75.5755 24.112C76.1915 24.112 76.7375 24.2567 77.2135 24.546C77.6895 24.826 78.0629 25.232 78.3335 25.764C78.6135 26.2867 78.7535 26.9073 78.7535 27.626C78.7535 28.3447 78.6135 28.97 78.3335 29.502C78.0629 30.034 77.6895 30.4447 77.2135 30.734C76.7375 31.014 76.1915 31.154 75.5755 31.154C75.1555 31.154 74.7775 31.0653 74.4415 30.888C74.1055 30.7013 73.8209 30.4493 73.5875 30.132V33.156C73.5875 33.604 73.3775 33.828 72.9575 33.828ZM75.5335 30.006C76.1029 30.006 76.5742 29.796 76.9475 29.376C77.3209 28.9467 77.5075 28.3633 77.5075 27.626C77.5075 26.8887 77.3209 26.31 76.9475 25.89C76.5742 25.47 76.1029 25.26 75.5335 25.26C74.9642 25.26 74.4929 25.47 74.1195 25.89C73.7555 26.31 73.5735 26.8887 73.5735 27.626C73.5735 28.3633 73.7555 28.9467 74.1195 29.376C74.4929 29.796 74.9642 30.006 75.5335 30.006ZM84.5269 31.154C83.8922 31.154 83.3322 31.0187 82.8469 30.748C82.3616 30.4773 81.9836 30.0807 81.7129 29.558C81.4422 29.026 81.3069 28.3867 81.3069 27.64C81.3069 26.9213 81.4422 26.3007 81.7129 25.778C81.9836 25.246 82.3522 24.8353 82.8189 24.546C83.2949 24.2567 83.8409 24.112 84.4569 24.112C85.0729 24.112 85.5956 24.2613 86.0249 24.56C86.4636 24.8493 86.7949 25.2227 87.0189 25.68C87.2522 26.1373 87.3689 26.6087 87.3689 27.094C87.3689 27.3647 87.3129 27.5467 87.2009 27.64C87.0889 27.724 86.9256 27.766 86.7109 27.766H82.5389C82.5576 28.5127 82.7442 29.082 83.0989 29.474C83.4629 29.8567 83.9436 30.048 84.5409 30.048C85.2502 30.048 85.7869 29.7633 86.1509 29.194C86.3002 29.0353 86.4402 28.9327 86.5709 28.886C86.7016 28.83 86.8416 28.8533 86.9909 28.956C87.1496 29.0587 87.2382 29.1893 87.2569 29.348C87.2849 29.5067 87.2242 29.6793 87.0749 29.866C86.7669 30.3047 86.3982 30.6313 85.9689 30.846C85.5489 31.0513 85.0682 31.154 84.5269 31.154ZM82.6089 26.758H86.1369C86.0622 26.2727 85.8756 25.8807 85.5769 25.582C85.2782 25.2833 84.9002 25.134 84.4429 25.134C83.9576 25.134 83.5562 25.274 83.2389 25.554C82.9216 25.8247 82.7116 26.226 82.6089 26.758ZM93.2134 31.154C92.5974 31.154 92.0467 31.0093 91.5614 30.72C91.0854 30.4213 90.7074 30.006 90.4274 29.474C90.1567 28.942 90.0214 28.326 90.0214 27.626C90.0214 26.926 90.1567 26.3147 90.4274 25.792C90.7074 25.26 91.0854 24.8493 91.5614 24.56C92.0467 24.2613 92.5974 24.112 93.2134 24.112C93.8294 24.112 94.3754 24.2613 94.8514 24.56C95.3367 24.8493 95.7147 25.26 95.9854 25.792C96.2654 26.3147 96.4054 26.926 96.4054 27.626C96.4054 28.326 96.2654 28.942 95.9854 29.474C95.7147 30.006 95.3367 30.4213 94.8514 30.72C94.3754 31.0093 93.8294 31.154 93.2134 31.154ZM93.2134 30.006C93.7827 30.006 94.2447 29.796 94.5994 29.376C94.9634 28.9467 95.1454 28.3633 95.1454 27.626C95.1454 26.8887 94.9634 26.31 94.5994 25.89C94.2447 25.47 93.7827 25.26 93.2134 25.26C92.644 25.26 92.1774 25.47 91.8134 25.89C91.4587 26.31 91.2814 26.8887 91.2814 27.626C91.2814 28.3633 91.4587 28.9467 91.8134 29.376C92.1774 29.796 92.644 30.006 93.2134 30.006ZM99.9486 33.828C99.5286 33.828 99.3186 33.604 99.3186 33.156V24.938C99.3186 24.4993 99.5052 24.28 99.8786 24.28C100.252 24.28 100.443 24.378 100.453 24.574L100.481 25.232C100.723 24.8773 101.022 24.602 101.377 24.406C101.731 24.21 102.128 24.112 102.567 24.112C103.183 24.112 103.729 24.2567 104.205 24.546C104.681 24.826 105.054 25.232 105.325 25.764C105.605 26.2867 105.745 26.9073 105.745 27.626C105.745 28.3447 105.605 28.97 105.325 29.502C105.054 30.034 104.681 30.4447 104.205 30.734C103.729 31.014 103.183 31.154 102.567 31.154C102.147 31.154 101.769 31.0653 101.433 30.888C101.097 30.7013 100.812 30.4493 100.579 30.132V33.156C100.579 33.604 100.369 33.828 99.9486 33.828ZM102.525 30.006C103.094 30.006 103.565 29.796 103.939 29.376C104.312 28.9467 104.499 28.3633 104.499 27.626C104.499 26.8887 104.312 26.31 103.939 25.89C103.565 25.47 103.094 25.26 102.525 25.26C101.955 25.26 101.484 25.47 101.111 25.89C100.747 26.31 100.565 26.8887 100.565 27.626C100.565 28.3633 100.747 28.9467 101.111 29.376C101.484 29.796 101.955 30.006 102.525 30.006ZM109.292 31C108.872 31 108.662 30.776 108.662 30.328V21.62C108.662 21.1813 108.872 20.962 109.292 20.962C109.712 20.962 109.922 21.1813 109.922 21.62V30.328C109.922 30.776 109.712 31 109.292 31ZM116.049 31.154C115.414 31.154 114.854 31.0187 114.369 30.748C113.883 30.4773 113.505 30.0807 113.235 29.558C112.964 29.026 112.829 28.3867 112.829 27.64C112.829 26.9213 112.964 26.3007 113.235 25.778C113.505 25.246 113.874 24.8353 114.341 24.546C114.817 24.2567 115.363 24.112 115.979 24.112C116.595 24.112 117.117 24.2613 117.547 24.56C117.985 24.8493 118.317 25.2227 118.541 25.68C118.774 26.1373 118.891 26.6087 118.891 27.094C118.891 27.3647 118.835 27.5467 118.723 27.64C118.611 27.724 118.447 27.766 118.233 27.766H114.061C114.079 28.5127 114.266 29.082 114.621 29.474C114.985 29.8567 115.465 30.048 116.063 30.048C116.772 30.048 117.309 29.7633 117.673 29.194C117.822 29.0353 117.962 28.9327 118.093 28.886C118.223 28.83 118.363 28.8533 118.513 28.956C118.671 29.0587 118.76 29.1893 118.779 29.348C118.807 29.5067 118.746 29.6793 118.597 29.866C118.289 30.3047 117.92 30.6313 117.491 30.846C117.071 31.0513 116.59 31.154 116.049 31.154ZM114.131 26.758H117.659C117.584 26.2727 117.397 25.8807 117.099 25.582C116.8 25.2833 116.422 25.134 115.965 25.134C115.479 25.134 115.078 25.274 114.761 25.554C114.443 25.8247 114.233 26.226 114.131 26.758Z" fill="#FF7F3E" fill-opacity="0.6"/>
</svg>
