<svg width="111" height="111" viewBox="0 0 111 111" fill="none" xmlns="http://www.w3.org/2000/svg">
<path d="M54.9222 92.5C55.2306 92.5 55.5389 92.4229 55.8472 92.2687C56.1556 92.1146 56.3868 91.9604 56.541 91.8062L94.466 53.8812C95.391 52.9562 96.0662 51.9156 96.4917 50.7594C96.9172 49.6031 97.1284 48.4469 97.1254 47.2906C97.1254 46.0573 96.9141 44.881 96.4917 43.7617C96.0693 42.6425 95.3941 41.6605 94.466 40.8156L74.8097 21.1594C73.9618 20.2344 72.9782 19.5607 71.859 19.1382C70.7397 18.7158 69.5665 18.5031 68.3394 18.5C67.1831 18.5 66.0269 18.7127 64.8706 19.1382C63.7144 19.5637 62.6737 20.2375 61.7487 21.1594L60.4769 22.4312L69.0331 31.1031C70.1894 32.1823 71.0373 33.4156 71.5769 34.8031C72.1164 36.1906 72.3862 37.6552 72.3862 39.1969C72.3862 42.4344 71.2886 45.1523 69.0932 47.3507C66.8979 49.5492 64.1799 50.6468 60.9394 50.6437C59.3977 50.6437 57.9146 50.374 56.4901 49.8344C55.0656 49.2948 53.8122 48.4854 52.73 47.4062L44.0535 38.85L23.8191 59.0844C23.5879 59.3156 23.4152 59.5669 23.3011 59.8382C23.187 60.1096 23.1284 60.3979 23.1254 60.7031C23.1254 61.3198 23.3566 61.8794 23.8191 62.382C24.2816 62.8846 24.8212 63.1343 25.4379 63.1312C25.7462 63.1312 26.0545 63.0542 26.3629 62.9C26.6712 62.7458 26.9024 62.5917 27.0566 62.4375L42.7816 46.7125L49.2566 53.1875L33.6472 68.9125C33.416 69.1437 33.2433 69.395 33.1292 69.6664C33.0151 69.9377 32.9566 70.226 32.9535 70.5312C32.9535 71.1479 33.1847 71.6875 33.6472 72.15C34.1097 72.6125 34.6493 72.8437 35.266 72.8437C35.5743 72.8437 35.8826 72.7667 36.191 72.6125C36.4993 72.4583 36.7306 72.3042 36.8847 72.15L52.6097 56.5406L59.0847 63.0156L43.4754 78.7406C43.2441 78.8948 43.0714 79.126 42.9574 79.4344C42.8433 79.7427 42.7847 80.051 42.7816 80.3594C42.7816 80.976 43.0129 81.5156 43.4754 81.9781C43.9379 82.4406 44.4774 82.6719 45.0941 82.6719C45.4024 82.6719 45.6923 82.6133 45.9636 82.4961C46.2349 82.379 46.4847 82.2063 46.7129 81.9781L62.4379 66.3687L68.9129 72.8437L53.1879 88.5687C52.9566 88.8 52.7839 89.0497 52.6699 89.318C52.5558 89.5862 52.4972 89.8761 52.4941 90.1875C52.4941 90.8042 52.7454 91.3437 53.248 91.8062C53.7506 92.2687 54.3086 92.5 54.9222 92.5ZM54.8066 101.75C51.9545 101.75 49.4308 100.806 47.2355 98.9195C45.0401 97.0325 43.7482 94.6614 43.3597 91.8062C40.7389 91.4208 38.542 90.3417 36.7691 88.5687C34.9962 86.7958 33.917 84.599 33.5316 81.9781C30.9108 81.5927 28.7339 80.495 27.0011 78.6851C25.2683 76.8752 24.2076 74.6968 23.8191 72.15C20.8899 71.7646 18.5004 70.4927 16.6504 68.3344C14.8004 66.176 13.8754 63.6323 13.8754 60.7031C13.8754 59.1615 14.1652 57.6784 14.7449 56.2539C15.3245 54.8294 16.1524 53.576 17.2285 52.4937L44.0535 25.7844L59.2004 40.9312C59.3545 41.1625 59.5858 41.3367 59.8941 41.4539C60.2024 41.571 60.5108 41.6281 60.8191 41.625C61.5129 41.625 62.091 41.4138 62.5535 40.9914C63.016 40.569 63.2472 40.0093 63.2472 39.3125C63.2472 39.0042 63.1886 38.6958 63.0715 38.3875C62.9543 38.0792 62.7816 37.8479 62.5535 37.6937L46.0191 21.1594C45.1712 20.2344 44.1891 19.5607 43.073 19.1382C41.9568 18.7158 40.7805 18.5031 39.5441 18.5C38.3879 18.5 37.2316 18.7127 36.0754 19.1382C34.9191 19.5637 33.8785 20.2375 32.9535 21.1594L16.6504 37.5781C15.9566 38.2719 15.3785 39.0812 14.916 40.0062C14.4535 40.9312 14.1451 41.8562 13.991 42.7812C13.8368 43.7062 13.8368 44.6513 13.991 45.6164C14.1451 46.5815 14.4535 47.4864 14.916 48.3312L8.20973 55.0375C6.89931 53.2646 5.93577 51.319 5.3191 49.2007C4.70243 47.0825 4.47118 44.9427 4.62535 42.7812C4.77952 40.6198 5.3191 38.5201 6.2441 36.482C7.1691 34.4439 8.44098 32.6124 10.0597 30.9875L26.3629 14.6844C28.2129 12.9115 30.2756 11.5625 32.5511 10.6375C34.8266 9.7125 37.1576 9.25 39.5441 9.25C41.9306 9.25 44.2631 9.7125 46.5417 10.6375C48.8203 11.5625 50.843 12.9115 52.6097 14.6844L53.8816 15.9562L55.1535 14.6844C57.0035 12.9115 59.0662 11.5625 61.3417 10.6375C63.6172 9.7125 65.9482 9.25 68.3347 9.25C70.7212 9.25 73.0538 9.7125 75.3324 10.6375C77.6109 11.5625 79.6336 12.9115 81.4004 14.6844L100.941 34.225C102.714 35.9979 104.063 38.0406 104.988 40.3531C105.913 42.6656 106.375 45.0167 106.375 47.4062C106.375 49.7958 105.913 52.1284 104.988 54.4039C104.063 56.6794 102.714 58.702 100.941 60.4719L63.016 98.2812C61.9368 99.3604 60.685 100.208 59.2605 100.825C57.836 101.442 56.3514 101.75 54.8066 101.75Z" fill="#80C4E9"/>
</svg>
