<svg width="80" height="36" viewBox="0 0 80 36" fill="none" xmlns="http://www.w3.org/2000/svg">
<rect width="80" height="36" fill="#F5F5F5"/>
<g id="iPhone 13 &#38; 14 - 1" clip-path="url(#clip0_0_1)">
<rect width="390" height="10000" transform="translate(-42 -37)" fill="#FCF9ED"/>
<path id="Vector" fill-rule="evenodd" clip-rule="evenodd" d="M449.042 42.5198C470.644 84.4809 476.423 131.78 465.545 177.719C452.119 234.423 436.156 301.337 382.408 323.946C328.412 346.658 272.158 305.683 218.841 281.493C167.495 258.198 110.517 239.262 85.0007 189.012C57.7324 135.312 56.368 68.9397 83.6164 15.1926C109.587 -36.0336 164.123 -67.4106 220.533 -78.3238C268.336 -87.5721 311.846 -60.0337 354.864 -37.2839C392.685 -17.2829 429.468 4.49543 449.042 42.5198Z" fill="#DC6B19" fill-opacity="0.05"/>
<g id="Frame 25" filter="url(#filter0_d_0_1)">
<rect x="-24" y="-19" width="352" height="74" rx="37" fill="white" shape-rendering="crispEdges"/>
<g id="logo_4 1" clip-path="url(#clip1_0_1)">
<g id="Group">
<g id="&#227;&#131;&#172;&#227;&#130;&#164;&#227;&#131;&#164;&#227;&#131;&#188; 2">
<g id="&#227;&#131;&#172;&#227;&#130;&#164;&#227;&#131;&#164;&#227;&#131;&#188; 1">
<g id="Group_2">
<g id="Group_3">
<path id="Vector_2" d="M4.46726 26.4124V24.4421H5.79071V26.4124H10.3543V34.6309C10.3543 35.0944 10.2275 35.422 9.97401 35.6034C9.76611 35.7545 9.41117 35.8352 8.89903 35.8352C8.0218 35.8352 7.30177 35.815 6.72878 35.7697L6.48539 34.5099C7.37276 34.5654 8.11308 34.5905 8.70634 34.5905C8.86353 34.5905 8.95988 34.5553 8.98523 34.4797C9.00551 34.4343 9.01566 34.3588 9.01566 34.2529V27.6167H5.78057V27.7074C5.75521 28.0248 5.71465 28.3523 5.6538 28.69C6.83019 29.6474 7.87982 30.7257 8.80269 31.925L7.79362 32.8572C7.13444 31.9098 6.30792 30.9222 5.31406 29.8993C4.80193 31.2346 3.77258 32.3482 2.2311 33.2401L1.44514 32.2021C2.368 31.673 3.04747 31.1137 3.48862 30.5141C4.06668 29.728 4.38613 28.7605 4.44698 27.6217H1.33866V35.9309H0V26.4124H4.46726Z" fill="#323333"/>
<path id="Vector_3" d="M23.9741 25.3087V35.6134H22.6506V34.7668H15.1967V35.5982H13.8733V25.3037H23.9741V25.3087ZM15.1967 26.4979V29.3248H18.2391V26.4979H15.1967ZM15.1967 30.4888V33.5474H18.2391V30.4888H15.1967ZM22.6456 29.3248V26.4979H19.5271V29.3248H22.6456ZM22.6456 33.5474V30.4888H19.5271V33.5474H22.6456Z" fill="#323333"/>
<path id="Vector_4" d="M32.9898 26.2208C33.1165 26.0293 33.2078 25.8782 33.2686 25.7723C32.7717 25.8126 32.1734 25.8479 31.4838 25.8832L31.0325 24.9863C33.1926 24.9208 35.0789 24.7192 36.6914 24.3816L37.5432 25.213C36.5798 25.4045 35.5809 25.5557 34.5465 25.6564C34.4653 25.8429 34.3639 26.0293 34.2574 26.2158H38.461V27.1379H36.4682C37.0919 27.667 37.817 28.1003 38.6385 28.4379L38.0199 29.3248C37.5889 29.1182 37.1528 28.8662 36.7167 28.5589V30.136H32.1277V28.6244C31.7373 28.9217 31.3367 29.1837 30.9159 29.4205L30.2313 28.574C31.0071 28.1961 31.6815 27.7174 32.2494 27.1379H30.5305V28.0651H29.5975V29.1232C30.0792 29.5465 30.495 29.9647 30.8449 30.388L30.2262 31.4059C30.0234 31.0985 29.8155 30.7962 29.5975 30.5039V35.9359H28.4515V30.3477C28.1168 31.5621 27.7264 32.59 27.2802 33.4416L26.7224 32.1567C27.4577 30.8617 27.9901 29.5011 28.3095 28.0701H26.9202V26.9464H28.4515V24.4421H29.5975V26.9464H30.4341V26.2208H32.9847H32.9898ZM38.1618 30.6954V34.9281C38.1618 35.2606 38.0858 35.4924 37.9286 35.6285C37.7765 35.7645 37.5128 35.83 37.1325 35.83C36.7522 35.83 36.3313 35.8099 35.8648 35.7696L35.6721 34.7517C36.1184 34.8071 36.4632 34.8323 36.7167 34.8323C36.8485 34.8323 36.9297 34.8021 36.9601 34.7366C36.9855 34.6912 36.9956 34.6157 36.9956 34.5199V31.5873H31.8641V35.9258H30.7485V30.6903H38.1568L38.1618 30.6954ZM36.1336 32.1365V34.4947H33.6743V35.1599H32.6145V32.1365H36.1336ZM33.076 27.7678H35.7583C35.5302 27.546 35.3375 27.3394 35.1752 27.1429H33.6236C33.4258 27.3848 33.2433 27.5964 33.076 27.7678ZM35.6214 28.574H33.1977V29.3349H35.6214V28.574ZM33.6692 32.9679V33.6482H35.0738V32.9679H33.6692Z" fill="#323333"/>
<path id="Vector_5" d="M50.7929 30.9019H48.4807C47.8722 30.9019 47.568 30.6046 47.568 30.015V28.9065H46.2598C46.1786 29.9596 45.6259 30.7406 44.6118 31.2496H49.3072V34.3787H45.7172V34.9985H44.5104V31.2999C44.2568 31.4158 43.9881 31.5166 43.7092 31.6124L43.0247 30.7658V35.9257H41.7469V27.9289H44.3278C44.1554 27.4704 43.9577 27.0269 43.7346 26.5936H41.1333V25.5404H46.2192V24.4319H47.5223V25.5404H52.6944V26.5936H50.078C49.8701 27.0824 49.652 27.5258 49.4137 27.9289H52.0758V34.7718C52.0758 35.1598 51.9845 35.4419 51.7969 35.6082C51.6144 35.7796 51.2594 35.8602 50.7321 35.8602C50.2047 35.8602 49.6419 35.8451 49.0943 35.8148L48.8255 34.6357C49.5303 34.7012 50.0729 34.7365 50.4481 34.7365C50.6256 34.7365 50.7321 34.6962 50.7676 34.6105C50.7879 34.5652 50.798 34.5047 50.798 34.414V30.8868L50.7929 30.9019ZM45.058 28.9065H43.0247V30.6802C43.5723 30.5441 43.9932 30.3728 44.2974 30.1561C44.7132 29.8588 44.9667 29.4406 45.058 28.9115V28.9065ZM45.1239 26.6037C45.3673 27.0924 45.5549 27.5359 45.6918 27.939H48.0396C48.2322 27.5812 48.4249 27.1731 48.6075 26.7246L48.6531 26.6087H45.1188L45.1239 26.6037ZM45.7172 32.1717V33.4365H48.0903V32.1717H45.7172ZM50.7929 30.015V28.9065H48.7849V29.8739C48.7849 29.9697 48.8306 30.015 48.9269 30.015H50.7929Z" fill="#323333"/>
<path id="Vector_6" d="M61.6391 25.6162H66.3091V26.7046H57.1464V29.4609C57.1464 30.9373 57.045 32.1769 56.8371 33.1847C56.6444 34.132 56.3098 35.0491 55.8331 35.9309L54.7886 35.034C55.4782 33.618 55.823 31.7587 55.823 29.4609V25.6162H60.3055V24.4421H61.6441V25.6162H61.6391ZM61.9889 28.4128H65.8122V29.476H61.9889V31.1238H65.4218V35.9359H64.1085V35.2355H59.1392V35.9359H57.836V31.1238H60.6959V26.9616H61.9839V28.4128H61.9889ZM59.1443 32.1719V34.1673H64.1135V32.1719H59.1443Z" fill="#323333"/>
<path id="Vector_7" d="M70.8017 29.36V35.9307H69.5847V30.9573C69.3515 31.2244 69.0878 31.5015 68.7937 31.7887L68.2258 30.6298C69.2501 29.5968 70.0867 28.4278 70.7459 27.1328L71.7448 27.6971C71.6282 27.944 71.5166 28.1657 71.4102 28.3522H73.4739V27.0068H71.6992V25.9184H73.4739V24.4319H74.6706V25.9184H76.3084V27.0068H74.6706V28.3522H76.5518V29.4255H71.3747V28.4076C71.2225 28.6948 71.0299 29.0072 70.8067 29.3448L70.8017 29.36ZM68.2207 27.0622C69.1182 26.3164 69.8484 25.4397 70.4112 24.442L71.5166 24.9862C70.7358 26.261 69.8484 27.2839 68.8495 28.0549L68.2207 27.0622ZM73.4689 31.0077V29.7983H74.6757V31.0077H76.4403V32.081H74.6757V33.5221C74.7264 33.512 74.7822 33.507 74.843 33.4969C75.3957 33.4012 76.0295 33.2802 76.7344 33.1291L76.7699 34.1318C75.3653 34.5148 73.5652 34.8524 71.3797 35.1497L70.9994 34.0411C71.9831 33.9403 72.8046 33.8345 73.4739 33.7237V32.081H71.5369V31.0077H73.4739H73.4689ZM78.9452 29.3247V34.8524C78.9452 35.2051 78.8539 35.4571 78.6714 35.6082C78.499 35.7594 78.2049 35.835 77.7941 35.835C77.3834 35.835 76.9778 35.8199 76.562 35.7896L76.2831 34.6811C76.7344 34.7365 77.1147 34.7617 77.4189 34.7617C77.566 34.7617 77.6522 34.7315 77.6724 34.671C77.6927 34.6307 77.7029 34.5652 77.7029 34.4694V29.3247H76.8865V28.1456H79.9999V29.3247H78.9401H78.9452ZM77.1299 25.0214H79.6754V26.1854H77.1299V25.0214Z" fill="#323333"/>
</g>
<g id="Group_4">
<g id="Group_5">
<path id="Vector_8" d="M22.8638 4.19077C22.8841 4.23108 22.8841 4.28651 22.8841 4.34698C23.2542 9.08861 26.7581 13.2105 30.0135 14.4097C30.5611 14.6012 30.7741 14.969 30.7741 15.357C30.7741 15.9365 30.267 16.5361 29.4861 16.5361C27.8331 16.5361 23.7207 13.0139 22.0271 8.59983C20.9369 11.9507 18.7363 14.9287 15.0144 16.652C14.8217 16.7478 14.624 16.7881 14.4516 16.7881C13.8076 16.7881 13.3208 16.264 13.3208 15.7249C13.3208 15.357 13.5338 15.0094 14.0408 14.7776C20.6834 11.8348 20.8558 5.04235 20.8558 3.59114C20.8558 3.01166 20.8153 2.35156 20.7798 1.77208V1.71162C20.7798 1.07167 21.3274 0.744141 21.87 0.744141C22.4125 0.744141 22.9399 1.07167 22.9399 1.77208C22.9399 2.47249 22.9196 3.28376 22.8638 4.11519V4.19077Z" fill="#F1CE73"/>
<path id="Vector_9" d="M14.4516 17.4633C13.4729 17.4633 12.6414 16.6672 12.6414 15.7249C12.6414 15.0598 13.047 14.4904 13.7569 14.1628C19.5527 11.593 20.1764 5.91409 20.1764 3.59115C20.1764 3.03183 20.1358 2.3818 20.1003 1.81744V1.71667C20.1003 0.779425 20.8609 0.0739746 21.87 0.0739746C22.7168 0.0739746 23.6194 0.668568 23.6194 1.77713C23.6194 2.34149 23.6042 3.19811 23.5433 4.1152C23.5585 4.19582 23.5585 4.26636 23.5585 4.32179C23.9236 8.83163 27.2398 12.6713 30.2417 13.7799C30.9921 14.0469 31.4434 14.6365 31.4434 15.3621C31.4434 16.254 30.693 17.2164 29.476 17.2164C27.5745 17.2164 24.0402 14.1376 22.0677 10.3635C20.6784 13.4826 18.356 15.8509 15.2933 17.2718C15.0398 17.3978 14.7355 17.4684 14.4414 17.4684L14.4516 17.4633Z" fill="#F1CE73"/>
</g>
<path id="Vector_10" d="M40.3627 18.3653C39.8708 18.3653 39.3891 18.1386 39.0798 17.7153C34.9066 12.0062 28.4415 8.73591 21.3426 8.73591C14.2436 8.73591 7.77852 12.0112 3.60536 17.7153C3.08815 18.4207 2.09937 18.5769 1.38948 18.063C0.679582 17.549 0.522391 16.5664 1.0396 15.861C5.81617 9.33051 13.2143 5.58154 21.3426 5.58154C29.4709 5.58154 36.869 9.33051 41.6455 15.861C42.1628 16.5664 42.0056 17.549 41.2957 18.063C41.0117 18.2645 40.6872 18.3653 40.3627 18.3653Z" fill="#F1CE73"/>
<path id="Vector_11" d="M78.4027 18.3653C77.9109 18.3653 77.4292 18.1386 77.1199 17.7153C72.9467 12.0062 66.4816 8.73591 59.3827 8.73591C52.2837 8.73591 45.8896 11.9759 41.7114 17.6246C41.2449 18.2595 40.393 18.5568 39.6831 18.2141C38.7653 17.7707 38.5067 16.642 39.0797 15.861C43.8563 9.32547 51.2544 5.58154 59.3827 5.58154C67.5109 5.58154 74.8736 9.31035 79.6501 15.8156C80.1572 16.5059 80.0558 17.5137 79.3712 18.0378C79.0822 18.2595 78.7374 18.3653 78.4027 18.3653Z" fill="#F49F4A"/>
<g id="Group_6">
<path id="Vector_12" d="M59.8897 4.19077C59.91 4.23108 59.91 4.28651 59.91 4.34698C60.2801 9.08861 63.784 13.2105 67.0393 14.4097C67.587 14.6012 67.7999 14.969 67.7999 15.357C67.7999 15.9365 67.2929 16.5361 66.512 16.5361C64.8589 16.5361 60.7466 13.0139 59.053 8.59983C57.9628 11.9507 55.7622 14.9287 52.0403 16.652C51.8476 16.7478 51.6498 16.7881 51.4774 16.7881C50.8335 16.7881 50.3467 16.264 50.3467 15.7249C50.3467 15.357 50.5596 15.0094 51.0667 14.7776C57.7093 11.8348 57.8817 5.04235 57.8817 3.59114C57.8817 3.01166 57.8411 2.35156 57.8056 1.77208V1.71162C57.8056 1.07167 58.3533 0.744141 58.8958 0.744141C59.4384 0.744141 59.9657 1.07167 59.9657 1.77208C59.9657 2.47249 59.9455 3.28376 59.8897 4.11519V4.19077Z" fill="#F49F4A"/>
<path id="Vector_13" d="M51.4775 17.4633C50.4988 17.4633 49.6672 16.6672 49.6672 15.7249C49.6672 15.0598 50.0729 14.4904 50.7828 14.1628C56.5786 11.593 57.2023 5.91409 57.2023 3.59115C57.2023 3.03183 57.1617 2.3818 57.1262 1.81744V1.71667C57.1262 0.779425 57.8868 0.0739746 58.8959 0.0739746C59.7427 0.0739746 60.6452 0.668568 60.6452 1.77713C60.6452 2.34149 60.63 3.19811 60.5692 4.1152C60.5844 4.19582 60.5844 4.26636 60.5844 4.32179C60.9495 8.83163 64.2657 12.6713 67.2675 13.7799C68.018 14.0469 68.4693 14.6365 68.4693 15.3621C68.4693 16.254 67.7188 17.2164 66.5019 17.2164C64.6004 17.2164 61.0661 14.1376 59.0936 10.3635C57.7043 13.4826 55.3819 15.8509 52.3192 17.2718C52.0657 17.3978 51.7614 17.4684 51.4673 17.4684L51.4775 17.4633Z" fill="#F49F4A"/>
</g>
<g id="Group_7">
<path id="Vector_14" d="M40.2715 18.3551C40.3019 18.3551 40.3323 18.3652 40.3628 18.3652C40.6873 18.3652 41.0118 18.2694 41.2958 18.0628C41.4428 17.957 41.5594 17.826 41.6558 17.6899C41.311 18.1132 40.7938 18.3702 40.2715 18.3551Z" fill="#F1CE73"/>
<path id="Vector_15" d="M39.0798 17.7153C39.0798 17.7153 39.095 17.7304 39.1001 17.7354C38.6894 17.1962 38.659 16.4354 39.0798 15.8609C39.4855 15.3066 39.9216 14.7776 40.3627 14.2585" fill="#F1CE73"/>
<path id="Vector_16" d="M40.0788 18.3349C40.0484 18.3299 40.018 18.3299 39.9875 18.3198C40.018 18.3249 40.0484 18.3299 40.0788 18.3349Z" fill="#F1CE73"/>
<path id="Vector_17" d="M39.3586 18.0074C39.3231 17.9823 39.2978 17.947 39.2673 17.9167C39.2978 17.947 39.3231 17.9772 39.3586 18.0074Z" fill="#F1CE73"/>
<path id="Vector_18" d="M39.6628 18.2039C39.6172 18.1787 39.5766 18.1485 39.531 18.1233C39.5766 18.1485 39.6172 18.1838 39.6628 18.2039Z" fill="#F1CE73"/>
<g id="Vector_19" style="mix-blend-mode:multiply">
<path d="M40.2715 18.3551C40.2056 18.3551 40.1397 18.345 40.0789 18.335C40.1448 18.345 40.2056 18.3551 40.2715 18.3551Z" fill="#F49F4A"/>
</g>
<g id="Vector_20" style="mix-blend-mode:multiply">
<path d="M39.2674 17.9168C39.2066 17.8613 39.1508 17.8059 39.1001 17.7354C39.1508 17.8009 39.2066 17.8563 39.2674 17.9168Z" fill="#F49F4A"/>
</g>
<g id="Vector_21" style="mix-blend-mode:multiply">
<path d="M39.6832 18.2142C39.7795 18.2595 39.886 18.2948 39.9874 18.32C39.8759 18.2948 39.7694 18.2545 39.668 18.2041C39.673 18.2041 39.6781 18.2142 39.6832 18.2142Z" fill="#F49F4A"/>
</g>
<path id="Vector_22" d="M40.3628 14.2637C40.809 14.7776 41.24 15.3067 41.6457 15.8661C42.0564 16.4254 42.0361 17.156 41.6558 17.6952C41.6761 17.675 41.6964 17.6549 41.7116 17.6297" fill="#F49F4A"/>
<path id="Vector_23" d="M41.6456 15.8609C41.2399 15.3066 40.8039 14.7776 40.3627 14.2585C39.9165 14.7725 39.4855 15.3016 39.0798 15.8609C38.659 16.4354 38.6894 17.1962 39.1001 17.7354C39.1508 17.8009 39.2117 17.8563 39.2674 17.9168C39.2979 17.947 39.3232 17.9773 39.3587 18.0075C39.4145 18.0529 39.4753 18.0881 39.5362 18.1234C39.5818 18.1486 39.6173 18.1839 39.668 18.204C39.7694 18.2544 39.8759 18.2897 39.9875 18.3199C40.0179 18.325 40.0483 18.33 40.0787 18.335C40.1447 18.3451 40.2055 18.3552 40.2714 18.3552C40.7937 18.3703 41.3109 18.1133 41.6557 17.6901C42.031 17.1559 42.0563 16.4202 41.6456 15.8609Z" fill="#F1CE73"/>
<g id="Vector_24" style="mix-blend-mode:multiply">
<path d="M41.6456 15.8609C41.2399 15.3066 40.8039 14.7776 40.3627 14.2585C39.9165 14.7725 39.4855 15.3016 39.0798 15.8609C38.659 16.4354 38.6894 17.1962 39.1001 17.7354C39.1508 17.8009 39.2117 17.8563 39.2674 17.9168C39.2979 17.947 39.3232 17.9773 39.3587 18.0075C39.4145 18.0529 39.4753 18.0881 39.5362 18.1234C39.5818 18.1486 39.6173 18.1839 39.668 18.204C39.7694 18.2544 39.8759 18.2897 39.9875 18.3199C40.0179 18.325 40.0483 18.33 40.0787 18.335C40.1447 18.3451 40.2055 18.3552 40.2714 18.3552C40.7937 18.3703 41.3109 18.1133 41.6557 17.6901C42.031 17.1559 42.0563 16.4202 41.6456 15.8609Z" fill="#F49F4A"/>
</g>
</g>
</g>
</g>
</g>
</g>
</g>
</g>
</g>
</g>
<defs>
<filter id="filter0_d_0_1" x="-44" y="-39" width="392" height="114" filterUnits="userSpaceOnUse" color-interpolation-filters="sRGB">
<feFlood flood-opacity="0" result="BackgroundImageFix"/>
<feColorMatrix in="SourceAlpha" type="matrix" values="0 0 0 0 0 0 0 0 0 0 0 0 0 0 0 0 0 0 127 0" result="hardAlpha"/>
<feOffset/>
<feGaussianBlur stdDeviation="10"/>
<feComposite in2="hardAlpha" operator="out"/>
<feColorMatrix type="matrix" values="0 0 0 0 0.216032 0 0 0 0 0.0908442 0 0 0 0 0 0 0 0 0.05 0"/>
<feBlend mode="normal" in2="BackgroundImageFix" result="effect1_dropShadow_0_1"/>
<feBlend mode="normal" in="SourceGraphic" in2="effect1_dropShadow_0_1" result="shape"/>
</filter>
<clipPath id="clip0_0_1">
<rect width="390" height="10000" fill="white" transform="translate(-42 -37)"/>
</clipPath>
<clipPath id="clip1_0_1">
<rect width="80" height="35.8621" fill="white" transform="translate(0 0.0688477)"/>
</clipPath>
</defs>
</svg>
