<svg width="111" height="111" viewBox="0 0 111 111" fill="none" xmlns="http://www.w3.org/2000/svg">
<g clip-path="url(#clip0_522_170)">
<path d="M52.0312 6.9375C38.2317 6.9375 24.9974 12.4193 15.2396 22.1771C5.48185 31.9349 0 45.1692 0 58.9688C0 72.7683 5.48185 86.0026 15.2396 95.7604C24.9974 105.518 38.2317 111 52.0312 111C65.8308 111 79.0651 105.518 88.8229 95.7604C98.5807 86.0026 104.062 72.7683 104.062 58.9688C104.062 45.1692 98.5807 31.9349 88.8229 22.1771C79.0651 12.4193 65.8308 6.9375 52.0312 6.9375ZM52.0312 100.594C40.9916 100.594 30.4041 96.2083 22.5979 88.4021C14.7917 80.5959 10.4063 70.0084 10.4062 58.9688C10.4062 47.9291 14.7917 37.3416 22.5979 29.5354C30.4041 21.7292 40.9916 17.3438 52.0312 17.3438C63.0709 17.3438 73.6584 21.7292 81.4646 29.5354C89.2708 37.3416 93.6562 47.9291 93.6562 58.9688C93.6562 70.0084 89.2708 80.5959 81.4646 88.4021C73.6584 96.2083 63.0709 100.594 52.0312 100.594Z" fill="#80C4E9"/>
<path d="M65.906 62.4375C66.826 62.4375 67.7083 62.072 68.3588 61.4215C69.0093 60.771 69.3747 59.8887 69.3747 58.9687C69.3747 58.0487 69.0093 57.1664 68.3588 56.5159C67.7083 55.8654 66.826 55.5 65.906 55.5H58.5106L68.792 40.0779C69.0604 39.6993 69.2502 39.2707 69.35 38.8175C69.4498 38.3643 69.4576 37.8956 69.373 37.4393C69.2884 36.983 69.1131 36.5483 68.8575 36.161C68.6019 35.7736 68.2712 35.4415 67.8849 35.1843C67.4986 34.9271 67.0646 34.75 66.6087 34.6635C66.1527 34.5771 65.684 34.583 65.2304 34.6809C64.7768 34.7788 64.3474 34.9668 63.9677 35.2337C63.588 35.5005 63.2658 35.8409 63.02 36.2345L52.031 52.718L41.042 36.2345C40.7962 35.8409 40.4739 35.5005 40.0943 35.2337C39.7146 34.9668 39.2852 34.7788 38.8316 34.6809C38.3779 34.583 37.9093 34.5771 37.4533 34.6635C36.9974 34.75 36.5634 34.9271 36.1771 35.1843C35.7908 35.4415 35.4601 35.7736 35.2045 36.161C34.9488 36.5483 34.7735 36.983 34.689 37.4393C34.6044 37.8956 34.6122 38.3643 34.712 38.8175C34.8118 39.2707 35.0016 39.6993 35.27 40.0779L45.5514 55.5H38.156C37.236 55.5 36.3537 55.8654 35.7032 56.5159C35.0527 57.1664 34.6872 58.0487 34.6872 58.9687C34.6872 59.8887 35.0527 60.771 35.7032 61.4215C36.3537 62.072 37.236 62.4375 38.156 62.4375H48.5622V69.375H38.156C37.236 69.375 36.3537 69.7404 35.7032 70.3909C35.0527 71.0414 34.6872 71.9237 34.6872 72.8437C34.6872 73.7637 35.0527 74.646 35.7032 75.2965C36.3537 75.947 37.236 76.3125 38.156 76.3125H48.5622V86.7187C48.5622 87.6387 48.9277 88.521 49.5782 89.1715C50.2287 89.822 51.111 90.1875 52.031 90.1875C52.951 90.1875 53.8332 89.822 54.4838 89.1715C55.1343 88.521 55.4997 87.6387 55.4997 86.7187V76.3125H65.906C66.826 76.3125 67.7083 75.947 68.3588 75.2965C69.0093 74.646 69.3747 73.7637 69.3747 72.8437C69.3747 71.9237 69.0093 71.0414 68.3588 70.3909C67.7083 69.7404 66.826 69.375 65.906 69.375H55.4997V62.4375H65.906Z" fill="#80C4E9"/>
</g>
<defs>
<clipPath id="clip0_522_170">
<rect width="111" height="111" fill="white"/>
</clipPath>
</defs>
</svg>
