<svg width="56" height="42" viewBox="0 0 56 42" fill="none" xmlns="http://www.w3.org/2000/svg">
<g clip-path="url(#clip0_255_286)">
<path d="M43.0937 0H12.9063C11.9225 0 11.125 0.797492 11.125 1.78125V1.96875C11.125 2.95251 11.9225 3.75 12.9063 3.75H43.0937C44.0775 3.75 44.875 2.95251 44.875 1.96875V1.78125C44.875 0.797492 44.0775 0 43.0937 0Z" fill="#DC6B19"/>
<path d="M43.0937 9.75H12.9063C11.9225 9.75 11.125 10.5475 11.125 11.5312V11.7188C11.125 12.7025 11.9225 13.5 12.9063 13.5H43.0937C44.0775 13.5 44.875 12.7025 44.875 11.7188V11.5312C44.875 10.5475 44.0775 9.75 43.0937 9.75Z" fill="#DC6B19"/>
<path d="M43.0937 19.5H12.9063C11.9225 19.5 11.125 20.2975 11.125 21.2813V21.4687C11.125 22.4525 11.9225 23.25 12.9063 23.25H43.0937C44.0775 23.25 44.875 22.4525 44.875 21.4687V21.2813C44.875 20.2975 44.0775 19.5 43.0937 19.5Z" fill="#DC6B19"/>
</g>
<path d="M2.87 40.608C2.72067 40.7013 2.55733 40.7293 2.38 40.692C2.212 40.6453 2.07667 40.5473 1.974 40.398C1.88067 40.2393 1.85267 40.076 1.89 39.908C1.93667 39.7307 2.03467 39.5953 2.184 39.502C3.108 38.9513 3.97133 38.326 4.774 37.626C5.586 36.926 6.31867 36.1793 6.972 35.386C6.57067 35.1153 6.18333 34.8633 5.81 34.63C5.43667 34.3967 5.11 34.21 4.83 34.07C4.67133 33.9953 4.55933 33.874 4.494 33.706C4.42867 33.538 4.43333 33.3747 4.508 33.216C4.58267 33.048 4.70867 32.9407 4.886 32.894C5.06333 32.8473 5.23133 32.8613 5.39 32.936C5.74467 33.104 6.12267 33.3093 6.524 33.552C6.93467 33.7947 7.35 34.0607 7.77 34.35C8.08733 33.902 8.38133 33.4447 8.652 32.978C8.932 32.5113 9.17933 32.0353 9.394 31.55C9.46867 31.3913 9.59 31.2793 9.758 31.214C9.93533 31.1487 10.1033 31.1533 10.262 31.228C10.4207 31.3027 10.5327 31.4287 10.598 31.606C10.6633 31.774 10.6587 31.9373 10.584 32.096C10.3507 32.5907 10.08 33.09 9.772 33.594C9.47333 34.098 9.142 34.5973 8.778 35.092C9.20733 35.4093 9.60867 35.7313 9.982 36.058C10.3647 36.3847 10.6867 36.6833 10.948 36.954C11.0787 37.0753 11.1393 37.2293 11.13 37.416C11.13 37.6027 11.0647 37.7613 10.934 37.892C10.794 38.0133 10.6307 38.074 10.444 38.074C10.2667 38.074 10.1127 38.004 9.982 37.864C9.74867 37.612 9.45467 37.3367 9.1 37.038C8.74533 36.73 8.36733 36.4267 7.966 36.128C7.24733 36.9867 6.454 37.8033 5.586 38.578C4.718 39.3433 3.81267 40.02 2.87 40.608ZM16.254 38.956C16.0767 38.956 15.9227 38.8953 15.792 38.774C15.6707 38.6433 15.61 38.4893 15.61 38.312C15.61 38.1253 15.6707 37.9713 15.792 37.85C15.9227 37.7193 16.0767 37.654 16.254 37.654H25.746C25.9327 37.654 26.0867 37.7193 26.208 37.85C26.3293 37.9713 26.39 38.1253 26.39 38.312C26.39 38.4893 26.3293 38.6433 26.208 38.774C26.0867 38.8953 25.9327 38.956 25.746 38.956H16.254ZM17.934 33.944C17.7567 33.944 17.6027 33.8787 17.472 33.748C17.3507 33.6173 17.29 33.4633 17.29 33.286C17.29 33.1087 17.3507 32.9593 17.472 32.838C17.6027 32.7073 17.7567 32.642 17.934 32.642H24.08C24.2573 32.642 24.4067 32.7073 24.528 32.838C24.6587 32.9593 24.724 33.1087 24.724 33.286C24.724 33.4633 24.6587 33.6173 24.528 33.748C24.4067 33.8787 24.2573 33.944 24.08 33.944H17.934ZM30.8 39.698C30.6413 39.698 30.506 39.642 30.394 39.53C30.282 39.418 30.226 39.2827 30.226 39.124C30.226 38.9653 30.282 38.83 30.394 38.718C30.506 38.606 30.6413 38.55 30.8 38.55H36.078C36.3207 37.8873 36.456 37.388 36.484 37.052C36.512 36.7067 36.4373 36.4733 36.26 36.352C36.092 36.2307 35.8167 36.17 35.434 36.17H32.438C32.2887 36.17 32.1533 36.114 32.032 36.002C31.92 35.89 31.864 35.7547 31.864 35.596C31.864 35.4373 31.92 35.302 32.032 35.19C32.1533 35.078 32.2887 35.022 32.438 35.022H35.434C36.5167 35.022 37.1933 35.3067 37.464 35.876C37.744 36.436 37.6787 37.3273 37.268 38.55H39.298C39.4567 38.55 39.592 38.606 39.704 38.718C39.816 38.83 39.872 38.9653 39.872 39.124C39.872 39.2827 39.816 39.418 39.704 39.53C39.592 39.642 39.4567 39.698 39.298 39.698H30.8ZM44.646 36.422C44.4687 36.422 44.3147 36.3613 44.184 36.24C44.0627 36.1093 44.002 35.9553 44.002 35.778C44.002 35.5913 44.0627 35.4373 44.184 35.316C44.3147 35.1947 44.4687 35.134 44.646 35.134H53.368C53.5453 35.134 53.6947 35.1947 53.816 35.316C53.9467 35.4373 54.012 35.5913 54.012 35.778C54.012 35.9553 53.9467 36.1093 53.816 36.24C53.6947 36.3613 53.5453 36.422 53.368 36.422H44.646Z" fill="#DC6B19"/>
<defs>
<clipPath id="clip0_255_286">
<rect width="33.75" height="23.25" fill="white" transform="translate(11.125)"/>
</clipPath>
</defs>
</svg>
