<svg width="55" height="55" viewBox="0 0 55 55" fill="none" xmlns="http://www.w3.org/2000/svg">
<g clip-path="url(#clip0_255_286)">
<path d="M42.5937 8.875H12.4063C11.4225 8.875 10.625 9.67249 10.625 10.6562V10.8438C10.625 11.8275 11.4225 12.625 12.4063 12.625H42.5937C43.5775 12.625 44.375 11.8275 44.375 10.8438V10.6562C44.375 9.67249 43.5775 8.875 42.5937 8.875Z" fill="#FF7F3E"/>
<path d="M42.5937 18.625H12.4063C11.4225 18.625 10.625 19.4225 10.625 20.4062V20.5938C10.625 21.5775 11.4225 22.375 12.4063 22.375H42.5937C43.5775 22.375 44.375 21.5775 44.375 20.5938V20.4062C44.375 19.4225 43.5775 18.625 42.5937 18.625Z" fill="#FF7F3E"/>
<path d="M42.5937 28.375H12.4063C11.4225 28.375 10.625 29.1725 10.625 30.1563V30.3437C10.625 31.3275 11.4225 32.125 12.4063 32.125H42.5937C43.5775 32.125 44.375 31.3275 44.375 30.3437V30.1563C44.375 29.1725 43.5775 28.375 42.5937 28.375Z" fill="#FF7F3E"/>
</g>
<path d="M2.23 50.874C2.174 50.7807 2.09467 50.6687 1.992 50.538C1.88933 50.398 1.782 50.2627 1.67 50.132C1.558 49.992 1.45533 49.8893 1.362 49.824C2.37933 49.3573 3.33133 48.7647 4.218 48.046C5.10467 47.318 5.898 46.5153 6.598 45.638C6.178 45.33 5.76267 45.05 5.352 44.798C4.95067 44.5367 4.58667 44.336 4.26 44.196L5.03 43.272C5.37533 43.4213 5.744 43.6173 6.136 43.86C6.53733 44.0933 6.93867 44.35 7.34 44.63C8.208 43.3607 8.83333 42.068 9.216 40.752L10.462 41.172C10.2287 41.9 9.93467 42.6187 9.58 43.328C9.23467 44.0373 8.838 44.7233 8.39 45.386C8.79133 45.694 9.16933 46.002 9.524 46.31C9.87867 46.6087 10.1773 46.8933 10.42 47.164C10.336 47.2387 10.2287 47.346 10.098 47.486C9.96733 47.6167 9.84133 47.752 9.72 47.892C9.608 48.032 9.51933 48.144 9.454 48.228C9.23933 47.9667 8.96867 47.682 8.642 47.374C8.32467 47.066 7.97933 46.758 7.606 46.45C6.878 47.3553 6.06133 48.1907 5.156 48.956C4.25067 49.712 3.27533 50.3513 2.23 50.874ZM15.194 48.62V47.248C15.2873 47.2573 15.4833 47.2667 15.782 47.276C16.09 47.276 16.4587 47.2807 16.888 47.29C17.3173 47.29 17.7653 47.29 18.232 47.29C18.6987 47.29 19.142 47.29 19.562 47.29C19.9913 47.29 20.3507 47.29 20.64 47.29C20.92 47.29 21.2607 47.29 21.662 47.29C22.0633 47.29 22.4787 47.29 22.908 47.29C23.3467 47.2807 23.762 47.276 24.154 47.276C24.546 47.276 24.882 47.276 25.162 47.276C25.442 47.2667 25.6193 47.2573 25.694 47.248V48.62C25.6193 48.6107 25.4467 48.606 25.176 48.606C24.9053 48.5967 24.574 48.592 24.182 48.592C23.7993 48.592 23.3933 48.592 22.964 48.592C22.5347 48.5827 22.1147 48.578 21.704 48.578C21.3027 48.578 20.948 48.578 20.64 48.578C20.3973 48.578 20.0707 48.578 19.66 48.578C19.2493 48.578 18.8013 48.5827 18.316 48.592C17.84 48.592 17.378 48.592 16.93 48.592C16.482 48.592 16.0993 48.5967 15.782 48.606C15.4647 48.606 15.2687 48.6107 15.194 48.62ZM16.636 43.776V42.404C16.7293 42.4133 16.9393 42.4227 17.266 42.432C17.5927 42.432 17.9707 42.4367 18.4 42.446C18.8293 42.446 19.254 42.446 19.674 42.446C20.1033 42.446 20.4627 42.446 20.752 42.446C21.032 42.446 21.354 42.446 21.718 42.446C22.0913 42.446 22.46 42.446 22.824 42.446C23.1973 42.4367 23.5147 42.432 23.776 42.432C24.0467 42.4227 24.2147 42.4133 24.28 42.404V43.776C24.196 43.7667 24.0233 43.762 23.762 43.762C23.51 43.7527 23.2067 43.748 22.852 43.748C22.4973 43.7387 22.1333 43.734 21.76 43.734C21.3867 43.734 21.0507 43.734 20.752 43.734C20.5653 43.734 20.3133 43.734 19.996 43.734C19.6787 43.734 19.338 43.7387 18.974 43.748C18.6193 43.748 18.274 43.748 17.938 43.748C17.6113 43.748 17.3267 43.7527 17.084 43.762C16.8507 43.762 16.7013 43.7667 16.636 43.776ZM30.188 49.628V48.592C30.2627 48.6013 30.4213 48.6107 30.664 48.62C30.916 48.62 31.21 48.62 31.546 48.62C31.8913 48.62 32.2507 48.6247 32.624 48.634C32.9973 48.634 33.3567 48.634 33.702 48.634C34.0473 48.634 34.3413 48.634 34.584 48.634L35.284 48.62L35.62 45.876C35.34 45.8853 35.0133 45.8947 34.64 45.904C34.2667 45.9133 33.8887 45.9227 33.506 45.932C33.1233 45.932 32.7827 45.9367 32.484 45.946C32.1947 45.9553 31.9847 45.9647 31.854 45.974L31.784 44.91C31.9147 44.9193 32.1527 44.9287 32.498 44.938C32.8433 44.938 33.2353 44.938 33.674 44.938C34.122 44.9287 34.5653 44.9193 35.004 44.91C35.4427 44.9007 35.83 44.8913 36.166 44.882C36.502 44.8633 36.726 44.8493 36.838 44.84L36.376 48.62C36.74 48.62 37.0947 48.62 37.44 48.62C37.7853 48.6107 38.0793 48.606 38.322 48.606C38.5647 48.5967 38.7187 48.592 38.784 48.592V49.628C38.7 49.6187 38.4947 49.614 38.168 49.614C37.8507 49.6047 37.4727 49.6 37.034 49.6C36.5953 49.5907 36.1567 49.586 35.718 49.586C35.2793 49.586 34.9013 49.586 34.584 49.586C34.3787 49.586 34.108 49.586 33.772 49.586C33.4453 49.586 33.086 49.5907 32.694 49.6C32.3113 49.6 31.9427 49.6 31.588 49.6C31.2333 49.6 30.9253 49.6047 30.664 49.614C30.412 49.614 30.2533 49.6187 30.188 49.628ZM42.83 46.38C42.83 46.296 42.83 46.1653 42.83 45.988C42.83 45.8013 42.83 45.6193 42.83 45.442C42.83 45.2647 42.8253 45.134 42.816 45.05C43.0493 45.0593 43.3993 45.0687 43.866 45.078C44.3327 45.078 44.874 45.0827 45.49 45.092C46.1153 45.092 46.7733 45.0967 47.464 45.106C48.164 45.106 48.8593 45.106 49.55 45.106C50.25 45.106 50.908 45.106 51.524 45.106C52.14 45.0967 52.6813 45.0873 53.148 45.078C53.6147 45.0687 53.96 45.0593 54.184 45.05C54.184 45.078 54.184 45.12 54.184 45.176C54.184 45.232 54.184 45.2927 54.184 45.358C54.184 45.526 54.1793 45.7173 54.17 45.932C54.17 46.1373 54.1747 46.282 54.184 46.366C53.8947 46.3567 53.4653 46.3473 52.896 46.338C52.3267 46.3287 51.6733 46.324 50.936 46.324C50.208 46.3147 49.4473 46.31 48.654 46.31C47.8607 46.31 47.086 46.3147 46.33 46.324C45.574 46.324 44.888 46.3287 44.272 46.338C43.6653 46.3473 43.1847 46.3613 42.83 46.38Z" fill="#FF7F3E"/>
<defs>
<clipPath id="clip0_255_286">
<rect width="35" height="23.25" fill="white" transform="translate(10 8.875)"/>
</clipPath>
</defs>
</svg>
