<svg width="52" height="51" viewBox="0 0 52 51" fill="none" xmlns="http://www.w3.org/2000/svg">
<path d="M38.75 27.6208H28.125V38.2458C28.125 38.8094 27.9011 39.3499 27.5026 39.7484C27.1041 40.147 26.5636 40.3708 26 40.3708C25.4364 40.3708 24.8959 40.147 24.4974 39.7484C24.0989 39.3499 23.875 38.8094 23.875 38.2458V27.6208H13.25C12.6864 27.6208 12.1459 27.397 11.7474 26.9984C11.3489 26.5999 11.125 26.0594 11.125 25.4958C11.125 24.9323 11.3489 24.3918 11.7474 23.9932C12.1459 23.5947 12.6864 23.3708 13.25 23.3708H23.875V12.7458C23.875 12.1823 24.0989 11.6418 24.4974 11.2432C24.8959 10.8447 25.4364 10.6208 26 10.6208C26.5636 10.6208 27.1041 10.8447 27.5026 11.2432C27.9011 11.6418 28.125 12.1823 28.125 12.7458V23.3708H38.75C39.3136 23.3708 39.8541 23.5947 40.2526 23.9932C40.6511 24.3918 40.875 24.9323 40.875 25.4958C40.875 26.0594 40.6511 26.5999 40.2526 26.9984C39.8541 27.397 39.3136 27.6208 38.75 27.6208Z" fill="#5D4A3A" fill-opacity="0.2"/>
</svg>
