<svg width="94" height="95" viewBox="0 0 94 95" fill="none" xmlns="http://www.w3.org/2000/svg">
<rect y="0.5" width="94" height="94" rx="47" fill="#80C4E9"/>
<path d="M28.98 36.78C27.9933 36.78 27.0733 36.6133 26.22 36.28C25.3667 35.9333 24.6333 35.36 24.02 34.56C23.7933 34.24 23.7133 33.9467 23.78 33.68C23.86 33.4 24.06 33.1733 24.38 33C24.6867 32.8133 24.9667 32.76 25.22 32.84C25.4733 32.9067 25.7267 33.08 25.98 33.36C26.34 33.7467 26.7667 34.0467 27.26 34.26C27.7667 34.4733 28.3667 34.58 29.06 34.58C29.9933 34.58 30.6467 34.4133 31.02 34.08C31.4067 33.7333 31.6 33.2667 31.6 32.68C31.6 32.3067 31.5133 31.9867 31.34 31.72C31.18 31.4533 30.8333 31.2067 30.3 30.98C29.78 30.74 28.9733 30.5 27.88 30.26C26.5867 29.9533 25.6267 29.4667 25 28.8C24.3867 28.1333 24.08 27.2867 24.08 26.26C24.08 25.4467 24.2733 24.7333 24.66 24.12C25.06 23.4933 25.6133 23.0067 26.32 22.66C27.04 22.3133 27.88 22.14 28.84 22.14C29.84 22.14 30.7133 22.3133 31.46 22.66C32.2067 23.0067 32.8333 23.4533 33.34 24C33.5933 24.28 33.6933 24.56 33.64 24.84C33.5867 25.12 33.4133 25.3733 33.12 25.6C32.8267 25.84 32.5467 25.9333 32.28 25.88C32.0133 25.8267 31.7467 25.6733 31.48 25.42C31.1467 25.1133 30.7667 24.86 30.34 24.66C29.9133 24.46 29.4067 24.36 28.82 24.36C28.1267 24.36 27.56 24.5133 27.12 24.82C26.6933 25.1133 26.48 25.56 26.48 26.16C26.48 26.4267 26.54 26.6867 26.66 26.94C26.7933 27.18 27.0733 27.4133 27.5 27.64C27.94 27.8667 28.6133 28.0867 29.52 28.3C31.12 28.66 32.2733 29.2 32.98 29.92C33.6867 30.64 34.04 31.5467 34.04 32.64C34.04 33.9733 33.5733 35 32.64 35.72C31.72 36.4267 30.5 36.78 28.98 36.78ZM40.9405 36.5C40.1538 36.5 39.7605 36.1067 39.7605 35.32V24.64H36.7205C35.9338 24.64 35.5405 24.2867 35.5405 23.58C35.5405 22.86 35.9338 22.5 36.7205 22.5H45.1005C45.9005 22.5 46.3005 22.86 46.3005 23.58C46.3005 24.2867 45.9005 24.64 45.1005 24.64H42.1005V35.32C42.1005 36.1067 41.7138 36.5 40.9405 36.5ZM49.4359 36.5C48.6493 36.5 48.2559 36.1067 48.2559 35.32V23.68C48.2559 22.8933 48.6493 22.5 49.4359 22.5H56.4359C57.2226 22.5 57.6159 22.86 57.6159 23.58C57.6159 24.2867 57.2226 24.64 56.4359 24.64H50.5559V28.28H55.8159C56.6026 28.28 56.9959 28.64 56.9959 29.36C56.9959 30.08 56.6026 30.44 55.8159 30.44H50.5559V34.36H56.6559C57.4426 34.36 57.8359 34.7133 57.8359 35.42C57.8359 36.14 57.4426 36.5 56.6559 36.5H49.4359ZM61.1147 36.5C60.3547 36.5 59.9747 36.1067 59.9747 35.32V23.68C59.9747 22.8933 60.368 22.5 61.1547 22.5H66.3747C67.6814 22.5 68.7147 22.8067 69.4747 23.42C70.248 24.0333 70.6347 25.0667 70.6347 26.52C70.6347 27.9733 70.248 29.0133 69.4747 29.64C68.7147 30.2667 67.6814 30.58 66.3747 30.58H62.2747V35.32C62.2747 36.1067 61.888 36.5 61.1147 36.5ZM62.2747 28.42H66.0547C66.7347 28.42 67.2614 28.2733 67.6347 27.98C68.008 27.6867 68.1947 27.2 68.1947 26.52C68.1947 25.8533 68.008 25.3733 67.6347 25.08C67.2614 24.7867 66.7347 24.64 66.0547 24.64H62.2747V28.42Z" fill="white"/>
<path d="M37.58 74.9C35.4467 74.9 33.78 74.3667 32.58 73.3C31.38 72.2333 30.5267 70.6333 30.02 68.5C29.54 66.3667 29.3 63.7 29.3 60.5C29.3 57.3 29.54 54.6333 30.02 52.5C30.5267 50.34 31.38 48.7267 32.58 47.66C33.78 46.5933 35.4467 46.06 37.58 46.06C39.7133 46.06 41.3667 46.5933 42.54 47.66C43.74 48.7267 44.58 50.34 45.06 52.5C45.5667 54.6333 45.82 57.3 45.82 60.5C45.82 63.7 45.5667 66.3667 45.06 68.5C44.58 70.6333 43.74 72.2333 42.54 73.3C41.3667 74.3667 39.7133 74.9 37.58 74.9ZM37.58 70.82C38.5667 70.82 39.34 70.5133 39.9 69.9C40.4867 69.26 40.9133 68.1933 41.18 66.7C41.4467 65.2067 41.58 63.14 41.58 60.5C41.58 57.8333 41.4467 55.7533 41.18 54.26C40.9133 52.7667 40.4867 51.7133 39.9 51.1C39.34 50.46 38.5667 50.14 37.58 50.14C36.5933 50.14 35.8067 50.46 35.22 51.1C34.6333 51.7133 34.2067 52.7667 33.94 54.26C33.7 55.7533 33.58 57.8333 33.58 60.5C33.58 63.14 33.7 65.2067 33.94 66.7C34.2067 68.1933 34.6333 69.26 35.22 69.9C35.8067 70.5133 36.5933 70.82 37.58 70.82ZM56.4581 74.74C53.9248 74.74 51.7515 73.86 49.9381 72.1C49.3515 71.54 49.0981 70.98 49.1781 70.42C49.2581 69.8333 49.5915 69.3667 50.1781 69.02C50.7915 68.6467 51.3381 68.5267 51.8181 68.66C52.2981 68.7667 52.8315 69.0467 53.4181 69.5C53.8448 69.8467 54.3115 70.1267 54.8181 70.34C55.3248 70.5533 55.8715 70.66 56.4581 70.66C57.9515 70.66 59.0715 70.22 59.8181 69.34C60.5915 68.4333 60.9781 67.18 60.9781 65.58C60.9781 63.8467 60.6448 62.5933 59.9781 61.82C59.3381 61.02 58.4315 60.62 57.2581 60.62C56.8581 60.62 56.4715 60.6867 56.0981 60.82C55.7515 60.9267 55.4315 61.0733 55.1381 61.26C54.6048 61.5533 54.1381 61.8467 53.7381 62.14C53.3381 62.4067 52.8315 62.54 52.2181 62.54C50.7515 62.54 50.0181 61.7533 50.0181 60.18V48.86C50.0181 47.2867 50.8181 46.5 52.4181 46.5H61.8981C63.4715 46.5 64.2581 47.1533 64.2581 48.46C64.2581 49.7667 63.4715 50.42 61.8981 50.42H54.2981V57.78C54.7515 57.46 55.2448 57.2067 55.7781 57.02C56.3115 56.8067 56.8448 56.7 57.3781 56.7C58.8715 56.7 60.2048 57.0333 61.3781 57.7C62.5781 58.3667 63.5248 59.3533 64.2181 60.66C64.9381 61.9667 65.2981 63.6067 65.2981 65.58C65.2981 68.4867 64.4848 70.74 62.8581 72.34C61.2315 73.94 59.0981 74.74 56.4581 74.74Z" fill="white"/>
</svg>
