<svg width="94" height="95" viewBox="0 0 94 95" fill="none" xmlns="http://www.w3.org/2000/svg">
<rect y="0.5" width="94" height="94" rx="47" fill="#FF7F3E"/>
<path d="M28.98 36.78C27.9933 36.78 27.0733 36.6133 26.22 36.28C25.3667 35.9333 24.6333 35.36 24.02 34.56C23.7933 34.24 23.7133 33.9467 23.78 33.68C23.86 33.4 24.06 33.1733 24.38 33C24.6867 32.8133 24.9667 32.76 25.22 32.84C25.4733 32.9067 25.7267 33.08 25.98 33.36C26.34 33.7467 26.7667 34.0467 27.26 34.26C27.7667 34.4733 28.3667 34.58 29.06 34.58C29.9933 34.58 30.6467 34.4133 31.02 34.08C31.4067 33.7333 31.6 33.2667 31.6 32.68C31.6 32.3067 31.5133 31.9867 31.34 31.72C31.18 31.4533 30.8333 31.2067 30.3 30.98C29.78 30.74 28.9733 30.5 27.88 30.26C26.5867 29.9533 25.6267 29.4667 25 28.8C24.3867 28.1333 24.08 27.2867 24.08 26.26C24.08 25.4467 24.2733 24.7333 24.66 24.12C25.06 23.4933 25.6133 23.0067 26.32 22.66C27.04 22.3133 27.88 22.14 28.84 22.14C29.84 22.14 30.7133 22.3133 31.46 22.66C32.2067 23.0067 32.8333 23.4533 33.34 24C33.5933 24.28 33.6933 24.56 33.64 24.84C33.5867 25.12 33.4133 25.3733 33.12 25.6C32.8267 25.84 32.5467 25.9333 32.28 25.88C32.0133 25.8267 31.7467 25.6733 31.48 25.42C31.1467 25.1133 30.7667 24.86 30.34 24.66C29.9133 24.46 29.4067 24.36 28.82 24.36C28.1267 24.36 27.56 24.5133 27.12 24.82C26.6933 25.1133 26.48 25.56 26.48 26.16C26.48 26.4267 26.54 26.6867 26.66 26.94C26.7933 27.18 27.0733 27.4133 27.5 27.64C27.94 27.8667 28.6133 28.0867 29.52 28.3C31.12 28.66 32.2733 29.2 32.98 29.92C33.6867 30.64 34.04 31.5467 34.04 32.64C34.04 33.9733 33.5733 35 32.64 35.72C31.72 36.4267 30.5 36.78 28.98 36.78ZM40.9405 36.5C40.1538 36.5 39.7605 36.1067 39.7605 35.32V24.64H36.7205C35.9338 24.64 35.5405 24.2867 35.5405 23.58C35.5405 22.86 35.9338 22.5 36.7205 22.5H45.1005C45.9005 22.5 46.3005 22.86 46.3005 23.58C46.3005 24.2867 45.9005 24.64 45.1005 24.64H42.1005V35.32C42.1005 36.1067 41.7138 36.5 40.9405 36.5ZM49.4359 36.5C48.6493 36.5 48.2559 36.1067 48.2559 35.32V23.68C48.2559 22.8933 48.6493 22.5 49.4359 22.5H56.4359C57.2226 22.5 57.6159 22.86 57.6159 23.58C57.6159 24.2867 57.2226 24.64 56.4359 24.64H50.5559V28.28H55.8159C56.6026 28.28 56.9959 28.64 56.9959 29.36C56.9959 30.08 56.6026 30.44 55.8159 30.44H50.5559V34.36H56.6559C57.4426 34.36 57.8359 34.7133 57.8359 35.42C57.8359 36.14 57.4426 36.5 56.6559 36.5H49.4359ZM61.1147 36.5C60.3547 36.5 59.9747 36.1067 59.9747 35.32V23.68C59.9747 22.8933 60.368 22.5 61.1547 22.5H66.3747C67.6814 22.5 68.7147 22.8067 69.4747 23.42C70.248 24.0333 70.6347 25.0667 70.6347 26.52C70.6347 27.9733 70.248 29.0133 69.4747 29.64C68.7147 30.2667 67.6814 30.58 66.3747 30.58H62.2747V35.32C62.2747 36.1067 61.888 36.5 61.1147 36.5ZM62.2747 28.42H66.0547C66.7347 28.42 67.2614 28.2733 67.6347 27.98C68.008 27.6867 68.1947 27.2 68.1947 26.52C68.1947 25.8533 68.008 25.3733 67.6347 25.08C67.2614 24.7867 66.7347 24.64 66.0547 24.64H62.2747V28.42Z" fill="white"/>
<path d="M37.08 74.9C34.9467 74.9 33.28 74.3667 32.08 73.3C30.88 72.2333 30.0267 70.6333 29.52 68.5C29.04 66.3667 28.8 63.7 28.8 60.5C28.8 57.3 29.04 54.6333 29.52 52.5C30.0267 50.34 30.88 48.7267 32.08 47.66C33.28 46.5933 34.9467 46.06 37.08 46.06C39.2133 46.06 40.8667 46.5933 42.04 47.66C43.24 48.7267 44.08 50.34 44.56 52.5C45.0667 54.6333 45.32 57.3 45.32 60.5C45.32 63.7 45.0667 66.3667 44.56 68.5C44.08 70.6333 43.24 72.2333 42.04 73.3C40.8667 74.3667 39.2133 74.9 37.08 74.9ZM37.08 70.82C38.0667 70.82 38.84 70.5133 39.4 69.9C39.9867 69.26 40.4133 68.1933 40.68 66.7C40.9467 65.2067 41.08 63.14 41.08 60.5C41.08 57.8333 40.9467 55.7533 40.68 54.26C40.4133 52.7667 39.9867 51.7133 39.4 51.1C38.84 50.46 38.0667 50.14 37.08 50.14C36.0933 50.14 35.3067 50.46 34.72 51.1C34.1333 51.7133 33.7067 52.7667 33.44 54.26C33.2 55.7533 33.08 57.8333 33.08 60.5C33.08 63.14 33.2 65.2067 33.44 66.7C33.7067 68.1933 34.1333 69.26 34.72 69.9C35.3067 70.5133 36.0933 70.82 37.08 70.82ZM60.4381 74.5C59.1048 74.5 58.4381 73.7133 58.4381 72.14V68.38H49.8781C48.2781 68.38 47.4781 67.8333 47.4781 66.74C47.4781 66.1267 47.5448 65.5933 47.6781 65.14C47.8115 64.6867 48.0115 64.22 48.2781 63.74L57.5581 47.98C57.8781 47.3933 58.2515 46.98 58.6781 46.74C59.1315 46.5 59.6915 46.38 60.3581 46.38C61.7715 46.38 62.4781 47.1667 62.4781 48.74V64.62H64.0381C65.6115 64.62 66.3981 65.2467 66.3981 66.5C66.3981 67.7533 65.8248 68.38 64.6781 68.38H62.4781V72.14C62.4781 73.7133 61.7981 74.5 60.4381 74.5ZM51.7581 64.62H58.4381V53.18L51.7581 64.62Z" fill="white"/>
</svg>
