<svg width="93" height="93" viewBox="0 0 93 93" fill="none" xmlns="http://www.w3.org/2000/svg">
<rect width="93" height="93" rx="46.5" fill="#FF7F3E"/>
<path d="M32.184 35.724C31.3947 35.724 30.6587 35.5907 29.976 35.324C29.2933 35.0467 28.7067 34.588 28.216 33.948C28.0347 33.692 27.9707 33.4573 28.024 33.244C28.088 33.02 28.248 32.8387 28.504 32.7C28.7493 32.5507 28.9733 32.508 29.176 32.572C29.3787 32.6253 29.5813 32.764 29.784 32.988C30.072 33.2973 30.4133 33.5373 30.808 33.708C31.2133 33.8787 31.6933 33.964 32.248 33.964C32.9947 33.964 33.5173 33.8307 33.816 33.564C34.1253 33.2867 34.28 32.9133 34.28 32.444C34.28 32.1453 34.2107 31.8893 34.072 31.676C33.944 31.4627 33.6667 31.2653 33.24 31.084C32.824 30.892 32.1787 30.7 31.304 30.508C30.2693 30.2627 29.5013 29.8733 29 29.34C28.5093 28.8067 28.264 28.1293 28.264 27.308C28.264 26.6573 28.4187 26.0867 28.728 25.596C29.048 25.0947 29.4907 24.7053 30.056 24.428C30.632 24.1507 31.304 24.012 32.072 24.012C32.872 24.012 33.5707 24.1507 34.168 24.428C34.7653 24.7053 35.2667 25.0627 35.672 25.5C35.8747 25.724 35.9547 25.948 35.912 26.172C35.8693 26.396 35.7307 26.5987 35.496 26.78C35.2613 26.972 35.0373 27.0467 34.824 27.004C34.6107 26.9613 34.3973 26.8387 34.184 26.636C33.9173 26.3907 33.6133 26.188 33.272 26.028C32.9307 25.868 32.5253 25.788 32.056 25.788C31.5013 25.788 31.048 25.9107 30.696 26.156C30.3547 26.3907 30.184 26.748 30.184 27.228C30.184 27.4413 30.232 27.6493 30.328 27.852C30.4347 28.044 30.6587 28.2307 31 28.412C31.352 28.5933 31.8907 28.7693 32.616 28.94C33.896 29.228 34.8187 29.66 35.384 30.236C35.9493 30.812 36.232 31.5373 36.232 32.412C36.232 33.4787 35.8587 34.3 35.112 34.876C34.376 35.4413 33.4 35.724 32.184 35.724ZM41.7524 35.5C41.123 35.5 40.8084 35.1853 40.8084 34.556V26.012H38.3764C37.747 26.012 37.4324 25.7293 37.4324 25.164C37.4324 24.588 37.747 24.3 38.3764 24.3H45.0804C45.7204 24.3 46.0404 24.588 46.0404 25.164C46.0404 25.7293 45.7204 26.012 45.0804 26.012H42.6804V34.556C42.6804 35.1853 42.371 35.5 41.7524 35.5ZM48.5488 35.5C47.9194 35.5 47.6048 35.1853 47.6048 34.556V25.244C47.6048 24.6147 47.9194 24.3 48.5488 24.3H54.1488C54.7781 24.3 55.0928 24.588 55.0928 25.164C55.0928 25.7293 54.7781 26.012 54.1488 26.012H49.4448V28.924H53.6528C54.2821 28.924 54.5968 29.212 54.5968 29.788C54.5968 30.364 54.2821 30.652 53.6528 30.652H49.4448V33.788H54.3248C54.9541 33.788 55.2688 34.0707 55.2688 34.636C55.2688 35.212 54.9541 35.5 54.3248 35.5H48.5488ZM57.8918 35.5C57.2838 35.5 56.9798 35.1853 56.9798 34.556V25.244C56.9798 24.6147 57.2944 24.3 57.9238 24.3H62.0998C63.1451 24.3 63.9718 24.5453 64.5798 25.036C65.1984 25.5267 65.5078 26.3533 65.5078 27.516C65.5078 28.6787 65.1984 29.5107 64.5798 30.012C63.9718 30.5133 63.1451 30.764 62.0998 30.764H58.8198V34.556C58.8198 35.1853 58.5104 35.5 57.8918 35.5ZM58.8198 29.036H61.8438C62.3878 29.036 62.8091 28.9187 63.1078 28.684C63.4064 28.4493 63.5558 28.06 63.5558 27.516C63.5558 26.9827 63.4064 26.5987 63.1078 26.364C62.8091 26.1293 62.3878 26.012 61.8438 26.012H58.8198V29.036Z" fill="white"/>
<path d="M38.072 72.86C36.152 72.86 34.652 72.38 33.572 71.42C32.492 70.46 31.724 69.02 31.268 67.1C30.836 65.18 30.62 62.78 30.62 59.9C30.62 57.02 30.836 54.62 31.268 52.7C31.724 50.756 32.492 49.304 33.572 48.344C34.652 47.384 36.152 46.904 38.072 46.904C39.992 46.904 41.48 47.384 42.536 48.344C43.616 49.304 44.372 50.756 44.804 52.7C45.26 54.62 45.488 57.02 45.488 59.9C45.488 62.78 45.26 65.18 44.804 67.1C44.372 69.02 43.616 70.46 42.536 71.42C41.48 72.38 39.992 72.86 38.072 72.86ZM38.072 69.188C38.96 69.188 39.656 68.912 40.16 68.36C40.688 67.784 41.072 66.824 41.312 65.48C41.552 64.136 41.672 62.276 41.672 59.9C41.672 57.5 41.552 55.628 41.312 54.284C41.072 52.94 40.688 51.992 40.16 51.44C39.656 50.864 38.96 50.576 38.072 50.576C37.184 50.576 36.476 50.864 35.948 51.44C35.42 51.992 35.036 52.94 34.796 54.284C34.58 55.628 34.472 57.5 34.472 59.9C34.472 62.276 34.58 64.136 34.796 65.48C35.036 66.824 35.42 67.784 35.948 68.36C36.476 68.912 37.184 69.188 38.072 69.188ZM55.0623 72.716C52.7823 72.716 50.8263 71.924 49.1943 70.34C48.6663 69.836 48.4383 69.332 48.5103 68.828C48.5823 68.3 48.8823 67.88 49.4103 67.568C49.9623 67.232 50.4543 67.124 50.8863 67.244C51.3183 67.34 51.7983 67.592 52.3263 68C52.7103 68.312 53.1303 68.564 53.5863 68.756C54.0423 68.948 54.5343 69.044 55.0623 69.044C56.4063 69.044 57.4143 68.648 58.0863 67.856C58.7823 67.04 59.1303 65.912 59.1303 64.472C59.1303 62.912 58.8303 61.784 58.2303 61.088C57.6543 60.368 56.8383 60.008 55.7823 60.008C55.4223 60.008 55.0743 60.068 54.7383 60.188C54.4263 60.284 54.1383 60.416 53.8743 60.584C53.3943 60.848 52.9743 61.112 52.6143 61.376C52.2543 61.616 51.7983 61.736 51.2463 61.736C49.9263 61.736 49.2663 61.028 49.2663 59.612V49.424C49.2663 48.008 49.9863 47.3 51.4263 47.3H59.9583C61.3743 47.3 62.0823 47.888 62.0823 49.064C62.0823 50.24 61.3743 50.828 59.9583 50.828H53.1183V57.452C53.5263 57.164 53.9703 56.936 54.4503 56.768C54.9303 56.576 55.4103 56.48 55.8903 56.48C57.2343 56.48 58.4343 56.78 59.4903 57.38C60.5703 57.98 61.4223 58.868 62.0463 60.044C62.6943 61.22 63.0183 62.696 63.0183 64.472C63.0183 67.088 62.2863 69.116 60.8223 70.556C59.3583 71.996 57.4383 72.716 55.0623 72.716Z" fill="white"/>
</svg>
