<svg width="93" height="93" viewBox="0 0 93 93" fill="none" xmlns="http://www.w3.org/2000/svg">
<rect width="93" height="93" rx="46.5" fill="white"/>
<path d="M32.184 35.724C31.3947 35.724 30.6587 35.5907 29.976 35.324C29.2933 35.0467 28.7067 34.588 28.216 33.948C28.0347 33.692 27.9707 33.4573 28.024 33.244C28.088 33.02 28.248 32.8387 28.504 32.7C28.7493 32.5507 28.9733 32.508 29.176 32.572C29.3787 32.6253 29.5813 32.764 29.784 32.988C30.072 33.2973 30.4133 33.5373 30.808 33.708C31.2133 33.8787 31.6933 33.964 32.248 33.964C32.9947 33.964 33.5173 33.8307 33.816 33.564C34.1253 33.2867 34.28 32.9133 34.28 32.444C34.28 32.1453 34.2107 31.8893 34.072 31.676C33.944 31.4627 33.6667 31.2653 33.24 31.084C32.824 30.892 32.1787 30.7 31.304 30.508C30.2693 30.2627 29.5013 29.8733 29 29.34C28.5093 28.8067 28.264 28.1293 28.264 27.308C28.264 26.6573 28.4187 26.0867 28.728 25.596C29.048 25.0947 29.4907 24.7053 30.056 24.428C30.632 24.1507 31.304 24.012 32.072 24.012C32.872 24.012 33.5707 24.1507 34.168 24.428C34.7653 24.7053 35.2667 25.0627 35.672 25.5C35.8747 25.724 35.9547 25.948 35.912 26.172C35.8693 26.396 35.7307 26.5987 35.496 26.78C35.2613 26.972 35.0373 27.0467 34.824 27.004C34.6107 26.9613 34.3973 26.8387 34.184 26.636C33.9173 26.3907 33.6133 26.188 33.272 26.028C32.9307 25.868 32.5253 25.788 32.056 25.788C31.5013 25.788 31.048 25.9107 30.696 26.156C30.3547 26.3907 30.184 26.748 30.184 27.228C30.184 27.4413 30.232 27.6493 30.328 27.852C30.4347 28.044 30.6587 28.2307 31 28.412C31.352 28.5933 31.8907 28.7693 32.616 28.94C33.896 29.228 34.8187 29.66 35.384 30.236C35.9493 30.812 36.232 31.5373 36.232 32.412C36.232 33.4787 35.8587 34.3 35.112 34.876C34.376 35.4413 33.4 35.724 32.184 35.724ZM41.7524 35.5C41.123 35.5 40.8084 35.1853 40.8084 34.556V26.012H38.3764C37.747 26.012 37.4324 25.7293 37.4324 25.164C37.4324 24.588 37.747 24.3 38.3764 24.3H45.0804C45.7204 24.3 46.0404 24.588 46.0404 25.164C46.0404 25.7293 45.7204 26.012 45.0804 26.012H42.6804V34.556C42.6804 35.1853 42.371 35.5 41.7524 35.5ZM48.5488 35.5C47.9194 35.5 47.6048 35.1853 47.6048 34.556V25.244C47.6048 24.6147 47.9194 24.3 48.5488 24.3H54.1488C54.7781 24.3 55.0928 24.588 55.0928 25.164C55.0928 25.7293 54.7781 26.012 54.1488 26.012H49.4448V28.924H53.6528C54.2821 28.924 54.5968 29.212 54.5968 29.788C54.5968 30.364 54.2821 30.652 53.6528 30.652H49.4448V33.788H54.3248C54.9541 33.788 55.2688 34.0707 55.2688 34.636C55.2688 35.212 54.9541 35.5 54.3248 35.5H48.5488ZM57.8918 35.5C57.2838 35.5 56.9798 35.1853 56.9798 34.556V25.244C56.9798 24.6147 57.2944 24.3 57.9238 24.3H62.0998C63.1451 24.3 63.9718 24.5453 64.5798 25.036C65.1984 25.5267 65.5078 26.3533 65.5078 27.516C65.5078 28.6787 65.1984 29.5107 64.5798 30.012C63.9718 30.5133 63.1451 30.764 62.0998 30.764H58.8198V34.556C58.8198 35.1853 58.5104 35.5 57.8918 35.5ZM58.8198 29.036H61.8438C62.3878 29.036 62.8091 28.9187 63.1078 28.684C63.4064 28.4493 63.5558 28.06 63.5558 27.516C63.5558 26.9827 63.4064 26.5987 63.1078 26.364C62.8091 26.1293 62.3878 26.012 61.8438 26.012H58.8198V29.036Z" fill="#FF7F3E"/>
<path d="M37.572 72.86C35.652 72.86 34.152 72.38 33.072 71.42C31.992 70.46 31.224 69.02 30.768 67.1C30.336 65.18 30.12 62.78 30.12 59.9C30.12 57.02 30.336 54.62 30.768 52.7C31.224 50.756 31.992 49.304 33.072 48.344C34.152 47.384 35.652 46.904 37.572 46.904C39.492 46.904 40.98 47.384 42.036 48.344C43.116 49.304 43.872 50.756 44.304 52.7C44.76 54.62 44.988 57.02 44.988 59.9C44.988 62.78 44.76 65.18 44.304 67.1C43.872 69.02 43.116 70.46 42.036 71.42C40.98 72.38 39.492 72.86 37.572 72.86ZM37.572 69.188C38.46 69.188 39.156 68.912 39.66 68.36C40.188 67.784 40.572 66.824 40.812 65.48C41.052 64.136 41.172 62.276 41.172 59.9C41.172 57.5 41.052 55.628 40.812 54.284C40.572 52.94 40.188 51.992 39.66 51.44C39.156 50.864 38.46 50.576 37.572 50.576C36.684 50.576 35.976 50.864 35.448 51.44C34.92 51.992 34.536 52.94 34.296 54.284C34.08 55.628 33.972 57.5 33.972 59.9C33.972 62.276 34.08 64.136 34.296 65.48C34.536 66.824 34.92 67.784 35.448 68.36C35.976 68.912 36.684 69.188 37.572 69.188ZM55.9663 72.86C54.9343 72.86 53.9383 72.692 52.9783 72.356C52.0423 71.996 51.2023 71.384 50.4583 70.52C49.7143 69.632 49.1383 68.396 48.7303 66.812C48.3223 65.204 48.1423 63.14 48.1903 60.62C48.2623 55.868 49.0303 52.4 50.4943 50.216C51.9583 48.008 54.0343 46.904 56.7223 46.904C57.6343 46.904 58.5103 47.084 59.3503 47.444C60.1903 47.78 60.9463 48.248 61.6183 48.848C62.1703 49.304 62.4223 49.784 62.3743 50.288C62.3503 50.792 62.1103 51.224 61.6543 51.584C61.1743 51.944 60.7303 52.088 60.3223 52.016C59.9143 51.92 59.4703 51.68 58.9903 51.296C58.3183 50.768 57.5623 50.504 56.7223 50.504C55.1143 50.504 53.9143 51.248 53.1223 52.736C52.3543 54.224 51.9463 56.432 51.8983 59.36C52.3063 58.76 52.8823 58.292 53.6263 57.956C54.3943 57.596 55.1623 57.416 55.9303 57.416C57.2743 57.416 58.4743 57.728 59.5303 58.352C60.5863 58.952 61.4143 59.816 62.0143 60.944C62.6383 62.048 62.9503 63.368 62.9503 64.904C62.9503 66.44 62.6623 67.808 62.0863 69.008C61.5103 70.208 60.6943 71.156 59.6383 71.852C58.6063 72.524 57.3823 72.86 55.9663 72.86ZM55.7143 69.188C56.7703 69.188 57.5863 68.792 58.1623 68C58.7623 67.208 59.0623 66.176 59.0623 64.904C59.0623 63.704 58.7623 62.744 58.1623 62.024C57.5863 61.28 56.8183 60.908 55.8583 60.908C54.7543 60.908 53.8903 61.28 53.2663 62.024C52.6423 62.768 52.3543 63.74 52.4023 64.94C52.4503 66.308 52.7623 67.364 53.3383 68.108C53.9143 68.828 54.7063 69.188 55.7143 69.188Z" fill="#FF7F3E"/>
</svg>
