<svg width="75" height="74" viewBox="0 0 75 74" fill="none" xmlns="http://www.w3.org/2000/svg">
<path d="M52.7435 11.2519L52.9531 11.5125L64.9283 28.4482C65.2949 28.9696 65.4626 29.6052 65.401 30.2396C65.3394 30.8741 65.0526 31.4655 64.5926 31.9067C64.1325 32.3479 63.5296 32.6097 62.8931 32.6446C62.2566 32.6796 61.6287 32.4854 61.123 32.0972L51.3562 39.001L45.9013 48.3383C45.7575 48.5847 45.5751 48.8065 45.3611 48.9951L45.141 49.1738L40.5222 52.4397C39.9917 52.8142 39.3428 52.9822 38.6973 52.9123C38.0518 52.8423 37.4539 52.5393 37.0159 52.06L36.8037 51.799L30.722 43.2014L19.043 51.4572C18.4891 51.8474 17.8075 52.0122 17.1366 51.9181C16.4656 51.8239 15.8557 51.4779 15.4306 50.9503C15.0055 50.4228 14.7972 49.7532 14.8479 49.0776C14.8986 48.402 15.2046 47.771 15.7037 47.3128L15.9643 47.1032L27.6411 38.8443L21.5626 30.2444C21.1877 29.7142 21.0192 29.0655 21.0886 28.4198C21.158 27.7742 21.4607 27.1761 21.9397 26.7377L22.2002 26.5281L26.8191 23.2621C27.0515 23.0971 27.3089 22.9705 27.5815 22.887L27.858 22.8208L38.4775 20.7874L48.2413 13.8858C48.0482 13.3057 48.0604 12.6769 48.2757 12.1047C48.4911 11.5325 48.8965 11.0516 49.4241 10.7427C49.9517 10.4338 50.5694 10.3155 51.1738 10.4078C51.7782 10.5 52.3321 10.7997 52.7435 11.2519Z" fill="#FF7F3E"/>
</svg>
