<svg width="50" height="70" viewBox="0 0 50 70" fill="none" xmlns="http://www.w3.org/2000/svg">
<path d="M8.33325 32.292V12.5003C8.33325 10.6601 8.81103 9.1927 9.76659 8.09826C10.7221 7.00381 11.9805 6.17048 13.5416 5.59826C15.1027 5.02604 16.8826 4.64409 18.8812 4.45242C20.8798 4.26076 22.9194 4.16562 24.9999 4.16701C27.2916 4.16701 29.4534 4.26284 31.4853 4.45451C33.5173 4.64617 35.2881 5.02812 36.7978 5.60034C38.3076 6.17256 39.4964 7.0059 40.3645 8.10034C41.2326 9.19478 41.6666 10.6615 41.6666 12.5003V32.292C41.6666 34.3406 40.9638 36.0684 39.5583 37.4753C38.1527 38.8823 36.4249 39.5851 34.3749 39.5837L37.4999 42.7087V43.7503H33.3333L29.1666 39.5837H20.8333L16.6666 43.7503H12.4999V42.7087L15.6249 39.5837C13.5763 39.5837 11.8485 38.8809 10.4416 37.4753C9.03464 36.0698 8.33187 34.342 8.33325 32.292ZM12.4999 20.8337H22.9166V14.5837H12.4999V20.8337ZM27.0833 20.8337H37.4999V14.5837H27.0833V20.8337ZM17.7083 33.3337C18.611 33.3337 19.3576 33.0385 19.9478 32.4483C20.5381 31.858 20.8333 31.1115 20.8333 30.2087C20.8333 29.3059 20.5381 28.5594 19.9478 27.9691C19.3576 27.3788 18.611 27.0837 17.7083 27.0837C16.8055 27.0837 16.0589 27.3788 15.4687 27.9691C14.8784 28.5594 14.5833 29.3059 14.5833 30.2087C14.5833 31.1115 14.8784 31.858 15.4687 32.4483C16.0589 33.0385 16.8055 33.3337 17.7083 33.3337ZM32.2916 33.3337C33.1944 33.3337 33.9409 33.0385 34.5312 32.4483C35.1214 31.858 35.4166 31.1115 35.4166 30.2087C35.4166 29.3059 35.1214 28.5594 34.5312 27.9691C33.9409 27.3788 33.1944 27.0837 32.2916 27.0837C31.3888 27.0837 30.6423 27.3788 30.052 27.9691C29.4617 28.5594 29.1666 29.3059 29.1666 30.2087C29.1666 31.1115 29.4617 31.858 30.052 32.4483C30.6423 33.0385 31.3888 33.3337 32.2916 33.3337Z" fill="#5D4A3A"/>
<path d="M16.1172 56.5469V55.8438H11.2422V54.6719H22.7578V55.8438H17.7812V56.5469H24.3125V59.7891H22.6484V57.6328H17.7812V61.0391H16.1172V57.6328H11.3516V59.7891H9.6875V56.5469H16.1172ZM17.7031 67.0391V67.4844C17.7031 67.7344 17.7708 67.888 17.9062 67.9453C18.1094 68.0339 18.8516 68.0781 20.1328 68.0781C21.3359 68.0781 22.125 68.0469 22.5 67.9844C22.8021 67.9323 22.9818 67.737 23.0391 67.3984C23.0859 67.1172 23.1198 66.7526 23.1406 66.3047L24.7109 66.7969C24.6745 67.7969 24.526 68.4688 24.2656 68.8125C24.0677 69.0729 23.7266 69.2318 23.2422 69.2891C22.4401 69.3932 21.2812 69.4453 19.7656 69.4453C18.1771 69.4453 17.1901 69.3932 16.8047 69.2891C16.4505 69.1953 16.2266 69.0052 16.1328 68.7188C16.0807 68.5625 16.0547 68.3594 16.0547 68.1094V67.0391H12.7578V67.7891H11.1094V61.4688H22.7266V67.0391H17.7031ZM16.0547 62.5859H12.7578V63.6484H16.0547V62.5859ZM17.7031 62.5859V63.6484H21.0625V62.5859H17.7031ZM16.0547 64.7812H12.7578V65.8906H16.0547V64.7812ZM17.7031 64.7812V65.8906H21.0625V64.7812H17.7031ZM12.1484 58.2578H15.3672V59.1875H12.1484V58.2578ZM12.1484 59.8047H15.3672V60.7344H12.1484V59.8047ZM18.5391 58.2578H21.8438V59.1875H18.5391V58.2578ZM18.5391 59.8047H21.8438V60.7344H18.5391V59.8047ZM32.0859 58.2422V57.1641H25.7969V55.7578H32.0859V54.3203H33.8125V55.7578H40.2031V57.1641H33.8125V58.2422H39.1406V64.4609H33.8125V65.6094H40.6016V67.1172H33.8125V69.5234H32.0859V67.1172H25.3984V65.6094H32.0859V64.4609H26.8516V58.2422H32.0859ZM32.0859 59.5391H28.5312V60.6719H32.0859V59.5391ZM33.8125 59.5391V60.6719H37.4453V59.5391H33.8125ZM32.0859 61.9375H28.5312V63.1484H32.0859V61.9375ZM33.8125 61.9375V63.1484H37.4453V61.9375H33.8125Z" fill="#5D4A3A"/>
</svg>
