<svg width="43" height="36" viewBox="0 0 43 36" fill="none" xmlns="http://www.w3.org/2000/svg">
<path d="M1.52855 14.9562C0.984937 14.4023 0.745743 13.8375 0.876211 13.4139C1.00668 12.9903 1.99606 12.0236 3.80087 10.5139C5.60568 9.00415 9.25878 6.66893 14.8907 3.56256C20.5225 0.52135 27.5895 -0.608241 36.2983 0.314982C38.9837 1.21648 40.9843 2.90001 42.2998 5.31125C43.6806 7.72249 42.8108 12.5558 39.8753 19.8656C37.0376 25.4049 34.3413 29.2282 31.8515 31.4005C29.3617 33.6922 27.807 34.8979 27.1329 35.1368C26.4588 35.3758 26.0239 35.3649 25.7847 35.1151C25.5455 34.8653 25.4259 34.496 25.4368 34.0724C25.4368 33.7031 27.1873 31.7698 30.6773 28.5113C34.1021 25.1877 36.8745 20.5064 39.049 14.348C41.1691 8.24384 40.2993 4.312 36.581 2.66106C24.8171 1.07528 14.8363 4.3663 6.48634 12.3386C3.75738 14.6847 2.08304 15.5862 1.53942 14.9671L1.52855 14.9562Z" fill="#DC6B19"/>
</svg>
