<svg width="128" height="262" viewBox="0 0 128 262" fill="none" xmlns="http://www.w3.org/2000/svg">
<g clip-path="url(#clip0_448_97)">
<path d="M69.5286 14.9562C68.9849 14.4023 68.7457 13.8375 68.8762 13.4139C69.0067 12.9903 69.9961 12.0236 71.8009 10.5139C73.6057 9.00415 77.2588 6.66893 82.8907 3.56256C88.5225 0.52135 95.5895 -0.608241 104.298 0.314982C106.984 1.21648 108.984 2.90001 110.3 5.31125C111.681 7.72249 110.811 12.5558 107.875 19.8656C105.038 25.4049 102.341 29.2282 99.8515 31.4005C97.3617 33.6922 95.807 34.8979 95.1329 35.1368C94.4588 35.3758 94.0239 35.3649 93.7847 35.1151C93.5455 34.8653 93.4259 34.496 93.4368 34.0724C93.4368 33.7031 95.1873 31.7698 98.6773 28.5113C102.102 25.1877 104.875 20.5064 107.049 14.348C109.169 8.24384 108.299 4.312 104.581 2.66106C92.8171 1.07528 82.8363 4.3663 74.4863 12.3386C71.7574 14.6847 70.083 15.5862 69.5394 14.9671L69.5286 14.9562Z" fill="#FF7F3E"/>
<path d="M71.4421 66.5264C70.1809 66.7762 69.3872 66.6242 69.0719 66.1571C68.811 65.6901 68.7566 65.2882 69.0176 65.0384C69.1589 64.7126 70.083 64.1912 71.6813 63.6264C73.2143 63.0508 75.2691 62.095 77.8024 60.683C78.77 57.7938 79.5202 55.8822 80.14 54.7743C80.6836 53.7208 81.2924 53.1451 81.8904 53.0148C82.4884 52.8953 82.8145 53.2212 82.7384 53.9489C82.6623 54.6114 82.5862 55.2631 82.5101 55.7302C82.3688 56.1863 81.9556 57.2399 81.3359 58.9451C85.4022 56.6317 88.5334 54.7526 90.8709 53.5361C93.1324 52.2436 94.3936 51.8743 94.6545 52.2653C94.8502 52.7324 94.9698 53.2646 94.9589 53.7859C94.9589 54.3833 93.6108 55.2848 90.8166 56.6968C88.0224 58.1088 84.5541 59.977 80.4226 62.4208C78.8788 68.601 77.9437 73.4126 77.835 76.6493C77.6502 79.9512 77.7589 81.6673 78.096 81.7325C78.4221 81.8737 78.5526 82.1343 78.6178 82.6014C78.6178 83.1336 78.5417 83.5898 78.4656 83.9156C78.3243 84.2415 77.7915 84.6325 76.9326 85.0126C75.9324 85.4579 75.3344 85.6535 75.1387 85.5123C74.8777 85.4471 74.682 85.0452 74.5624 84.513C74.4429 83.9156 74.6059 81.537 75.0626 77.4531C75.454 73.4343 76.1063 69.0137 76.9109 64.2021C74.5081 65.4837 72.6489 66.3201 71.453 66.5047L71.4421 66.5264ZM115.736 57.2616C116.117 58.1305 116.04 58.7822 115.377 59.1732C114.649 59.5534 113.986 59.5534 113.398 59.2058C112.877 58.8691 110.68 59.4991 107.158 61.0957C103.494 62.8227 100.439 63.898 98.0467 64.5931C95.6548 65.2882 94.2631 65.3968 94.0783 64.995C93.8173 64.6583 93.8282 64.2673 93.8935 63.9414C94.0348 63.6156 94.2957 63.2897 94.6328 63.029C94.9698 62.8335 96.829 62.1384 100.221 60.9328C103.602 59.8575 108.125 58.3369 113.768 56.4361C114.562 56.1212 115.225 56.3927 115.736 57.2616ZM105.331 72.5002C104.766 70.6429 104.581 69.4482 104.788 69.0572C104.994 68.7313 105.516 68.8073 106.375 69.3396C107.223 69.8826 107.799 71.2729 108.299 73.5321C108.734 75.7804 108.886 78.7564 108.702 82.5145C109.756 82.7317 110.876 83.4051 112.115 84.4152C113.29 85.4254 114.007 86.4246 114.257 87.413C114.507 88.3362 114.431 88.8684 114.105 88.9988C113.703 89.1291 113.311 89.1834 112.974 89.1834C112.648 89.1834 112.192 88.6404 111.735 87.7171C111.289 86.7179 110.039 85.9793 108.136 85.3493C106.353 89.4224 103.483 91.8228 99.5036 92.4853C95.5895 93.1587 92.6866 92.9089 90.9253 91.6381C89.1531 90.4216 88.7182 88.6947 89.7402 86.4681C90.697 84.2415 92.6431 82.6122 95.6874 81.7325C98.5359 81.0482 101.906 81.0916 105.864 81.8845C106.125 77.5291 105.973 74.4227 105.342 72.5002H105.331ZM97.6879 84.1437C95.035 84.6976 93.3716 85.4036 92.6323 86.3812C91.8929 87.3587 91.8821 88.2819 92.4583 89.3464C95.2851 90.4434 97.7966 90.552 99.9167 89.7808C102.048 88.9553 103.918 87.261 105.277 84.5782C102.907 83.6875 100.33 83.5789 97.677 84.1329L97.6879 84.1437Z" fill="#FF7F3E"/>
<path d="M83.4994 137.962C81.4554 134.573 80.6182 132.531 80.7487 131.836C80.9335 131.141 81.9447 129.24 83.7386 126.025C85.5869 122.81 87.8375 119.704 90.6099 116.554C93.4367 113.404 94.9154 111.688 95.035 111.341C95.1546 111.047 95.5677 110.939 96.1439 111.069C96.7854 111.2 97.1225 111.493 97.2312 111.895C97.3399 112.297 96.0352 113.969 93.4476 116.945C90.8491 119.921 87.5222 124.918 83.4777 131.934C87.3808 139.244 91.2514 143.936 95.2307 145.967C99.2643 148.052 101.45 149.302 101.917 149.54C102.265 149.834 102.309 150.301 102.069 150.822C101.711 151.343 100.96 151.561 99.8514 151.485C98.7533 151.409 97.2529 150.637 95.3611 149.16C89.5009 145.131 85.4891 141.416 83.5103 137.973L83.4994 137.962ZM108.582 117.564C109.028 118.553 109.43 119.433 109.767 120.128C109.995 120.768 110.267 121.409 110.55 121.996C110.778 122.582 110.648 122.93 110.191 123.093C109.778 123.321 109.321 123.375 108.854 123.245C108.386 123.125 107.821 122.3 107.147 120.725C106.418 119.204 106.027 117.749 106.049 116.185C106.016 114.74 106.081 113.806 106.201 113.459C106.32 113.165 106.842 113.122 107.658 113.187C108.528 113.198 108.81 113.904 108.386 115.11C108.093 115.685 108.136 116.554 108.582 117.553V117.564ZM116.258 120.573C116.486 120.573 116.606 120.812 116.595 121.388C116.595 121.963 116.062 122.246 115.073 122.18C114.083 122.17 113.29 120.877 112.811 118.325C112.387 115.772 112.3 113.676 112.55 112.003C112.866 110.331 113.518 109.527 114.388 109.712C115.192 109.896 115.421 110.363 115.127 111.058C114.616 114.013 114.866 117.206 115.921 120.584C115.921 120.584 116.04 120.584 116.269 120.584L116.258 120.573Z" fill="#FF7F3E"/>
<path d="M120.552 168.298C118.487 166.897 117.073 165.702 116.432 164.519C115.801 163.4 115.812 162.618 116.464 162.303C117.128 161.988 117.704 162.129 118.15 162.781C118.53 163.443 120.335 164.899 123.434 167.288C126.532 169.678 128.011 171.264 128 172.111C128 172.828 127.848 173.414 127.522 173.729C127.195 174.055 126.673 174.044 126.086 173.577C124.423 171.47 122.618 169.613 120.552 168.287V168.298Z" fill="#FF7F3E"/>
<path d="M7.20826 69.2201C7.96932 66.0377 8.57818 64.3541 8.84998 64.0935C9.17615 63.8979 9.89373 64.2347 10.9918 65.1036C15.6669 61.78 21.5815 59.1949 28.7246 57.2182C31.421 51.3312 33.0953 48.29 33.4867 48.0294C33.9433 47.8447 34.4 47.7144 34.7261 47.7252C35.0523 47.7252 35.3132 47.9316 35.4328 48.3878C35.5524 48.844 34.5413 51.505 32.3777 56.2949C41.9997 54.0901 47.6533 55.3391 49.4799 60.129C51.176 64.9081 51.7305 71.6965 51.0129 80.4834C50.2953 89.3355 49.5669 94.9943 49.0015 97.4598C48.3818 99.9254 47.6425 101.413 46.914 101.728C46.2617 102.043 45.7289 102.163 45.5441 102.033C45.2832 101.902 45.5006 100.794 46.1203 98.5243C46.6748 96.2542 47.2619 92.0834 47.7403 85.7729C48.1535 79.5819 48.3057 73.5972 48.197 67.9167C48.0882 62.247 46.5009 58.7713 43.4566 57.6852C39.0207 57.8155 34.9001 58.2826 31.1057 59.0646C28.4093 64.8863 26.2022 69.1658 24.3322 71.8703C30.8665 71.5118 35.1719 71.4358 37.1181 71.5987C40.445 71.7073 41.4126 72.2504 40.2275 73.2062C38.912 74.162 37.5964 74.6725 36.1613 74.9115C30.3663 73.9122 25.8652 73.847 22.6579 74.8463C19.7223 79.4298 18.1132 82.2104 17.7762 83.177C17.4391 84.1546 16.9716 84.665 16.5802 84.6542C16.0583 84.6542 15.5365 84.3826 15.0907 83.9156C14.6449 83.4486 15.1233 82.0257 16.5259 79.571C17.8631 77.2467 18.7329 75.889 18.9939 75.498C19.1896 75.1721 19.9289 74.01 21.2662 72.0766C22.473 70.1433 24.6149 66.0594 27.4417 59.977C20.7661 61.7691 15.2429 64.6908 10.807 68.7313C9.65454 72.0332 9.0022 76.3343 8.92609 81.4826C8.84998 86.631 9.24139 91.334 10.0894 95.5156C10.9375 99.7625 10.9701 102.043 10.3177 102.489C9.5893 102.934 8.87173 102.923 8.29549 102.586C7.78449 102.185 7.28437 100.164 7.01256 96.4389C6.67552 92.7894 6.40371 89.2594 6.2515 85.8055L5.88184 84.0459C5.97969 77.3336 6.4472 72.3916 7.20826 69.2092V69.2201Z" fill="#FF7F3E"/>
<path d="M5.50127 149.942C4.6641 143.654 4.82719 137.984 6.0014 132.792C7.17561 127.6 7.86057 124.907 8.07802 124.668C8.29546 124.429 8.81734 124.407 9.65451 124.603C10.4917 124.798 10.2416 127.6 8.92606 133.042C7.61051 138.483 7.32783 143.958 8.08889 149.519C8.78472 155.069 9.2631 157.925 9.5784 158.078C9.8937 158.24 10.1873 158.653 10.5134 159.337C10.9157 159.957 10.6765 160.532 9.98068 160.923C9.23049 161.314 8.63251 161.336 8.20849 160.967C7.26259 159.837 6.26234 156.22 5.4904 149.942H5.50127ZM12.4813 130.533C13.3946 129.045 16.1997 126.927 20.94 124.331C25.6151 121.724 30.4315 120.508 35.4546 120.682C40.5428 120.855 44.533 121.659 47.6859 123.039C50.828 124.483 52.7198 126.156 53.4048 128.111C54.0245 130.001 54.3833 133.487 54.405 138.462C54.4377 143.436 53.1112 148.096 50.6432 152.462C48.1752 156.763 46.6748 158.99 46.3378 159.153C46.0007 159.316 45.468 159.337 44.6199 159.337C43.7719 159.337 40.7168 159.783 35.3458 160.63C29.964 161.542 24.8214 162.726 19.7767 164.258C14.7319 165.789 12.0247 166.137 11.568 165.376C11.1114 164.551 11.9051 163.769 13.7969 163.02C15.6887 162.335 19.4505 161.217 25.0062 159.805C30.562 158.382 37.4768 157.154 45.7398 156.166C51.513 147.705 53.1547 138.56 50.9259 128.632C49.8278 126.97 46.2943 125.352 40.3906 124.059C34.4217 122.691 27.7026 123.951 20.2876 127.948C16.9933 129.751 14.9928 131.673 14.3622 133.715C13.7316 135.757 12.851 136.007 11.7964 134.606C11.3071 133.455 11.4919 132.097 12.4704 130.544L12.4813 130.533ZM10.035 152.028C10.0024 151.637 9.99155 150.974 10.0677 150.138C10.1438 149.291 12.1443 148.096 16.1344 146.543C20.0702 144.924 24.3865 143.393 28.9094 141.829C29.714 132.488 30.3772 127.828 30.9099 127.818C31.4318 127.796 31.8776 127.97 32.1711 128.317C32.5299 128.676 32.6169 129.273 32.4647 130.24C32.3125 131.206 32.0841 134.649 31.8123 140.775C36.5092 139.483 40.0318 138.798 42.3259 138.744C44.6852 138.69 45.892 139.113 46.1421 140.058C46.3921 140.992 46.1421 141.622 45.4462 142.09C44.7504 142.557 44.1633 142.567 43.5436 142.122C42.9238 141.677 41.6844 141.633 39.76 141.927C37.9008 142.22 35.0849 142.958 31.3774 144.218C31.1056 148.183 30.8447 151.105 30.5403 153.103C30.2467 155.036 29.9423 156.188 29.7031 156.763C29.453 157.328 29.1703 157.632 28.7028 157.719C28.2353 157.806 27.92 157.654 27.6265 157.23C27.3329 156.818 27.6917 152.723 28.6267 144.892C22.2555 146.63 16.4171 149.139 10.9701 152.267C10.4264 152.549 10.035 152.517 10.0024 152.049L10.035 152.028Z" fill="#FF7F3E"/>
<path d="M16.4933 202.914C17.0695 203.066 17.1891 203.337 16.9825 203.652C16.7759 203.967 16.2758 204.793 15.493 206.259C15.4713 206.78 15.4495 207.302 15.4278 207.758C19.6897 210.299 22.2991 211.918 23.245 212.678C24.2561 213.373 24.8106 214.177 24.8432 214.97C24.8758 215.752 24.2778 215.926 22.9297 215.404C21.6467 214.894 19.157 213.536 15.406 211.353C14.5689 218.359 14.1992 223.692 14.047 227.145C13.96 230.665 13.7969 232.685 13.449 233.25C13.1011 233.825 12.5031 233.858 11.6768 233.369C10.9158 232.88 10.6766 232.283 10.981 231.512C11.2093 230.675 11.5137 228.34 11.7638 224.311C12.003 220.346 12.2748 215.85 12.4922 210.842C9.86114 214.123 8.12156 216.718 7.05607 218.619C6.05582 220.596 5.34912 221.671 5.01207 221.986C4.67503 222.301 4.27276 222.475 3.94659 222.464C3.62042 222.453 3.30512 222.236 2.93546 221.769C2.5658 221.291 2.65278 220.716 3.20727 220.086C3.69652 219.39 4.53369 218.12 5.65354 216.48C6.70816 214.829 9.16531 210.962 12.8945 204.999C13.3403 202.218 13.6012 199.351 13.536 196.484C9.15443 198.178 6.08844 199.547 4.40322 200.578C2.79412 201.545 1.78299 202.153 1.58729 202.349C1.44595 202.533 1.06542 202.457 0.489183 202.099C-0.0870503 201.751 -0.13054 201.284 0.358715 200.654C0.84797 199.959 2.00044 199.101 4.06618 198.08C6.07756 196.994 9.26316 195.702 13.6447 194.072C13.6012 189.239 13.6121 185.981 13.6882 184.286C13.7643 182.592 13.873 181.625 14.0144 181.43C14.1557 181.245 14.4928 180.995 14.9603 180.756C15.4278 180.517 15.8844 180.604 16.1888 180.941C16.5694 181.288 16.6455 185.264 16.5041 192.823C20.2333 191.161 23.158 189.988 25.2129 189.358C27.2569 188.794 28.4528 188.522 28.7138 188.533C28.9747 188.544 29.2248 188.685 29.3552 188.891C29.5509 189.033 29.3878 189.543 28.8442 190.238C28.2245 190.933 27.0285 191.531 25.2455 191.965C23.4624 192.476 20.5269 193.714 16.3954 195.615C15.9279 200.361 15.9496 202.772 16.5259 202.924L16.4933 202.914ZM39.1838 182.983C40.1732 182.7 41.1082 182.353 42.0432 181.94C42.9783 181.527 43.7719 181.169 44.5113 180.68C45.2506 180.191 46.1965 179.453 47.4142 178.53C48.6319 177.541 49.4364 177.052 49.9583 177.074C50.4802 177.096 50.9912 177.248 51.4369 177.465C51.8175 177.682 51.9371 178.008 51.6 178.323C51.3282 178.638 50.7194 179.127 49.6974 179.931C48.7515 180.734 46.6096 181.951 43.3914 183.83C43.0652 185.318 42.4781 186.795 41.8258 188.066C41.1735 189.402 40.6081 190.488 40.2493 191.324C44.3482 190.206 46.8597 189.597 47.8491 189.38C48.7732 189.163 50.2845 188.967 52.1219 188.783C53.9593 188.609 55.1988 188.663 55.6337 189C56.0686 189.337 56.1229 189.804 55.6337 190.369C55.1444 190.999 54.4812 191.227 53.7093 191.129C52.8612 191.031 52.0784 190.988 51.3608 191.02C50.7085 191.053 49.98 191.216 49.1211 191.444C48.2622 191.672 47.001 192.063 45.218 192.508C45.5985 192.856 46.0878 193.399 46.7836 194.018C47.4794 194.637 48.8493 196.071 50.9586 198.373C53.1439 200.752 55.1879 203 57.0471 205.303C58.9062 207.606 59.9391 209.213 60.037 210.071C60.1239 210.984 59.9174 211.375 59.4607 211.288C59.0041 211.201 58.5583 210.918 58.1887 210.582C57.7429 210.234 56.3186 208.67 53.8289 205.89C51.3391 203.109 49.6104 201.002 48.4253 199.709C47.3055 198.352 46.3161 197.266 45.5115 196.321C44.7722 195.376 43.8915 194.485 42.9565 193.464C41.1082 193.844 39.7274 194.105 38.7381 194.322C37.5965 196.625 35.7264 200.448 33.1279 205.879C30.5403 211.309 28.779 214.101 27.9853 214.394C27.1264 214.687 26.6698 214.666 26.6154 214.329C26.561 214.003 26.5828 213.482 26.7459 212.83C26.909 212.124 28.0505 209.821 30.0511 205.998C32.0516 202.24 33.976 198.536 35.6286 195.028C35.0306 195.191 34.3021 195.365 33.3236 195.517C32.3342 195.669 30.7578 196.06 28.5072 196.538C26.2566 197.016 24.8867 197.222 24.5605 197.146C24.2344 197.07 23.9299 196.723 23.7016 195.995C23.5385 195.267 27.9744 193.964 37.0637 192.085C38.7163 188.631 39.8035 186.339 40.3145 185.057C39.1838 185.524 37.7922 185.991 36.2048 186.502C34.6174 186.947 33.5085 186.839 32.8235 186.285C32.2038 185.666 32.5517 185.036 34.0847 184.384C36.4657 183.776 38.1836 183.265 39.1729 182.983H39.1838ZM45.131 215.078C48.023 214.687 50.4476 214.405 52.4807 214.231C54.4486 213.992 56.0686 214.199 57.3515 214.709C58.5692 215.285 59.2542 216.099 59.3955 217.153C59.5477 218.141 59.4825 221.074 59.1998 225.886C58.9171 230.762 58.7214 233.76 58.6018 234.922C58.4822 236.16 58.0473 236.986 57.4385 237.605C56.884 238.235 56.3512 238.474 55.9055 238.387C55.4488 238.3 55.3401 237.974 55.4923 237.453C55.6445 236.943 55.7967 236.421 55.949 236.041C56.1012 235.596 56.1882 235.074 56.2099 234.553C56.2316 234.032 56.4165 231.501 56.6774 226.939C56.9492 222.388 56.9601 219.119 56.7209 217.153C54.6552 216.61 52.5024 216.512 50.2084 216.86C47.9795 217.153 44.4243 217.642 39.5644 218.413C34.7044 219.108 30.1163 219.488 25.7347 219.553C25.626 220.531 25.2998 222.008 24.8106 224.213C24.2561 226.472 24.0821 228.938 24.2126 231.751C24.354 234.564 24.1583 235.987 23.6907 236.095C23.2232 236.204 22.8536 235.932 22.6796 235.335C22.5057 234.803 22.2882 233.814 22.1469 232.576C22.0055 231.392 21.9294 230.154 21.9077 229.111C21.8968 228.004 21.9512 226.7 22.1469 225.277C22.3426 223.854 22.5491 222.03 22.9732 219.901C23.3972 217.761 24.354 216.827 25.8326 217.153C35.8678 216.165 42.2281 215.469 45.1201 215.078H45.131ZM34.6718 212.526C34.4217 210.821 34.3565 209.376 34.4652 208.279C34.574 207.236 35.0415 205.564 35.8569 203.381C36.6723 201.197 37.3247 201.295 37.803 203.663C38.3358 203.424 39.1295 203.131 40.195 202.794C41.3257 202.392 42.3803 202.045 43.3044 201.762C44.2938 201.48 45.4245 201.143 46.6857 200.741C47.8708 200.405 48.8385 200.839 49.4256 202.164C50.0235 203.5 50.0996 204.608 49.6648 205.564C49.2299 206.454 48.9798 207.812 48.9689 209.387C48.9689 211.016 48.1644 211.375 46.6966 210.462C43.0979 211.994 40.2493 213.112 38.1292 213.797C36.0635 214.687 34.911 214.242 34.6609 212.537L34.6718 212.526ZM31.6819 232.685C31.3014 230.969 31.1709 229.6 31.2796 228.427C31.3992 227.254 31.8667 225.581 32.8126 223.409C33.6933 221.226 34.4109 221.324 35.0088 223.833C35.8025 223.605 36.7375 223.257 37.9335 222.79C39.0642 222.323 40.2493 222.041 41.3692 221.899C42.4238 221.747 43.6741 221.345 44.9462 220.824C46.2726 220.292 47.3707 220.607 48.4253 221.823C49.4799 222.975 49.6321 224.159 49.1211 225.31C48.5449 226.526 48.2187 227.884 48.1535 229.437C48.0883 231.001 47.2185 231.414 45.5441 230.751C41.3474 232.652 38.1075 233.619 35.5525 233.76C33.291 234.77 32.0624 234.455 31.6819 232.674V232.685ZM37.2051 211.277C40.5755 210.451 43.6306 209.344 46.2943 208.16C46.9575 206.433 47.3381 205.205 47.3163 204.358C47.2837 203.511 46.7836 203.229 45.6637 203.305C44.6091 203.457 41.891 204.575 37.4225 206.596C36.8898 208.203 36.8245 209.767 37.2159 211.288L37.2051 211.277ZM34.4217 231.305C38.5097 230.513 42.1411 229.633 45.2615 228.46C46.0551 226.733 46.3813 225.375 46.3487 224.528C46.3269 223.616 45.6202 223.257 44.3808 223.398C43.1957 223.539 39.8797 224.702 34.6283 226.744C34.0303 228.416 33.9651 229.98 34.4217 231.305Z" fill="#FF7F3E"/>
<path d="M61.1243 257.72C60.1023 255.885 60.2654 253.865 61.6027 251.605C63.0052 249.477 64.984 247.88 67.7455 246.674C70.5071 245.545 73.1056 245.968 75.6824 247.902C77.0958 249.748 77.5198 251.964 77.0196 254.571C73.9319 260.458 70.1157 262.815 65.3645 261.761C63.5488 260.957 62.2007 259.567 61.1134 257.72H61.1243ZM67.2345 259.306C68.3435 259.382 69.3873 259.078 70.6376 258.242C71.7574 257.351 72.8882 256.254 73.8884 254.701C74.8234 253.213 74.9104 251.649 74.2146 250.204C73.584 248.695 72.3554 248.228 70.7789 248.716C69.072 249.281 67.4302 250.172 65.8429 251.443C64.1251 252.789 63.3205 254.408 63.4836 256.558C64.9622 258.209 66.1256 259.143 67.2237 259.285L67.2345 259.306Z" fill="#FF7F3E"/>
</g>
<defs>
<clipPath id="clip0_448_97">
<rect width="128" height="262" fill="white"/>
</clipPath>
</defs>
</svg>
