<svg width="298" height="184" viewBox="0 0 298 184" fill="none" xmlns="http://www.w3.org/2000/svg">
<path d="M0.707832 32.7517C0.147929 32.1793 -0.0984282 31.5958 0.0359484 31.1581C0.170325 30.7204 1.18935 29.7216 3.04823 28.1617C4.9071 26.6017 8.66965 24.1889 14.4702 20.9793C20.2708 17.837 27.5496 16.6698 36.5192 17.6237C39.2851 18.5552 41.3456 20.2947 42.7005 22.7861C44.1227 25.2775 43.2269 30.2715 40.2034 37.8242C37.2807 43.5477 34.5036 47.4981 31.9392 49.7426C29.3749 52.1105 27.7735 53.3562 27.0793 53.6031C26.385 53.85 25.9371 53.8388 25.6907 53.5807C25.4443 53.3225 25.3212 52.941 25.3324 52.5033C25.3324 52.1217 27.1352 50.1241 30.7298 46.7574C34.2572 43.3233 37.1127 38.4864 39.3523 32.1232C41.5359 25.8162 40.6401 21.7536 36.8104 20.0478C24.6941 18.4093 14.4143 21.8097 5.81415 30.0471C3.00343 32.4711 1.27893 33.4026 0.71903 32.7629L0.707832 32.7517Z" fill="#FF7F3E"/>
<path d="M58.4676 21.3497C57.1686 21.6078 56.3512 21.4507 56.0264 20.9681C55.7577 20.4855 55.7017 20.0703 55.9704 19.8122C56.116 19.4755 57.0678 18.9368 58.7139 18.3533C60.2929 17.7585 62.4093 16.7709 65.0184 15.312C66.0151 12.3268 66.7877 10.3516 67.426 9.20691C67.9859 8.11833 68.613 7.52353 69.2289 7.38886C69.8448 7.26541 70.1807 7.60209 70.1024 8.354C70.024 9.03857 69.9456 9.71192 69.8672 10.1945C69.7216 10.6658 69.2961 11.7544 68.6578 13.5164C72.8459 11.126 76.0709 9.18446 78.4785 7.92754C80.8077 6.59206 82.1067 6.2105 82.3754 6.61451C82.577 7.09708 82.7002 7.64698 82.689 8.18566C82.689 8.8029 81.3004 9.73437 78.4225 11.1933C75.5446 12.6522 71.9724 14.5825 67.7172 17.1076C66.1271 23.4932 65.164 28.4647 65.052 31.8091C64.8617 35.2207 64.9737 36.9939 65.3208 37.0612C65.6567 37.2071 65.7911 37.4764 65.8583 37.959C65.8583 38.5089 65.7799 38.9802 65.7015 39.3169C65.556 39.6536 65.0072 40.0576 64.1226 40.4504C63.0924 40.9105 62.4765 41.1125 62.2749 40.9666C62.0062 40.8993 61.8046 40.4841 61.6814 39.9342C61.5583 39.3169 61.7262 36.8592 62.1965 32.6395C62.5997 28.4872 63.2716 23.9196 64.1002 18.9481C61.6254 20.2723 59.7106 21.1364 58.4788 21.3272L58.4676 21.3497ZM104.088 11.7769C104.48 12.6747 104.402 13.348 103.719 13.752C102.969 14.1448 102.286 14.1448 101.681 13.7857C101.143 13.4378 98.8814 14.0887 95.2532 15.7384C91.4795 17.5228 88.3328 18.6338 85.8692 19.3521C83.4057 20.0703 81.9723 20.1825 81.7819 19.7673C81.5132 19.4194 81.5244 19.0154 81.5916 18.6787C81.7371 18.342 82.0059 18.0054 82.353 17.736C82.7002 17.534 84.615 16.8158 88.1088 15.5701C91.5914 14.459 96.2498 12.8879 102.062 10.924C102.879 10.5985 103.562 10.8791 104.088 11.7769ZM93.3719 27.5221C92.7896 25.603 92.5993 24.3685 92.812 23.9645C93.0248 23.6278 93.5623 23.7064 94.4469 24.2563C95.3204 24.8174 95.9139 26.2539 96.429 28.5882C96.8769 30.9112 97.0337 33.9862 96.8433 37.8692C97.9295 38.0937 99.0829 38.7895 100.36 39.8331C101.569 40.8768 102.308 41.9093 102.566 42.9306C102.823 43.8845 102.745 44.4344 102.409 44.5691C101.994 44.7037 101.591 44.7598 101.244 44.7598C100.908 44.7598 100.438 44.1987 99.9676 43.2448C99.5085 42.2123 98.2207 41.4492 96.261 40.7983C94.4245 45.0067 91.4683 47.4869 87.3698 48.1715C83.3385 48.8673 80.3486 48.6092 78.5345 47.2961C76.7092 46.0392 76.2613 44.2548 77.3139 41.9542C78.2993 39.6536 80.3038 37.9702 83.4393 37.0612C86.3731 36.3542 89.8445 36.3991 93.9206 37.2183C94.1894 32.7181 94.0326 29.5084 93.3831 27.5221H93.3719ZM85.5109 39.5526C82.7786 40.1249 81.0653 40.8544 80.3038 41.8644C79.5423 42.8745 79.5311 43.8284 80.1246 44.9282C83.0361 46.0616 85.6229 46.1739 87.8065 45.3771C90.0013 44.5242 91.9274 42.7734 93.3271 40.0015C90.886 39.0812 88.232 38.969 85.4997 39.5414L85.5109 39.5526Z" fill="#FF7F3E"/>
<path d="M119.99 29.2166C117.884 25.7152 117.022 23.6053 117.157 22.8871C117.347 22.1689 118.388 20.2049 120.236 16.883C122.14 13.5612 124.458 10.3515 127.313 7.09702C130.225 3.84249 131.748 2.06933 131.871 1.71021C131.994 1.4072 132.42 1.29498 133.013 1.42965C133.674 1.56432 134.021 1.86732 134.133 2.28256C134.245 2.69779 132.901 4.42606 130.236 7.50103C127.56 10.576 124.133 15.7384 119.967 22.9881C123.987 30.5408 127.974 35.389 132.072 37.4876C136.227 39.6423 138.478 40.9329 138.959 41.1798C139.318 41.4828 139.362 41.9654 139.116 42.504C138.746 43.0427 137.974 43.2672 136.832 43.1886C135.701 43.1101 134.155 42.3133 132.207 40.787C126.171 36.6234 122.039 32.7854 120.001 29.2278L119.99 29.2166ZM145.824 8.14071C146.283 9.16196 146.697 10.071 147.044 10.7892C147.279 11.4514 147.559 12.1135 147.85 12.7195C148.086 13.3255 147.951 13.6846 147.481 13.853C147.055 14.0886 146.585 14.1448 146.104 14.0101C145.622 13.8866 145.04 13.0337 144.345 11.4065C143.595 9.83531 143.192 8.33149 143.214 6.71545C143.181 5.22286 143.248 4.25772 143.371 3.8986C143.494 3.59559 144.032 3.5507 144.872 3.61804C145.768 3.62926 146.059 4.35872 145.622 5.60442C145.32 6.19921 145.364 7.09702 145.824 8.12949V8.14071ZM153.729 11.2493C153.965 11.2493 154.088 11.4962 154.077 12.091C154.077 12.6858 153.528 12.9776 152.509 12.9103C151.49 12.8991 150.672 11.5636 150.18 8.92629C149.743 6.28899 149.653 4.12305 149.911 2.39478C150.236 0.666515 150.908 -0.163951 151.803 0.026832C152.632 0.217615 152.867 0.700183 152.565 1.41842C152.039 4.47095 152.296 7.77037 153.382 11.2606C153.382 11.2606 153.505 11.2606 153.741 11.2606L153.729 11.2493Z" fill="#FF7F3E"/>
<path d="M160.191 39.3504C158.063 37.9027 156.607 36.6682 155.947 35.4449C155.297 34.289 155.308 33.481 155.98 33.1556C156.663 32.8301 157.257 32.976 157.716 33.6493C158.108 34.3339 159.967 35.8377 163.158 38.3067C166.35 40.7756 167.873 42.4141 167.861 43.2895C167.861 44.0302 167.705 44.6362 167.369 44.9616C167.033 45.2983 166.495 45.2871 165.891 44.8045C164.177 42.6274 162.318 40.7083 160.191 39.3392V39.3504Z" fill="#FF7F3E"/>
<path d="M82.7673 83.1744C83.5512 79.8862 84.1782 78.1467 84.4582 77.8773C84.7941 77.6753 85.5332 78.0232 86.6642 78.921C91.4794 75.4869 97.5711 72.816 104.928 70.7735C107.705 64.6909 109.43 61.5486 109.833 61.2792C110.303 61.0885 110.774 60.9538 111.11 60.965C111.446 60.965 111.714 61.1782 111.837 61.6496C111.961 62.1209 110.919 64.8704 108.691 69.8196C118.601 67.5414 124.424 68.832 126.305 73.7811C128.052 78.719 128.623 85.7331 127.884 94.8121C127.145 103.958 126.395 109.805 125.813 112.353C125.174 114.9 124.413 116.438 123.663 116.763C122.991 117.089 122.442 117.212 122.252 117.078C121.983 116.943 122.207 115.798 122.845 113.453C123.416 111.107 124.021 106.798 124.514 100.277C124.939 93.8806 125.096 87.697 124.984 81.8277C124.872 75.9695 123.237 72.3783 120.102 71.2561C115.533 71.3907 111.289 71.8733 107.381 72.6813C104.603 78.6966 102.33 83.1182 100.404 85.9126C107.134 85.5423 111.569 85.4637 113.573 85.6321C117 85.7443 117.996 86.3054 116.776 87.293C115.421 88.2806 114.066 88.8081 112.588 89.055C106.619 88.0225 101.983 87.9552 98.6797 88.9876C95.6562 93.7235 93.9989 96.5965 93.6518 97.5953C93.3046 98.6053 92.8231 99.1328 92.42 99.1215C91.8825 99.1215 91.345 98.841 90.8859 98.3584C90.4268 97.8759 90.9195 96.4057 92.364 93.8694C93.7414 91.4678 94.6372 90.065 94.906 89.661C95.1075 89.3243 95.869 88.1235 97.2464 86.1259C98.4893 84.1283 100.695 79.9086 103.607 73.624C96.7313 75.4757 91.0426 78.4946 86.4738 82.6693C85.2868 86.081 84.615 90.5251 84.5366 95.8446C84.4582 101.164 84.8613 106.023 85.7348 110.344C86.6082 114.732 86.6418 117.089 85.9699 117.549C85.2197 118.009 84.4806 117.998 83.8871 117.65C83.3608 117.235 82.8457 115.147 82.5657 111.298C82.2186 107.527 81.9386 103.88 81.7819 100.311L81.4011 98.4931C81.5019 91.5576 81.9834 86.4513 82.7673 83.1631V83.1744Z" fill="#FF7F3E"/>
<path d="M143.965 97.326C143.102 90.8281 143.27 84.97 144.48 79.6056C145.689 74.2413 146.394 71.4581 146.618 71.2112C146.842 70.9643 147.38 70.9418 148.242 71.1438C149.104 71.3459 148.847 74.2413 147.492 79.8637C146.137 85.4862 145.846 91.1424 146.63 96.8883C147.346 102.623 147.839 105.575 148.164 105.732C148.489 105.9 148.791 106.326 149.127 107.033C149.541 107.673 149.295 108.268 148.578 108.672C147.805 109.076 147.19 109.098 146.753 108.717C145.779 107.55 144.748 103.813 143.953 97.326H143.965ZM151.154 77.2713C152.094 75.7339 154.983 73.5455 159.866 70.8633C164.681 68.1699 169.642 66.913 174.815 67.0925C180.056 67.2721 184.166 68.1025 187.413 69.5278C190.649 71.0204 192.598 72.7487 193.303 74.7687C193.941 76.7214 194.311 80.3239 194.333 85.4638C194.367 90.6037 193.001 95.4181 190.459 99.9296C187.917 104.374 186.372 106.674 186.024 106.843C185.677 107.011 185.129 107.033 184.255 107.033C183.382 107.033 180.235 107.494 174.703 108.369C169.16 109.312 163.863 110.535 158.668 112.117C153.472 113.7 150.683 114.059 150.213 113.273C149.743 112.42 150.56 111.612 152.509 110.838C154.457 110.131 158.332 108.975 164.054 107.516C169.776 106.046 176.898 104.778 185.409 103.756C191.355 95.0141 193.046 85.5648 190.75 75.3074C189.619 73.5904 185.98 71.9182 179.899 70.5827C173.751 69.1687 166.831 70.4705 159.194 74.6004C155.801 76.4633 153.74 78.4497 153.091 80.5595C152.441 82.6694 151.534 82.9275 150.448 81.4798C149.944 80.2902 150.135 78.8874 151.142 77.2826L151.154 77.2713ZM148.634 99.4919C148.6 99.0879 148.589 98.4033 148.668 97.5392C148.746 96.6638 150.807 95.4294 154.916 93.8245C158.97 92.1524 163.416 90.57 168.074 88.954C168.903 79.3026 169.586 74.4882 170.134 74.4769C170.672 74.4545 171.131 74.634 171.433 74.9932C171.803 75.3635 171.892 75.9807 171.736 76.9795C171.579 77.9784 171.344 81.5359 171.064 87.8654C175.901 86.5299 179.53 85.8229 181.892 85.7668C184.322 85.7107 185.565 86.1483 185.823 87.1247C186.08 88.0898 185.823 88.7407 185.106 89.2233C184.389 89.7059 183.785 89.7171 183.146 89.257C182.508 88.7969 181.232 88.752 179.25 89.055C177.335 89.358 174.434 90.1211 170.616 91.4229C170.336 95.5191 170.067 98.538 169.754 100.603C169.451 102.601 169.138 103.79 168.891 104.385C168.634 104.968 168.343 105.283 167.861 105.373C167.38 105.462 167.055 105.305 166.753 104.867C166.45 104.441 166.82 100.21 167.783 92.1187C161.221 93.9143 155.207 96.5067 149.597 99.7388C149.037 100.031 148.634 99.9969 148.6 99.5144L148.634 99.4919Z" fill="#FF7F3E"/>
<path d="M219.495 73.9608C220.089 74.1179 220.212 74.3985 219.999 74.7239C219.786 75.0494 219.271 75.9023 218.465 77.4173C218.443 77.956 218.42 78.4947 218.398 78.966C222.788 81.5921 225.475 83.2643 226.449 84.0498C227.491 84.7681 228.062 85.5985 228.095 86.4178C228.129 87.2258 227.513 87.4054 226.125 86.8667C224.803 86.3392 222.239 84.9364 218.375 82.6807C217.513 89.9192 217.132 95.4295 216.976 98.9982C216.886 102.634 216.718 104.722 216.36 105.305C216.001 105.9 215.386 105.934 214.535 105.429C213.751 104.924 213.504 104.306 213.818 103.51C214.053 102.646 214.367 100.233 214.624 96.0691C214.87 91.9729 215.15 87.3268 215.374 82.1532C212.664 85.5424 210.873 88.2246 209.775 90.1886C208.745 92.2311 208.017 93.3421 207.67 93.6675C207.323 93.993 206.909 94.1725 206.573 94.1613C206.237 94.1501 205.912 93.9256 205.531 93.4431C205.151 92.9493 205.24 92.3545 205.811 91.7036C206.315 90.9854 207.177 89.6723 208.331 87.9777C209.417 86.2719 211.948 82.2767 215.789 76.1155C216.248 73.2426 216.517 70.2798 216.449 67.3171C211.937 69.0678 208.779 70.4818 207.043 71.548C205.386 72.5468 204.344 73.1752 204.143 73.3772C203.997 73.568 203.605 73.4895 203.012 73.1191C202.418 72.76 202.373 72.2774 202.877 71.6265C203.381 70.9083 204.568 70.0217 206.696 68.9668C208.768 67.8445 212.049 66.509 216.561 64.8257C216.517 59.8317 216.528 56.4649 216.606 54.7142C216.685 52.9635 216.797 51.9647 216.942 51.7627C217.088 51.5719 217.435 51.3138 217.916 51.0669C218.398 50.82 218.868 50.9098 219.182 51.2577C219.574 51.6168 219.652 55.7242 219.506 63.5351C223.347 61.818 226.36 60.606 228.476 59.9551C230.581 59.3715 231.813 59.091 232.082 59.1022C232.351 59.1134 232.608 59.2593 232.743 59.4725C232.944 59.6184 232.776 60.1459 232.216 60.8641C231.578 61.5824 230.346 62.1996 228.51 62.6485C226.673 63.176 223.65 64.4553 219.394 66.4193C218.913 71.3235 218.935 73.8149 219.529 73.972L219.495 73.9608ZM242.877 53.3675C243.896 53.0757 244.859 52.7166 245.822 52.2901C246.785 51.8637 247.602 51.4933 248.364 50.9883C249.125 50.4833 250.1 49.7202 251.354 48.7663C252.608 47.745 253.437 47.24 253.974 47.2624C254.512 47.2849 255.038 47.442 255.497 47.6664C255.889 47.8909 256.012 48.2276 255.665 48.553C255.385 48.8785 254.758 49.3835 253.705 50.214C252.731 51.0444 250.525 52.3013 247.21 54.2428C246.875 55.7803 246.27 57.3066 245.598 58.6196C244.926 60 244.344 61.1222 243.974 61.9864C248.196 60.8305 250.783 60.202 251.802 59.9775C252.753 59.7531 254.31 59.5511 256.202 59.3603C258.095 59.1807 259.372 59.2369 259.819 59.5848C260.267 59.9327 260.323 60.4152 259.819 60.9988C259.316 61.6497 258.632 61.8854 257.837 61.7844C256.964 61.6834 256.158 61.6385 255.419 61.6721C254.747 61.7058 253.996 61.8741 253.112 62.1098C252.227 62.3455 250.928 62.7495 249.092 63.2096C249.484 63.5688 249.988 64.1299 250.704 64.7696C251.421 65.4092 252.832 66.8906 255.004 69.2698C257.255 71.7275 259.36 74.0506 261.275 76.4298C263.19 78.8089 264.254 80.4699 264.355 81.3564C264.444 82.2991 264.231 82.7031 263.761 82.6134C263.291 82.5236 262.832 82.2318 262.451 81.8839C261.992 81.5248 260.525 79.9087 257.961 77.0358C255.396 74.1628 253.616 71.9856 252.395 70.6502C251.242 69.2473 250.223 68.1251 249.394 67.1487C248.633 66.1724 247.726 65.2521 246.763 64.1972C244.859 64.59 243.437 64.8593 242.418 65.0838C241.242 67.463 239.316 71.4133 236.64 77.0245C233.974 82.6358 232.16 85.52 231.343 85.823C230.458 86.126 229.988 86.1036 229.932 85.7557C229.876 85.419 229.898 84.8803 230.066 84.207C230.234 83.4775 231.41 81.0983 233.47 77.148C235.531 73.265 237.513 69.4381 239.215 65.8133C238.599 65.9816 237.849 66.1611 236.841 66.3183C235.822 66.4754 234.198 66.8794 231.88 67.3732C229.562 67.867 228.151 68.0802 227.815 68.0016C227.479 67.9231 227.166 67.564 226.931 66.8121C226.763 66.0601 231.332 64.7134 240.693 62.7719C242.395 59.2032 243.515 56.8352 244.041 55.511C242.877 55.9936 241.443 56.4761 239.809 57.0036C238.174 57.4637 237.031 57.3515 236.326 56.7791C235.688 56.1394 236.046 55.4885 237.625 54.8152C240.077 54.1867 241.847 53.6593 242.866 53.3675H242.877ZM249.002 86.53C251.981 86.126 254.478 85.8342 256.572 85.6547C258.599 85.4078 260.267 85.621 261.589 86.1484C262.843 86.7432 263.548 87.5849 263.694 88.6735C263.851 89.6948 263.784 92.7248 263.492 97.6964C263.201 102.735 263 105.833 262.877 107.034C262.753 108.313 262.305 109.166 261.678 109.806C261.107 110.456 260.559 110.703 260.099 110.614C259.629 110.524 259.517 110.187 259.674 109.648C259.831 109.121 259.987 108.582 260.144 108.189C260.301 107.729 260.391 107.191 260.413 106.652C260.435 106.113 260.626 103.498 260.894 98.785C261.174 94.0828 261.186 90.7048 260.939 88.6735C258.812 88.1124 256.594 88.0114 254.232 88.3705C251.936 88.6735 248.274 89.1785 243.269 89.9753C238.263 90.6936 233.538 91.0864 229.025 91.1537C228.913 92.1637 228.577 93.69 228.073 95.9681C227.502 98.3024 227.323 100.85 227.457 103.757C227.603 106.663 227.401 108.133 226.92 108.246C226.438 108.358 226.057 108.077 225.878 107.46C225.699 106.91 225.475 105.889 225.329 104.609C225.184 103.386 225.105 102.107 225.083 101.029C225.072 99.8848 225.128 98.5381 225.329 97.068C225.531 95.5978 225.744 93.7124 226.181 91.5128C226.617 89.302 227.603 88.3368 229.126 88.6735C239.461 87.6523 246.012 86.934 248.991 86.53H249.002ZM238.218 83.8927C237.961 82.1308 237.894 80.6382 238.006 79.5047C238.118 78.4274 238.599 76.6991 239.439 74.4434C240.279 72.1876 240.951 72.2886 241.443 74.7351C241.992 74.4883 242.81 74.1853 243.907 73.8374C245.072 73.4221 246.158 73.063 247.11 72.7712C248.129 72.4794 249.293 72.1315 250.592 71.7163C251.813 71.3684 252.809 71.8173 253.414 73.1864C254.03 74.5668 254.108 75.7115 253.661 76.6991C253.213 77.6193 252.955 79.0222 252.944 80.6494C252.944 82.3328 252.115 82.7031 250.603 81.7604C246.897 83.3428 243.963 84.4987 241.779 85.2058C239.652 86.126 238.465 85.6659 238.207 83.9039L238.218 83.8927ZM235.139 104.722C234.747 102.949 234.613 101.535 234.725 100.322C234.848 99.1105 235.329 97.3822 236.304 95.1377C237.211 92.882 237.95 92.983 238.566 95.5754C239.383 95.3397 240.346 94.9806 241.578 94.498C242.742 94.0154 243.963 93.7236 245.116 93.5777C246.203 93.4206 247.49 93.0054 248.801 92.4667C250.167 91.9168 251.298 92.2423 252.384 93.4992C253.47 94.6888 253.627 95.912 253.101 97.1016C252.507 98.3585 252.171 99.7614 252.104 101.366C252.037 102.982 251.141 103.409 249.416 102.724C245.094 104.688 241.757 105.687 239.125 105.833C236.796 106.876 235.531 106.551 235.139 104.71V104.722ZM240.839 82.6021C244.31 81.7492 247.457 80.6045 250.2 79.3813C250.883 77.5969 251.275 76.3287 251.253 75.4534C251.219 74.578 250.704 74.2862 249.551 74.3648C248.465 74.5219 245.665 75.6778 241.063 77.7652C240.514 79.4262 240.447 81.0422 240.85 82.6134L240.839 82.6021ZM237.961 103.296C242.171 102.477 245.911 101.568 249.125 100.356C249.943 98.5718 250.279 97.169 250.245 96.2936C250.223 95.3509 249.495 94.9806 248.218 95.1265C246.998 95.2723 243.582 96.4732 238.174 98.583C237.558 100.311 237.491 101.927 237.961 103.296Z" fill="#FF7F3E"/>
<path d="M281.421 108.93C280.368 107.033 280.536 104.946 281.913 102.612C283.358 100.412 285.396 98.7624 288.24 97.5167C291.085 96.3496 293.761 96.7873 296.415 98.7849C297.871 100.693 298.307 102.982 297.792 105.675C294.612 111.758 290.682 114.193 285.788 113.105C283.918 112.274 282.529 110.838 281.41 108.93H281.421ZM287.714 110.569C288.856 110.647 289.931 110.333 291.219 109.469C292.372 108.548 293.537 107.415 294.567 105.81C295.53 104.273 295.62 102.657 294.903 101.164C294.254 99.6041 292.988 99.1215 291.365 99.6266C289.607 100.21 287.916 101.13 286.281 102.443C284.511 103.835 283.683 105.507 283.851 107.729C285.374 109.435 286.572 110.4 287.703 110.546L287.714 110.569Z" fill="#FF7F3E"/>
<path d="M178.91 158.903C178.705 158.903 178.56 158.843 178.476 158.721C178.401 158.591 178.401 158.418 178.476 158.203L181.836 149.579C181.957 149.262 182.191 149.103 182.536 149.103H182.634C182.979 149.103 183.213 149.262 183.334 149.579L186.694 158.203C186.769 158.418 186.769 158.591 186.694 158.721C186.619 158.843 186.475 158.903 186.26 158.903H186.05C185.695 158.903 185.462 158.74 185.35 158.413L184.594 156.397H180.548L179.778 158.413C179.666 158.74 179.437 158.903 179.092 158.903H178.91ZM180.982 155.193H184.16L182.592 150.937L180.982 155.193ZM198.084 159.057C197.178 159.057 196.483 158.656 195.998 157.853V158.399C195.998 158.577 195.942 158.707 195.83 158.791C195.718 158.866 195.573 158.903 195.396 158.903C195.022 158.903 194.836 158.679 194.836 158.231V149.523C194.836 149.085 195.046 148.865 195.466 148.865C195.886 148.865 196.096 149.085 196.096 149.523V153.037C196.329 152.711 196.614 152.459 196.95 152.281C197.286 152.104 197.664 152.015 198.084 152.015C198.7 152.015 199.246 152.16 199.722 152.449C200.198 152.729 200.571 153.135 200.842 153.667C201.122 154.19 201.262 154.815 201.262 155.543C201.262 156.262 201.122 156.887 200.842 157.419C200.571 157.942 200.198 158.348 199.722 158.637C199.246 158.917 198.7 159.057 198.084 159.057ZM198.042 157.909C198.611 157.909 199.082 157.699 199.456 157.279C199.829 156.859 200.016 156.281 200.016 155.543C200.016 154.797 199.829 154.213 199.456 153.793C199.082 153.373 198.611 153.163 198.042 153.163C197.472 153.163 197.001 153.373 196.628 153.793C196.264 154.213 196.082 154.797 196.082 155.543C196.082 156.281 196.264 156.859 196.628 157.279C197.001 157.699 197.472 157.909 198.042 157.909ZM204.809 158.903C204.389 158.903 204.179 158.679 204.179 158.231V152.841C204.179 152.403 204.398 152.183 204.837 152.183C204.986 152.183 205.117 152.221 205.229 152.295C205.341 152.37 205.397 152.51 205.397 152.715V153.233C205.584 152.869 205.864 152.575 206.237 152.351C206.62 152.127 207.03 152.015 207.469 152.015C208.038 152.015 208.323 152.244 208.323 152.701C208.323 152.897 208.267 153.042 208.155 153.135C208.052 153.219 207.936 153.257 207.805 153.247C207.74 153.238 207.665 153.233 207.581 153.233C207.497 153.224 207.408 153.219 207.315 153.219C206.792 153.219 206.349 153.392 205.985 153.737C205.621 154.073 205.439 154.517 205.439 155.067V158.231C205.439 158.679 205.229 158.903 204.809 158.903ZM211.738 158.903C211.318 158.903 211.108 158.679 211.108 158.231V152.841C211.108 152.403 211.318 152.183 211.738 152.183C212.148 152.183 212.354 152.403 212.354 152.841V158.231C212.354 158.679 212.148 158.903 211.738 158.903ZM211.724 150.923C211.49 150.923 211.29 150.844 211.122 150.685C210.963 150.517 210.884 150.317 210.884 150.083C210.884 149.85 210.963 149.654 211.122 149.495C211.29 149.327 211.49 149.243 211.724 149.243C211.948 149.243 212.139 149.327 212.298 149.495C212.466 149.654 212.55 149.85 212.55 150.083C212.55 150.317 212.466 150.517 212.298 150.685C212.139 150.844 211.948 150.923 211.724 150.923ZM218.666 159.057C218.05 159.057 217.5 158.917 217.014 158.637C216.538 158.348 216.16 157.942 215.88 157.419C215.61 156.887 215.474 156.262 215.474 155.543C215.474 154.815 215.61 154.19 215.88 153.667C216.16 153.135 216.538 152.729 217.014 152.449C217.5 152.16 218.05 152.015 218.666 152.015C219.077 152.015 219.45 152.104 219.786 152.281C220.132 152.459 220.421 152.711 220.654 153.037V149.523C220.654 149.085 220.86 148.865 221.27 148.865C221.69 148.865 221.9 149.085 221.9 149.523V158.231C221.9 158.679 221.718 158.903 221.354 158.903C220.981 158.903 220.79 158.801 220.78 158.595L220.752 157.937C220.519 158.283 220.22 158.558 219.856 158.763C219.502 158.959 219.105 159.057 218.666 159.057ZM218.708 157.909C219.278 157.909 219.744 157.699 220.108 157.279C220.482 156.859 220.668 156.281 220.668 155.543C220.668 154.797 220.482 154.213 220.108 153.793C219.744 153.373 219.278 153.163 218.708 153.163C218.139 153.163 217.668 153.373 217.294 153.793C216.921 154.213 216.734 154.797 216.734 155.543C216.734 156.281 216.921 156.859 217.294 157.279C217.668 157.699 218.139 157.909 218.708 157.909ZM227.884 161.801C226.838 161.801 225.998 161.465 225.364 160.793C225.214 160.635 225.154 160.476 225.182 160.317C225.21 160.159 225.308 160.028 225.476 159.925C225.634 159.813 225.779 159.776 225.91 159.813C226.05 159.851 226.199 159.939 226.358 160.079C226.75 160.453 227.258 160.639 227.884 160.639C228.49 160.639 228.948 160.443 229.256 160.051C229.564 159.669 229.718 159.071 229.718 158.259V157.517C229.494 157.797 229.218 158.017 228.892 158.175C228.574 158.334 228.22 158.413 227.828 158.413C227.249 158.413 226.731 158.287 226.274 158.035C225.816 157.783 225.457 157.419 225.196 156.943C224.944 156.458 224.818 155.879 224.818 155.207C224.818 154.526 224.944 153.952 225.196 153.485C225.457 153.009 225.816 152.645 226.274 152.393C226.731 152.141 227.249 152.015 227.828 152.015C228.238 152.015 228.626 152.109 228.99 152.295C229.354 152.482 229.648 152.767 229.872 153.149V152.687C229.872 152.501 229.918 152.37 230.012 152.295C230.105 152.221 230.24 152.183 230.418 152.183C230.782 152.183 230.964 152.403 230.964 152.841V158.259C230.964 159.417 230.698 160.294 230.166 160.891C229.643 161.498 228.882 161.801 227.884 161.801ZM227.912 157.307C228.462 157.307 228.915 157.116 229.27 156.733C229.624 156.351 229.802 155.842 229.802 155.207C229.802 154.573 229.624 154.069 229.27 153.695C228.915 153.322 228.462 153.135 227.912 153.135C227.37 153.135 226.927 153.322 226.582 153.695C226.246 154.069 226.078 154.573 226.078 155.207C226.078 155.842 226.246 156.351 226.582 156.733C226.927 157.116 227.37 157.307 227.912 157.307ZM237.108 159.057C236.473 159.057 235.913 158.922 235.428 158.651C234.942 158.381 234.564 157.984 234.294 157.461C234.023 156.929 233.888 156.29 233.888 155.543C233.888 154.825 234.023 154.204 234.294 153.681C234.564 153.149 234.933 152.739 235.4 152.449C235.876 152.16 236.422 152.015 237.038 152.015C237.654 152.015 238.176 152.165 238.606 152.463C239.044 152.753 239.376 153.126 239.6 153.583C239.833 154.041 239.95 154.512 239.95 154.997C239.95 155.268 239.894 155.45 239.782 155.543C239.67 155.627 239.506 155.669 239.292 155.669H235.12C235.138 156.416 235.325 156.985 235.68 157.377C236.044 157.76 236.524 157.951 237.122 157.951C237.831 157.951 238.368 157.667 238.732 157.097C238.881 156.939 239.021 156.836 239.152 156.789C239.282 156.733 239.422 156.757 239.572 156.859C239.73 156.962 239.819 157.093 239.838 157.251C239.866 157.41 239.805 157.583 239.656 157.769C239.348 158.208 238.979 158.535 238.55 158.749C238.13 158.955 237.649 159.057 237.108 159.057ZM235.19 154.661H238.718C238.643 154.176 238.456 153.784 238.158 153.485C237.859 153.187 237.481 153.037 237.024 153.037C236.538 153.037 236.137 153.177 235.82 153.457C235.502 153.728 235.292 154.129 235.19 154.661ZM250.978 159.057C250.343 159.057 249.863 158.936 249.536 158.693C249.209 158.441 249.046 157.965 249.046 157.265V153.275H248.346C247.907 153.275 247.688 153.093 247.688 152.729C247.688 152.543 247.735 152.407 247.828 152.323C247.931 152.23 248.103 152.183 248.346 152.183H249.046V150.433C249.046 149.995 249.256 149.775 249.676 149.775C250.087 149.775 250.292 149.995 250.292 150.433V152.183H251.58C252.019 152.183 252.238 152.365 252.238 152.729C252.238 153.093 252.019 153.275 251.58 153.275H250.292V156.999C250.292 157.363 250.371 157.611 250.53 157.741C250.698 157.863 250.945 157.923 251.272 157.923C251.291 157.923 251.319 157.923 251.356 157.923C251.608 157.923 251.818 157.947 251.986 157.993C252.154 158.031 252.238 158.175 252.238 158.427C252.238 158.707 252.107 158.88 251.846 158.945C251.594 159.02 251.305 159.057 250.978 159.057ZM255.652 158.903C255.232 158.903 255.022 158.679 255.022 158.231V149.523C255.022 149.085 255.232 148.865 255.652 148.865C256.072 148.865 256.282 149.085 256.282 149.523V153.051C256.45 152.771 256.697 152.529 257.024 152.323C257.351 152.118 257.729 152.015 258.158 152.015C258.867 152.015 259.441 152.244 259.88 152.701C260.328 153.149 260.552 153.803 260.552 154.661V158.231C260.552 158.679 260.342 158.903 259.922 158.903C259.511 158.903 259.306 158.679 259.306 158.231V154.927C259.306 154.339 259.175 153.901 258.914 153.611C258.653 153.313 258.312 153.163 257.892 153.163C257.416 153.163 257.029 153.322 256.73 153.639C256.431 153.947 256.282 154.363 256.282 154.885V158.231C256.282 158.679 256.072 158.903 255.652 158.903ZM265.862 159.015C265.18 159.034 264.616 158.88 264.168 158.553C263.729 158.217 263.51 157.737 263.51 157.111C263.51 156.654 263.654 156.257 263.944 155.921C264.242 155.585 264.62 155.324 265.078 155.137C265.544 154.941 266.025 154.843 266.52 154.843C266.809 154.825 267.075 154.853 267.318 154.927C267.56 154.993 267.77 155.091 267.948 155.221V154.381C267.948 153.859 267.836 153.518 267.612 153.359C267.397 153.201 267.061 153.121 266.604 153.121C266.314 153.121 266.006 153.163 265.68 153.247C265.362 153.322 265.064 153.425 264.784 153.555C264.588 153.63 264.42 153.658 264.28 153.639C264.14 153.611 264.023 153.523 263.93 153.373C263.836 153.215 263.813 153.065 263.86 152.925C263.916 152.776 264.042 152.659 264.238 152.575C264.583 152.407 264.961 152.272 265.372 152.169C265.792 152.067 266.202 152.015 266.604 152.015C267.462 152.015 268.102 152.188 268.522 152.533C268.942 152.869 269.152 153.485 269.152 154.381V157.755C269.152 157.905 269.161 158.003 269.18 158.049C269.208 158.087 269.268 158.119 269.362 158.147C269.474 158.185 269.595 158.217 269.726 158.245C269.856 158.264 269.922 158.311 269.922 158.385C269.922 158.693 269.763 158.88 269.446 158.945C269.24 158.992 269.054 159.015 268.886 159.015C268.587 159.015 268.372 158.959 268.242 158.847C268.111 158.735 268.022 158.535 267.976 158.245C267.724 158.497 267.406 158.684 267.024 158.805C266.641 158.927 266.254 158.997 265.862 159.015ZM265.876 157.909C266.268 157.9 266.622 157.844 266.94 157.741C267.266 157.629 267.523 157.475 267.71 157.279C267.896 157.074 267.98 156.831 267.962 156.551C267.943 156.29 267.808 156.103 267.556 155.991C267.313 155.879 267 155.833 266.618 155.851C266.272 155.861 265.955 155.926 265.666 156.047C265.376 156.159 265.143 156.309 264.966 156.495C264.798 156.682 264.714 156.892 264.714 157.125C264.723 157.387 264.83 157.587 265.036 157.727C265.241 157.858 265.521 157.919 265.876 157.909ZM275.002 159.057C274.368 159.057 273.887 158.936 273.56 158.693C273.234 158.441 273.07 157.965 273.07 157.265V153.275H272.37C271.932 153.275 271.712 153.093 271.712 152.729C271.712 152.543 271.759 152.407 271.852 152.323C271.955 152.23 272.128 152.183 272.37 152.183H273.07V150.433C273.07 149.995 273.28 149.775 273.7 149.775C274.111 149.775 274.316 149.995 274.316 150.433V152.183H275.604C276.043 152.183 276.262 152.365 276.262 152.729C276.262 153.093 276.043 153.275 275.604 153.275H274.316V156.999C274.316 157.363 274.396 157.611 274.554 157.741C274.722 157.863 274.97 157.923 275.296 157.923C275.315 157.923 275.343 157.923 275.38 157.923C275.632 157.923 275.842 157.947 276.01 157.993C276.178 158.031 276.262 158.175 276.262 158.427C276.262 158.707 276.132 158.88 275.87 158.945C275.618 159.02 275.329 159.057 275.002 159.057ZM181.766 179.057C181.15 179.057 180.599 178.913 180.114 178.623C179.638 178.325 179.26 177.914 178.98 177.391C178.709 176.859 178.574 176.243 178.574 175.543C178.574 174.843 178.709 174.227 178.98 173.695C179.26 173.163 179.638 172.753 180.114 172.463C180.599 172.165 181.15 172.015 181.766 172.015C182.55 172.015 183.222 172.258 183.782 172.743C183.959 172.874 184.039 173.023 184.02 173.191C184.011 173.359 183.927 173.499 183.768 173.611C183.609 173.733 183.469 173.784 183.348 173.765C183.227 173.747 183.073 173.677 182.886 173.555C182.569 173.294 182.195 173.163 181.766 173.163C181.197 173.163 180.73 173.373 180.366 173.793C180.011 174.213 179.834 174.797 179.834 175.543C179.834 176.281 180.011 176.859 180.366 177.279C180.73 177.699 181.197 177.909 181.766 177.909C182.186 177.909 182.555 177.788 182.872 177.545C183.04 177.424 183.189 177.349 183.32 177.321C183.451 177.293 183.595 177.335 183.754 177.447C183.913 177.569 184.001 177.709 184.02 177.867C184.039 178.026 183.964 178.175 183.796 178.315C183.227 178.81 182.55 179.057 181.766 179.057ZM189.729 179.057C189.113 179.057 188.562 178.913 188.077 178.623C187.601 178.325 187.223 177.909 186.943 177.377C186.672 176.845 186.537 176.229 186.537 175.529C186.537 174.829 186.672 174.218 186.943 173.695C187.223 173.163 187.601 172.753 188.077 172.463C188.562 172.165 189.113 172.015 189.729 172.015C190.345 172.015 190.891 172.165 191.367 172.463C191.852 172.753 192.23 173.163 192.501 173.695C192.781 174.218 192.921 174.829 192.921 175.529C192.921 176.229 192.781 176.845 192.501 177.377C192.23 177.909 191.852 178.325 191.367 178.623C190.891 178.913 190.345 179.057 189.729 179.057ZM189.729 177.909C190.298 177.909 190.76 177.699 191.115 177.279C191.479 176.85 191.661 176.267 191.661 175.529C191.661 174.792 191.479 174.213 191.115 173.793C190.76 173.373 190.298 173.163 189.729 173.163C189.159 173.163 188.693 173.373 188.329 173.793C187.974 174.213 187.797 174.792 187.797 175.529C187.797 176.267 187.974 176.85 188.329 177.279C188.693 177.699 189.159 177.909 189.729 177.909ZM196.464 178.903C196.044 178.903 195.834 178.679 195.834 178.231V172.841C195.834 172.403 196.025 172.183 196.408 172.183C196.8 172.183 197 172.295 197.01 172.519L197.038 173.051C197.234 172.771 197.495 172.529 197.822 172.323C198.158 172.118 198.54 172.015 198.97 172.015C199.679 172.015 200.253 172.244 200.692 172.701C201.14 173.149 201.364 173.803 201.364 174.661V178.231C201.364 178.679 201.154 178.903 200.734 178.903C200.323 178.903 200.118 178.679 200.118 178.231V174.927C200.118 174.339 199.987 173.901 199.726 173.611C199.464 173.313 199.124 173.163 198.704 173.163C198.228 173.163 197.84 173.322 197.542 173.639C197.243 173.947 197.094 174.363 197.094 174.885V178.231C197.094 178.679 196.884 178.903 196.464 178.903ZM205.288 178.903C204.868 178.903 204.658 178.679 204.658 178.231V172.841C204.658 172.403 204.849 172.183 205.232 172.183C205.624 172.183 205.824 172.295 205.834 172.519L205.862 173.051C206.058 172.771 206.319 172.529 206.646 172.323C206.982 172.118 207.364 172.015 207.794 172.015C208.503 172.015 209.077 172.244 209.516 172.701C209.964 173.149 210.188 173.803 210.188 174.661V178.231C210.188 178.679 209.978 178.903 209.558 178.903C209.147 178.903 208.942 178.679 208.942 178.231V174.927C208.942 174.339 208.811 173.901 208.55 173.611C208.288 173.313 207.948 173.163 207.528 173.163C207.052 173.163 206.664 173.322 206.366 173.639C206.067 173.947 205.918 174.363 205.918 174.885V178.231C205.918 178.679 205.708 178.903 205.288 178.903ZM216.337 179.057C215.703 179.057 215.143 178.922 214.657 178.651C214.172 178.381 213.794 177.984 213.523 177.461C213.253 176.929 213.117 176.29 213.117 175.543C213.117 174.825 213.253 174.204 213.523 173.681C213.794 173.149 214.163 172.739 214.629 172.449C215.105 172.16 215.651 172.015 216.267 172.015C216.883 172.015 217.406 172.165 217.835 172.463C218.274 172.753 218.605 173.126 218.829 173.583C219.063 174.041 219.179 174.512 219.179 174.997C219.179 175.268 219.123 175.45 219.011 175.543C218.899 175.627 218.736 175.669 218.521 175.669H214.349C214.368 176.416 214.555 176.985 214.909 177.377C215.273 177.76 215.754 177.951 216.351 177.951C217.061 177.951 217.597 177.667 217.961 177.097C218.111 176.939 218.251 176.836 218.381 176.789C218.512 176.733 218.652 176.757 218.801 176.859C218.96 176.962 219.049 177.093 219.067 177.251C219.095 177.41 219.035 177.583 218.885 177.769C218.577 178.208 218.209 178.535 217.779 178.749C217.359 178.955 216.879 179.057 216.337 179.057ZM214.419 174.661H217.947C217.873 174.176 217.686 173.784 217.387 173.485C217.089 173.187 216.711 173.037 216.253 173.037C215.768 173.037 215.367 173.177 215.049 173.457C214.732 173.728 214.522 174.129 214.419 174.661ZM225.024 179.057C224.408 179.057 223.857 178.913 223.372 178.623C222.896 178.325 222.518 177.914 222.238 177.391C221.967 176.859 221.832 176.243 221.832 175.543C221.832 174.843 221.967 174.227 222.238 173.695C222.518 173.163 222.896 172.753 223.372 172.463C223.857 172.165 224.408 172.015 225.024 172.015C225.808 172.015 226.48 172.258 227.04 172.743C227.217 172.874 227.296 173.023 227.278 173.191C227.268 173.359 227.184 173.499 227.026 173.611C226.867 173.733 226.727 173.784 226.606 173.765C226.484 173.747 226.33 173.677 226.144 173.555C225.826 173.294 225.453 173.163 225.024 173.163C224.454 173.163 223.988 173.373 223.624 173.793C223.269 174.213 223.092 174.797 223.092 175.543C223.092 176.281 223.269 176.859 223.624 177.279C223.988 177.699 224.454 177.909 225.024 177.909C225.444 177.909 225.812 177.788 226.13 177.545C226.298 177.424 226.447 177.349 226.578 177.321C226.708 177.293 226.853 177.335 227.012 177.447C227.17 177.569 227.259 177.709 227.278 177.867C227.296 178.026 227.222 178.175 227.054 178.315C226.484 178.81 225.808 179.057 225.024 179.057ZM233.12 179.057C232.485 179.057 232.004 178.936 231.678 178.693C231.351 178.441 231.188 177.965 231.188 177.265V173.275H230.488C230.049 173.275 229.83 173.093 229.83 172.729C229.83 172.543 229.876 172.407 229.97 172.323C230.072 172.23 230.245 172.183 230.488 172.183H231.188V170.433C231.188 169.995 231.398 169.775 231.818 169.775C232.228 169.775 232.434 169.995 232.434 170.433V172.183H233.722C234.16 172.183 234.38 172.365 234.38 172.729C234.38 173.093 234.16 173.275 233.722 173.275H232.434V176.999C232.434 177.363 232.513 177.611 232.672 177.741C232.84 177.863 233.087 177.923 233.414 177.923C233.432 177.923 233.46 177.923 233.498 177.923C233.75 177.923 233.96 177.947 234.128 177.993C234.296 178.031 234.38 178.175 234.38 178.427C234.38 178.707 234.249 178.88 233.988 178.945C233.736 179.02 233.446 179.057 233.12 179.057ZM239.53 179.043C238.578 179.043 237.794 178.777 237.178 178.245C237 178.115 236.907 177.97 236.898 177.811C236.898 177.653 236.963 177.508 237.094 177.377C237.224 177.247 237.36 177.186 237.5 177.195C237.64 177.205 237.798 177.27 237.976 177.391C238.396 177.755 238.932 177.937 239.586 177.937C239.996 177.937 240.323 177.863 240.566 177.713C240.808 177.564 240.93 177.317 240.93 176.971C240.93 176.691 240.804 176.486 240.552 176.355C240.3 176.215 239.852 176.085 239.208 175.963C238.788 175.879 238.41 175.767 238.074 175.627C237.747 175.487 237.486 175.287 237.29 175.025C237.094 174.755 236.996 174.405 236.996 173.975C236.996 173.565 237.108 173.215 237.332 172.925C237.556 172.627 237.85 172.398 238.214 172.239C238.587 172.081 238.998 172.001 239.446 172.001C240.258 172.001 240.911 172.216 241.406 172.645C241.592 172.757 241.695 172.893 241.714 173.051C241.742 173.201 241.695 173.341 241.574 173.471C241.452 173.621 241.322 173.691 241.182 173.681C241.042 173.672 240.878 173.621 240.692 173.527C240.384 173.257 239.973 173.121 239.46 173.121C239.058 173.121 238.76 173.205 238.564 173.373C238.368 173.532 238.27 173.723 238.27 173.947C238.27 174.209 238.382 174.4 238.606 174.521C238.83 174.643 239.236 174.769 239.824 174.899C240.29 175.002 240.701 175.137 241.056 175.305C241.42 175.473 241.7 175.693 241.896 175.963C242.101 176.234 242.204 176.584 242.204 177.013C242.204 177.657 241.956 178.157 241.462 178.511C240.976 178.866 240.332 179.043 239.53 179.043ZM250.957 181.731C250.537 181.731 250.327 181.507 250.327 181.059V172.841C250.327 172.403 250.514 172.183 250.887 172.183C251.26 172.183 251.452 172.281 251.461 172.477L251.489 173.135C251.732 172.781 252.03 172.505 252.385 172.309C252.74 172.113 253.136 172.015 253.575 172.015C254.191 172.015 254.737 172.16 255.213 172.449C255.689 172.729 256.062 173.135 256.333 173.667C256.613 174.19 256.753 174.811 256.753 175.529C256.753 176.248 256.613 176.873 256.333 177.405C256.062 177.937 255.689 178.348 255.213 178.637C254.737 178.917 254.191 179.057 253.575 179.057C253.155 179.057 252.777 178.969 252.441 178.791C252.105 178.605 251.82 178.353 251.587 178.035V181.059C251.587 181.507 251.377 181.731 250.957 181.731ZM253.533 177.909C254.102 177.909 254.574 177.699 254.947 177.279C255.32 176.85 255.507 176.267 255.507 175.529C255.507 174.792 255.32 174.213 254.947 173.793C254.574 173.373 254.102 173.163 253.533 173.163C252.964 173.163 252.492 173.373 252.119 173.793C251.755 174.213 251.573 174.792 251.573 175.529C251.573 176.267 251.755 176.85 252.119 177.279C252.492 177.699 252.964 177.909 253.533 177.909ZM262.526 179.057C261.892 179.057 261.332 178.922 260.846 178.651C260.361 178.381 259.983 177.984 259.712 177.461C259.442 176.929 259.306 176.29 259.306 175.543C259.306 174.825 259.442 174.204 259.712 173.681C259.983 173.149 260.352 172.739 260.818 172.449C261.294 172.16 261.84 172.015 262.456 172.015C263.072 172.015 263.595 172.165 264.024 172.463C264.463 172.753 264.794 173.126 265.018 173.583C265.252 174.041 265.368 174.512 265.368 174.997C265.368 175.268 265.312 175.45 265.2 175.543C265.088 175.627 264.925 175.669 264.71 175.669H260.538C260.557 176.416 260.744 176.985 261.098 177.377C261.462 177.76 261.943 177.951 262.54 177.951C263.25 177.951 263.786 177.667 264.15 177.097C264.3 176.939 264.44 176.836 264.57 176.789C264.701 176.733 264.841 176.757 264.99 176.859C265.149 176.962 265.238 177.093 265.256 177.251C265.284 177.41 265.224 177.583 265.074 177.769C264.766 178.208 264.398 178.535 263.968 178.749C263.548 178.955 263.068 179.057 262.526 179.057ZM260.608 174.661H264.136C264.062 174.176 263.875 173.784 263.576 173.485C263.278 173.187 262.9 173.037 262.442 173.037C261.957 173.037 261.556 173.177 261.238 173.457C260.921 173.728 260.711 174.129 260.608 174.661ZM271.213 179.057C270.597 179.057 270.046 178.913 269.561 178.623C269.085 178.325 268.707 177.909 268.427 177.377C268.156 176.845 268.021 176.229 268.021 175.529C268.021 174.829 268.156 174.218 268.427 173.695C268.707 173.163 269.085 172.753 269.561 172.463C270.046 172.165 270.597 172.015 271.213 172.015C271.829 172.015 272.375 172.165 272.851 172.463C273.336 172.753 273.714 173.163 273.985 173.695C274.265 174.218 274.405 174.829 274.405 175.529C274.405 176.229 274.265 176.845 273.985 177.377C273.714 177.909 273.336 178.325 272.851 178.623C272.375 178.913 271.829 179.057 271.213 179.057ZM271.213 177.909C271.782 177.909 272.244 177.699 272.599 177.279C272.963 176.85 273.145 176.267 273.145 175.529C273.145 174.792 272.963 174.213 272.599 173.793C272.244 173.373 271.782 173.163 271.213 173.163C270.644 173.163 270.177 173.373 269.813 173.793C269.458 174.213 269.281 174.792 269.281 175.529C269.281 176.267 269.458 176.85 269.813 177.279C270.177 177.699 270.644 177.909 271.213 177.909ZM277.948 181.731C277.528 181.731 277.318 181.507 277.318 181.059V172.841C277.318 172.403 277.505 172.183 277.878 172.183C278.251 172.183 278.443 172.281 278.452 172.477L278.48 173.135C278.723 172.781 279.021 172.505 279.376 172.309C279.731 172.113 280.127 172.015 280.566 172.015C281.182 172.015 281.728 172.16 282.204 172.449C282.68 172.729 283.053 173.135 283.324 173.667C283.604 174.19 283.744 174.811 283.744 175.529C283.744 176.248 283.604 176.873 283.324 177.405C283.053 177.937 282.68 178.348 282.204 178.637C281.728 178.917 281.182 179.057 280.566 179.057C280.146 179.057 279.768 178.969 279.432 178.791C279.096 178.605 278.811 178.353 278.578 178.035V181.059C278.578 181.507 278.368 181.731 277.948 181.731ZM280.524 177.909C281.093 177.909 281.565 177.699 281.938 177.279C282.311 176.85 282.498 176.267 282.498 175.529C282.498 174.792 282.311 174.213 281.938 173.793C281.565 173.373 281.093 173.163 280.524 173.163C279.955 173.163 279.483 173.373 279.11 173.793C278.746 174.213 278.564 174.792 278.564 175.529C278.564 176.267 278.746 176.85 279.11 177.279C279.483 177.699 279.955 177.909 280.524 177.909ZM287.291 178.903C286.871 178.903 286.661 178.679 286.661 178.231V169.523C286.661 169.085 286.871 168.865 287.291 168.865C287.711 168.865 287.921 169.085 287.921 169.523V178.231C287.921 178.679 287.711 178.903 287.291 178.903ZM294.048 179.057C293.414 179.057 292.854 178.922 292.368 178.651C291.883 178.381 291.505 177.984 291.234 177.461C290.964 176.929 290.828 176.29 290.828 175.543C290.828 174.825 290.964 174.204 291.234 173.681C291.505 173.149 291.874 172.739 292.34 172.449C292.816 172.16 293.362 172.015 293.978 172.015C294.594 172.015 295.117 172.165 295.546 172.463C295.985 172.753 296.316 173.126 296.54 173.583C296.774 174.041 296.89 174.512 296.89 174.997C296.89 175.268 296.834 175.45 296.722 175.543C296.61 175.627 296.447 175.669 296.232 175.669H292.06C292.079 176.416 292.266 176.985 292.62 177.377C292.984 177.76 293.465 177.951 294.062 177.951C294.772 177.951 295.308 177.667 295.672 177.097C295.822 176.939 295.962 176.836 296.092 176.789C296.223 176.733 296.363 176.757 296.512 176.859C296.671 176.962 296.76 177.093 296.778 177.251C296.806 177.41 296.746 177.583 296.596 177.769C296.288 178.208 295.92 178.535 295.49 178.749C295.07 178.955 294.59 179.057 294.048 179.057ZM292.13 174.661H295.658C295.584 174.176 295.397 173.784 295.098 173.485C294.8 173.187 294.422 173.037 293.964 173.037C293.479 173.037 293.078 173.177 292.76 173.457C292.443 173.728 292.233 174.129 292.13 174.661Z" fill="#FF7F3E" fill-opacity="0.5"/>
</svg>
