<svg width="167" height="75" viewBox="0 0 167 75" fill="none" xmlns="http://www.w3.org/2000/svg">
<path d="M9.32541 55.0931V50.9727H12.0881V55.0931H21.6146V72.2808C21.6146 73.2503 21.35 73.9353 20.8208 74.3147C20.3868 74.6308 19.6458 74.7994 18.5767 74.7994C16.7455 74.7994 15.2424 74.7573 14.0463 74.6624L13.5383 72.0279C15.3906 72.1438 16.936 72.1965 18.1745 72.1965C18.5026 72.1965 18.7037 72.1227 18.7567 71.9647C18.799 71.8698 18.8202 71.7117 18.8202 71.4904V57.6117H12.0669V57.8014C12.014 58.4653 11.9293 59.1503 11.8023 59.8563C14.258 61.8586 16.4491 64.1137 18.3756 66.6218L16.2692 68.5714C14.8931 66.5902 13.1678 64.5247 11.0931 62.3855C10.024 65.1781 7.87526 67.507 4.65741 69.3723L3.01673 67.2014C4.94321 66.0949 6.3616 64.9252 7.2825 63.6711C8.48919 62.0272 9.15605 60.0039 9.28307 57.6222H2.79445V74.9996H0V55.0931H9.32541Z" fill="#323333"/>
<path d="M50.0458 52.7859V74.3364H47.2831V72.566H31.7231V74.3048H28.9604V52.7754H50.0458V52.7859ZM31.7231 55.2729V61.1848H38.0742V55.2729H31.7231ZM31.7231 63.6191V70.0158H38.0742V63.6191H31.7231ZM47.2725 61.1848V55.2729H40.7628V61.1848H47.2725ZM47.2725 70.0158V63.6191H40.7628V70.0158H47.2725Z" fill="#323333"/>
<path d="M68.8663 54.6931C69.1309 54.2927 69.3215 53.9765 69.4485 53.7552C68.4111 53.8395 67.1621 53.9133 65.7225 53.987L64.7805 52.1113C69.2897 51.9743 73.2273 51.5527 76.5934 50.8467L78.3717 52.5855C76.3605 52.9859 74.2752 53.3021 72.1159 53.5128C71.9465 53.9027 71.7348 54.2927 71.5126 54.6826H80.2875V56.611H76.1276C77.4296 57.7176 78.9432 58.6238 80.658 59.3299L79.3667 61.1846C78.4669 60.7525 77.5566 60.2256 76.6463 59.5828V62.8812H67.0668V59.7198C66.2518 60.3415 65.4156 60.8895 64.537 61.3848L63.108 59.6144C64.7276 58.8241 66.1354 57.8229 67.3209 56.611H63.7326V58.5501H61.7849V60.7631C62.7905 61.6483 63.6585 62.5229 64.3888 63.4082L63.0975 65.5369C62.6741 64.894 62.2401 64.2617 61.7849 63.6505V75.0107H59.3927V63.3238C58.6941 65.8635 57.879 68.0133 56.9476 69.7943L55.7832 67.107C57.318 64.3987 58.4295 61.5534 59.0963 58.5606H56.196V56.2106H59.3927V50.9731H61.7849V56.2106H63.5314V54.6931H68.8557H68.8663ZM79.663 64.051V72.903C79.663 73.5985 79.5043 74.0833 79.1761 74.3678C78.8586 74.6524 78.3081 74.7894 77.5143 74.7894C76.7204 74.7894 75.8418 74.7472 74.868 74.6629L74.4658 72.5342C75.3973 72.6501 76.117 72.7028 76.6463 72.7028C76.9215 72.7028 77.0909 72.6396 77.1544 72.5026C77.2073 72.4077 77.2285 72.2497 77.2285 72.0494V65.9162H66.5164V74.9896H64.1877V64.0404H79.6524L79.663 64.051ZM75.429 67.0649V71.9967H70.2953V73.3878H68.083V67.0649H75.429ZM69.0462 57.9283H74.6457C74.1694 57.4646 73.7672 57.0326 73.4284 56.6216H70.1894C69.7766 57.1274 69.3956 57.57 69.0462 57.9283ZM74.3599 59.6144H69.3003V61.2057H74.3599V59.6144ZM70.2847 68.8037V70.2263H73.2167V68.8037H70.2847Z" fill="#323333"/>
<path d="M106.03 64.4831H101.203C99.9332 64.4831 99.2981 63.8614 99.2981 62.6284V60.31H96.5672C96.3978 62.5125 95.2441 64.1459 93.1271 65.2103H102.929V71.7545H95.4346V73.0506H92.9153V65.3156C92.3861 65.558 91.8251 65.7688 91.2429 65.969L89.8139 64.1986V74.9897H87.1465V58.2656H92.5343C92.1744 57.3067 91.7616 56.3793 91.2958 55.473H85.8657V53.2705H96.4825V50.9521H99.2029V53.2705H110V55.473H104.538C104.104 56.4952 103.649 57.4226 103.151 58.2656H108.708V72.5764C108.708 73.3879 108.518 73.978 108.126 74.3258C107.745 74.6841 107.004 74.8527 105.903 74.8527C104.802 74.8527 103.627 74.8211 102.484 74.7578L101.923 72.2919C103.395 72.4289 104.527 72.5027 105.31 72.5027C105.681 72.5027 105.903 72.4184 105.977 72.2392C106.02 72.1444 106.041 72.0179 106.041 71.8282V64.4515L106.03 64.4831ZM94.0585 60.31H89.8139V64.0195C90.9571 63.7349 91.8357 63.3766 92.4708 62.9235C93.3388 62.3017 93.868 61.4271 94.0585 60.3206V60.31ZM94.1961 55.4941C94.7042 56.5163 95.0959 57.4437 95.3817 58.2867H100.283C100.685 57.5385 101.087 56.6849 101.468 55.747L101.563 55.5046H94.1856L94.1961 55.4941ZM95.4346 67.1387V69.7838H100.388V67.1387H95.4346ZM106.03 62.6284V60.31H101.839V62.3334C101.839 62.5336 101.934 62.6284 102.135 62.6284H106.03Z" fill="#323333"/>
<path d="M128.671 53.428H138.42V55.7043H119.293V61.4687C119.293 64.5563 119.081 67.1487 118.647 69.2563C118.245 71.2375 117.547 73.1555 116.552 74.9996L114.371 73.1238C115.811 70.1626 116.53 66.274 116.53 61.4687V53.428H125.888V50.9727H128.682V53.428H128.671ZM129.402 59.2767H137.383V61.5003H129.402V64.9462H136.568V75.0102H133.826V73.5454H123.453V75.0102H120.733V64.9462H126.703V56.2417H129.391V59.2767H129.402ZM123.464 67.1382V71.3113H133.837V67.1382H123.464Z" fill="#323333"/>
<path d="M147.799 61.2585V75.0002H145.259V64.5991C144.772 65.1576 144.221 65.7372 143.607 66.3378L142.422 63.9141C144.56 61.7538 146.306 59.3089 147.682 56.6006L149.768 57.7809C149.524 58.2972 149.291 58.7609 149.069 59.1508H153.377V56.3371H149.672V54.0609H153.377V50.9521H155.875V54.0609H159.294V56.3371H155.875V59.1508H159.802V61.3955H148.995V59.2668C148.677 59.8674 148.275 60.5208 147.81 61.2268L147.799 61.2585ZM142.411 56.4531C144.285 54.8934 145.809 53.0598 146.984 50.9732L149.291 52.1113C147.661 54.7775 145.809 56.9167 143.724 58.5291L142.411 56.4531ZM153.367 64.7044V62.1753H155.886V64.7044H159.569V66.9491H155.886V69.963C155.992 69.9419 156.108 69.9314 156.235 69.9103C157.389 69.71 158.712 69.4571 160.183 69.141L160.257 71.2381C157.325 72.039 153.568 72.745 149.006 73.3668L148.212 71.0484C150.265 70.8376 151.98 70.6163 153.377 70.3845V66.9491H149.334V64.7044H153.377H153.367ZM164.798 61.1847V72.745C164.798 73.4827 164.608 74.0096 164.227 74.3258C163.867 74.6419 163.253 74.8 162.396 74.8C161.538 74.8 160.691 74.7684 159.824 74.7051L159.241 72.3867C160.183 72.5027 160.977 72.5554 161.612 72.5554C161.919 72.5554 162.099 72.4921 162.142 72.3657C162.184 72.2814 162.205 72.1444 162.205 71.9441V61.1847H160.501V58.7188H167V61.1847H164.788H164.798ZM161.009 52.1851H166.323V54.6194H161.009V52.1851Z" fill="#323333"/>
<path d="M47.7277 8.6202C47.77 8.70451 47.77 8.82043 47.77 8.94688C48.5427 18.8633 55.857 27.4835 62.6526 29.9916C63.7957 30.392 64.2403 31.1613 64.2403 31.9727C64.2403 33.1846 63.1818 34.4387 61.5517 34.4387C58.101 34.4387 49.5165 27.0725 45.9811 17.8411C43.7054 24.849 39.1115 31.077 31.342 34.681C30.9398 34.8813 30.527 34.9656 30.1671 34.9656C28.8228 34.9656 27.8066 33.8696 27.8066 32.742C27.8066 31.9727 28.2512 31.2456 29.3097 30.7609C43.1761 24.6066 43.536 10.4011 43.536 7.36616C43.536 6.15428 43.4513 4.77378 43.3772 3.56189V3.43543C43.3772 2.09709 44.5204 1.41211 45.653 1.41211C46.7856 1.41211 47.8864 2.09709 47.8864 3.56189C47.8864 5.02669 47.8441 6.72334 47.7277 8.46213V8.6202Z" fill="#80C4E9"/>
<path d="M30.167 36.3779C28.1241 36.3779 26.3882 34.7129 26.3882 32.7422C26.3882 31.3512 27.235 30.1604 28.7169 29.4754C40.8156 24.1009 42.1175 12.2245 42.1175 7.36637C42.1175 6.19664 42.0329 4.83721 41.9588 3.65694V3.44618C41.9588 1.48608 43.5465 0.0107422 45.6529 0.0107422C47.4206 0.0107422 49.3048 1.25424 49.3048 3.57264C49.3048 4.75291 49.273 6.54439 49.146 8.46234C49.1777 8.63095 49.1777 8.77848 49.1777 8.8944C49.9399 18.326 56.8625 26.3561 63.1288 28.6745C64.6954 29.233 65.6375 30.466 65.6375 31.9835C65.6375 33.8487 64.0709 35.8615 61.5305 35.8615C57.5611 35.8615 50.1833 29.4227 46.0658 21.5296C43.1655 28.0528 38.3175 33.0057 31.9242 35.9774C31.3949 36.2409 30.7598 36.3884 30.1459 36.3884L30.167 36.3779Z" fill="#80C4E9"/>
<path d="M84.2567 38.2646C83.23 38.2646 82.2244 37.7904 81.5787 36.9052C72.8672 24.9654 59.3713 18.1262 44.5523 18.1262C29.7332 18.1262 16.2373 24.976 7.52585 36.9052C6.44618 38.3805 4.3821 38.7072 2.9002 37.6323C1.41829 36.5574 1.09016 34.5025 2.16983 33.0271C12.1409 19.3697 27.5845 11.5293 44.5523 11.5293C61.5201 11.5293 76.9636 19.3697 86.9347 33.0271C88.0144 34.5025 87.6863 36.5574 86.2044 37.6323C85.6116 38.0538 84.9342 38.2646 84.2567 38.2646Z" fill="#80C4E9"/>
<path d="M163.665 38.2646C162.639 38.2646 161.633 37.7904 160.987 36.9052C152.276 24.9654 138.78 18.1262 123.961 18.1262C109.142 18.1262 95.7942 24.9022 87.0721 36.7155C86.0983 38.0433 84.32 38.665 82.8381 37.9484C80.9222 37.0211 80.3824 34.6605 81.5785 33.0271C91.5496 19.3591 106.993 11.5293 123.961 11.5293C140.929 11.5293 156.298 19.3275 166.269 32.9323C167.328 34.376 167.116 36.4836 165.687 37.5796C165.084 38.0433 164.364 38.2646 163.665 38.2646Z" fill="#F49F4A"/>
<path d="M125.02 8.6202C125.062 8.70451 125.062 8.82043 125.062 8.94688C125.835 18.8633 133.149 27.4835 139.945 29.9916C141.088 30.392 141.532 31.1613 141.532 31.9727C141.532 33.1846 140.474 34.4387 138.844 34.4387C135.393 34.4387 126.809 27.0725 123.273 17.8411C120.997 24.849 116.403 31.077 108.634 34.681C108.232 34.8813 107.819 34.9656 107.459 34.9656C106.115 34.9656 105.099 33.8696 105.099 32.742C105.099 31.9727 105.543 31.2456 106.602 30.7609C120.468 24.6066 120.828 10.4011 120.828 7.36616C120.828 6.15428 120.743 4.77378 120.669 3.56189V3.43543C120.669 2.09709 121.812 1.41211 122.945 1.41211C124.078 1.41211 125.178 2.09709 125.178 3.56189C125.178 5.02669 125.136 6.72334 125.02 8.46213V8.6202Z" fill="#F49F4A"/>
<path d="M107.459 36.3779C105.416 36.3779 103.68 34.7129 103.68 32.7422C103.68 31.3512 104.527 30.1604 106.009 29.4754C118.108 24.1009 119.41 12.2245 119.41 7.36637C119.41 6.19664 119.325 4.83721 119.251 3.65694V3.44618C119.251 1.48608 120.839 0.0107422 122.945 0.0107422C124.713 0.0107422 126.597 1.25424 126.597 3.57264C126.597 4.75291 126.565 6.54439 126.438 8.46234C126.47 8.63095 126.47 8.77848 126.47 8.8944C127.232 18.326 134.154 26.3561 140.421 28.6745C141.987 29.233 142.929 30.466 142.929 31.9835C142.929 33.8487 141.363 35.8615 138.822 35.8615C134.853 35.8615 127.475 29.4227 123.358 21.5296C120.457 28.0528 115.61 33.0057 109.216 35.9774C108.687 36.2409 108.052 36.3884 107.438 36.3884L107.459 36.3779Z" fill="#F49F4A"/>
<path d="M84.0659 38.2436C84.1294 38.2436 84.1929 38.2647 84.2564 38.2647C84.9339 38.2647 85.6113 38.0644 86.2041 37.6324C86.5111 37.4111 86.7545 37.1371 86.9556 36.8525C86.2359 37.7377 85.1562 38.2752 84.0659 38.2436Z" fill="#80C4E9"/>
<path d="M81.5787 36.905C81.5787 36.905 81.6104 36.9366 81.621 36.9471C80.7636 35.8195 80.7001 34.2283 81.5787 33.0269C82.4255 31.8677 83.3358 30.7612 84.2567 29.6758" fill="#80C4E9"/>
<path d="M83.6637 38.2015C83.6002 38.191 83.5367 38.191 83.4731 38.1699C83.5367 38.1805 83.6002 38.191 83.6637 38.2015Z" fill="#80C4E9"/>
<path d="M82.1607 37.5159C82.0867 37.4632 82.0337 37.3894 81.9702 37.3262C82.0337 37.3894 82.0867 37.4526 82.1607 37.5159Z" fill="#80C4E9"/>
<path d="M82.7957 37.9274C82.7005 37.8747 82.6158 37.8115 82.5205 37.7588C82.6158 37.8115 82.7005 37.8852 82.7957 37.9274Z" fill="#80C4E9"/>
<g style="mix-blend-mode:multiply">
<path d="M84.0663 38.2433C83.9287 38.2433 83.7911 38.2222 83.6641 38.2012C83.8017 38.2222 83.9287 38.2433 84.0663 38.2433Z" fill="#F49F4A"/>
</g>
<g style="mix-blend-mode:multiply">
<path d="M81.9704 37.3266C81.8434 37.2107 81.7269 37.0948 81.6211 36.9473C81.7269 37.0843 81.8434 37.2002 81.9704 37.3266Z" fill="#F49F4A"/>
</g>
<g style="mix-blend-mode:multiply">
<path d="M82.8384 37.9478C83.0395 38.0427 83.2618 38.1164 83.4735 38.1691C83.2406 38.1164 83.0183 38.0321 82.8066 37.9268C82.8172 37.9268 82.8278 37.9478 82.8384 37.9478Z" fill="#F49F4A"/>
</g>
<path d="M84.2568 29.6865C85.1883 30.7614 86.088 31.8679 86.9348 33.0377C87.7922 34.2074 87.7499 35.7354 86.956 36.863C86.9984 36.8208 87.0407 36.7787 87.0725 36.726" fill="#F49F4A"/>
<path d="M86.9347 33.0269C86.0879 31.8677 85.1776 30.7612 84.2567 29.6758C83.3252 30.7507 82.4255 31.8572 81.5787 33.0269C80.7001 34.2283 80.7636 35.8195 81.621 36.9471C81.7268 37.0841 81.8539 37.2 81.9703 37.3265C82.0338 37.3897 82.0867 37.4529 82.1608 37.5162C82.2773 37.611 82.4043 37.6848 82.5313 37.7585C82.6266 37.8112 82.7007 37.885 82.8065 37.9272C83.0182 38.0325 83.2405 38.1063 83.4734 38.1695C83.5369 38.1801 83.6004 38.1906 83.6639 38.2011C83.8015 38.2222 83.9285 38.2433 84.0661 38.2433C85.1564 38.2749 86.2361 37.7375 86.9559 36.8523C87.7391 35.7352 87.7921 34.1966 86.9347 33.0269Z" fill="#80C4E9"/>
<g style="mix-blend-mode:multiply">
<path d="M86.9347 33.0269C86.0879 31.8677 85.1776 30.7612 84.2567 29.6758C83.3252 30.7507 82.4255 31.8572 81.5787 33.0269C80.7001 34.2283 80.7636 35.8195 81.621 36.9471C81.7268 37.0841 81.8539 37.2 81.9703 37.3265C82.0338 37.3897 82.0867 37.4529 82.1608 37.5162C82.2773 37.611 82.4043 37.6848 82.5313 37.7585C82.6266 37.8112 82.7007 37.885 82.8065 37.9272C83.0182 38.0325 83.2405 38.1063 83.4734 38.1695C83.5369 38.1801 83.6004 38.1906 83.6639 38.2011C83.8015 38.2222 83.9285 38.2433 84.0661 38.2433C85.1564 38.2749 86.2361 37.7375 86.9559 36.8523C87.7391 35.7352 87.7921 34.1966 86.9347 33.0269Z" fill="#F49F4A"/>
</g>
</svg>
